<svg width="1069" height="514" xmlns="http://www.w3.org/2000/svg" xmlns:xlink="http://www.w3.org/1999/xlink" overflow="hidden"><defs><clipPath id="clip0"><rect x="61" y="132" width="1069" height="514"/></clipPath></defs><g clip-path="url(#clip0)" transform="translate(-61 -132)"><path d="M845 228 852 221 859 228 852 235Z" fill="#FFB000" fill-rule="evenodd"/><path d="M845.5 190.5 852.5 183.5 859.5 190.5 852.5 197.5Z" stroke="#000000" stroke-width="1.33333" stroke-miterlimit="8" stroke-dasharray="1.33333 1.33333" fill="#FFB000" fill-rule="evenodd"/><path d="M908.5 197 902 190 908.5 183 915 190Z" fill="#FFB000" fill-rule="evenodd"/><path d="M871 197 864 190 871 183 878 190Z" fill="#FFB000" fill-rule="evenodd"/><path d="M908.5 235 902 228 908.5 221 915 228Z" fill="#FFB000" fill-rule="evenodd"/><path d="M871 235 864 228 871 221 878 228Z" fill="#FFB000" fill-rule="evenodd"/><path d="M845 246.5 852 240 859 246.5 852 253Z" fill="#FFB000" fill-rule="evenodd"/><path d="M909 253.5 902.5 247 909 240.5 915.5 247Z" stroke="#000000" stroke-width="1.33333" stroke-miterlimit="8" fill="#FFB000" fill-rule="evenodd"/><path d="M871 253 864 246.5 871 240 878 246.5Z" fill="#FFB000" fill-rule="evenodd"/><path d="M845 284.5 852 278 859 284.5 852 291Z" fill="#FFB000" fill-rule="evenodd"/><path d="M908.5 291 902 284.5 908.5 278 915 284.5Z" fill="#FFB000" fill-rule="evenodd"/><path d="M871 291 864 284.5 871 278 878 284.5Z" fill="#FFB000" fill-rule="evenodd"/><path d="M636 436 636 558.894" stroke="#000000" stroke-width="2" stroke-miterlimit="8" fill="none" fill-rule="evenodd"/><path d="M661 436 661 558.894" stroke="#000000" stroke-width="2" stroke-miterlimit="8" fill="none" fill-rule="evenodd"/><path d="M578 495 675.95 495" stroke="#000000" stroke-width="2" stroke-miterlimit="8" fill="none" fill-rule="evenodd"/><path d="M578 515 675.95 515" stroke="#000000" stroke-width="2" stroke-miterlimit="8" fill="none" fill-rule="evenodd"/><path d="M603 436 603 558.894" stroke="#648FFF" stroke-width="2" stroke-miterlimit="8" fill="none" fill-rule="evenodd"/><path d="M584 436 584 558.894" stroke="#648FFF" stroke-width="2" stroke-miterlimit="8" fill="none" fill-rule="evenodd"/><path d="M578 549 675.95 549" stroke="#648FFF" stroke-width="2" stroke-miterlimit="8" fill="none" fill-rule="evenodd"/><path d="M578 441 675.95 441" stroke="#648FFF" stroke-width="2" stroke-miterlimit="8" fill="none" fill-rule="evenodd"/><path d="M578 462 675.95 462" stroke="#648FFF" stroke-width="2" stroke-miterlimit="8" fill="none" fill-rule="evenodd"/><text font-family="Calibri,Calibri_MSFontService,sans-serif" font-weight="400" font-size="13" transform="translate(632.916 573)">23, 28<tspan font-size="13" x="49.7639" y="-72">1</tspan><tspan font-size="13" x="56.5972" y="-72">9,</tspan><tspan font-size="13" x="51.4305" y="-56">21</tspan></text><path d="M586.041 484.203 588.203 482.041 590.5 484.338 592.797 482.041 594.959 484.203 592.662 486.5 594.959 488.797 592.797 490.959 590.5 488.662 588.203 490.959 586.041 488.797 588.338 486.5Z" fill="#DC267F" fill-rule="evenodd"/><path d="M586.002 446.403 588.243 444.322 590.5 446.753 592.757 444.322 594.998 446.403 592.586 449 594.998 451.597 592.757 453.678 590.5 451.247 588.243 453.678 586.002 451.597 588.414 449Z" fill="#DC267F" fill-rule="evenodd"/><path d="M644.527 453.802 642.198 451.473 644.672 449 642.198 446.527 644.527 444.198 647 446.672 649.473 444.198 651.802 446.527 649.328 449 651.802 451.473 649.473 453.802 647 451.328Z" fill="#DC267F" fill-rule="evenodd"/><path d="M606.527 453.802 604.198 451.473 606.672 449 604.198 446.527 606.527 444.198 609 446.672 611.473 444.198 613.802 446.527 611.328 449 613.802 451.473 611.473 453.802 609 451.328Z" fill="#DC267F" fill-rule="evenodd"/><path d="M644.403 490.998 642.322 488.758 644.753 486.5 642.322 484.243 644.403 482.002 647 484.414 649.597 482.002 651.678 484.243 649.247 486.5 651.678 488.758 649.597 490.998 647 488.586Z" fill="#DC267F" fill-rule="evenodd"/><path d="M606.403 490.998 604.322 488.758 606.753 486.5 604.322 484.243 606.403 482.002 609 484.414 611.597 482.002 613.678 484.243 611.247 486.5 613.678 488.758 611.597 490.998 609 488.586Z" fill="#DC267F" fill-rule="evenodd"/><path d="M586.041 503.203 588.203 501.041 590.5 503.338 592.797 501.041 594.959 503.203 592.662 505.5 594.959 507.797 592.797 509.959 590.5 507.662 588.203 509.959 586.041 507.797 588.338 505.5Z" fill="#DC267F" fill-rule="evenodd"/><path d="M644.903 510.498 642.822 508.258 645.253 506 642.822 503.743 644.903 501.502 647.5 503.914 650.097 501.502 652.178 503.743 649.747 506 652.178 508.258 650.097 510.498 647.5 508.086Z" stroke="#000000" stroke-width="1.33333" stroke-miterlimit="8" fill="#DC267F" fill-rule="evenodd"/><path d="M606.403 509.998 604.322 507.758 606.753 505.5 604.322 503.243 606.403 501.002 609 503.414 611.597 501.002 613.678 503.243 611.247 505.5 613.678 507.758 611.597 509.998 609 507.586Z" fill="#DC267F" fill-rule="evenodd"/><path d="M586.002 540.403 588.243 538.322 590.5 540.753 592.757 538.322 594.998 540.403 592.586 543 594.998 545.597 592.757 547.678 590.5 545.247 588.243 547.678 586.002 545.597 588.414 543Z" fill="#DC267F" fill-rule="evenodd"/><path d="M644.527 547.802 642.198 545.473 644.672 543 642.198 540.527 644.527 538.198 647 540.672 649.473 538.198 651.802 540.527 649.328 543 651.802 545.473 649.473 547.802 647 545.328Z" fill="#DC267F" fill-rule="evenodd"/><path d="M606.527 547.802 604.198 545.473 606.672 543 604.198 540.527 606.527 538.198 609 540.672 611.473 538.198 613.802 540.527 611.328 543 613.802 545.473 611.473 547.802 609 545.328Z" fill="#DC267F" fill-rule="evenodd"/><path d="M592.198 225.527 594.527 223.198 597 225.672 599.473 223.198 601.802 225.527 599.328 228 601.802 230.473 599.473 232.802 597 230.328 594.527 232.802 592.198 230.473 594.672 228Z" fill="#DC267F" fill-rule="evenodd"/><path d="M592.198 187.527 594.527 185.198 597 187.672 599.473 185.198 601.802 187.527 599.328 190 601.802 192.473 599.473 194.802 597 192.328 594.527 194.802 592.198 192.473 594.672 190Z" fill="#DC267F" fill-rule="evenodd"/><path d="M651.243 194.678 649.002 192.597 651.414 190 649.002 187.403 651.243 185.322 653.5 187.753 655.758 185.322 657.998 187.403 655.586 190 657.998 192.597 655.758 194.678 653.5 192.247Z" fill="#DC267F" fill-rule="evenodd"/><path d="M613.527 194.802 611.198 192.473 613.672 190 611.198 187.527 613.527 185.198 616 187.672 618.473 185.198 620.802 187.527 618.328 190 620.802 192.473 618.473 194.802 616 192.328Z" fill="#DC267F" fill-rule="evenodd"/><path d="M651.243 232.678 649.002 230.597 651.414 228 649.002 225.403 651.243 223.322 653.5 225.753 655.758 223.322 657.998 225.403 655.586 228 657.998 230.597 655.758 232.678 653.5 230.247Z" fill="#DC267F" fill-rule="evenodd"/><path d="M613.527 232.802 611.198 230.473 613.672 228 611.198 225.527 613.527 223.198 616 225.672 618.473 223.198 620.802 225.527 618.328 228 620.802 230.473 618.473 232.802 616 230.328Z" fill="#DC267F" fill-rule="evenodd"/><path d="M592.322 244.243 594.403 242.002 597 244.414 599.597 242.002 601.678 244.243 599.247 246.5 601.678 248.757 599.597 250.998 597 248.586 594.403 250.998 592.322 248.757 594.753 246.5Z" fill="#DC267F" fill-rule="evenodd"/><path d="M651.703 251.459 649.541 249.297 651.838 247 649.541 244.703 651.703 242.541 654 244.838 656.297 242.541 658.459 244.703 656.162 247 658.459 249.297 656.297 251.459 654 249.162Z" stroke="#000000" stroke-width="1.33333" stroke-miterlimit="8" fill="#DC267F" fill-rule="evenodd"/><path d="M613.403 250.998 611.322 248.757 613.753 246.5 611.322 244.243 613.403 242.002 616 244.414 618.597 242.002 620.678 244.243 618.247 246.5 620.678 248.757 618.597 250.998 616 248.586Z" fill="#DC267F" fill-rule="evenodd"/><path d="M592.322 282.243 594.403 280.002 597 282.414 599.597 280.002 601.678 282.243 599.247 284.5 601.678 286.757 599.597 288.998 597 286.586 594.403 288.998 592.322 286.757 594.753 284.5Z" fill="#DC267F" fill-rule="evenodd"/><path d="M651.203 288.959 649.041 286.797 651.338 284.5 649.041 282.203 651.203 280.041 653.5 282.338 655.797 280.041 657.959 282.203 655.662 284.5 657.959 286.797 655.797 288.959 653.5 286.662Z" fill="#DC267F" fill-rule="evenodd"/><path d="M613.403 288.998 611.322 286.758 613.753 284.5 611.322 282.243 613.403 280.002 616 282.414 618.597 280.002 620.678 282.243 618.247 284.5 620.678 286.758 618.597 288.998 616 286.586Z" fill="#DC267F" fill-rule="evenodd"/><rect x="839.5" y="461.5" width="19" height="34" stroke="#FFFFFF" stroke-width="1.33333" stroke-miterlimit="8" fill="#FFB000"/><rect x="891.5" y="440.5" width="24" height="21" stroke="#FFFFFF" stroke-width="1.33333" stroke-miterlimit="8" fill="#FFB000"/><rect x="857.5" y="440.5" width="34" height="21" stroke="#FFFFFF" stroke-width="1.33333" stroke-miterlimit="8" fill="#FFB000"/><rect x="891.5" y="461.5" width="24" height="34" stroke="#FFFFFF" stroke-width="1.33333" stroke-miterlimit="8" fill="#FFB000"/><rect x="857.5" y="461.5" width="34" height="34" stroke="#FFFFFF" stroke-width="1.33333" stroke-miterlimit="8" fill="#FFB000"/><rect x="839.5" y="495.5" width="19" height="19" stroke="#FFFFFF" stroke-width="1.33333" stroke-miterlimit="8" fill="#FFB000"/><rect x="857.5" y="495.5" width="34" height="19" stroke="#FFFFFF" stroke-width="1.33333" stroke-miterlimit="8" fill="#FFB000"/><rect x="839.5" y="514.5" width="19" height="34" stroke="#FFFFFF" stroke-width="1.33333" stroke-miterlimit="8" fill="#FFB000"/><rect x="891.5" y="514.5" width="24" height="34" stroke="#FFFFFF" stroke-width="1.33333" stroke-miterlimit="8" fill="#FFB000"/><rect x="857.5" y="514.5" width="34" height="34" stroke="#FFFFFF" stroke-width="1.33333" stroke-miterlimit="8" fill="#FFB000"/><rect x="891.5" y="495.5" width="24" height="19" stroke="#000000" stroke-width="1.33333" stroke-miterlimit="8" fill="#FFB000"/><rect x="839.5" y="440.5" width="19" height="21" stroke="#000000" stroke-width="1.33333" stroke-miterlimit="8" stroke-dasharray="1.33333 1.33333" fill="#FFB000"/><rect x="1038.5" y="304.5" width="82" height="108" stroke="#000000" stroke-width="1.33333" stroke-miterlimit="8" fill="none"/><path d="M1046.5 319.5C1046.5 315.634 1049.63 312.5 1053.5 312.5 1057.37 312.5 1060.5 315.634 1060.5 319.5 1060.5 323.366 1057.37 326.5 1053.5 326.5 1049.63 326.5 1046.5 323.366 1046.5 319.5Z" stroke="#000000" stroke-width="1.33333" stroke-miterlimit="8" stroke-dasharray="1.33333 1.33333" fill="#FFB000" fill-rule="evenodd"/><path d="M1105 326C1101.13 326 1098 323.09 1098 319.5 1098 315.91 1101.13 313 1105 313 1108.87 313 1112 315.91 1112 319.5 1112 323.09 1108.87 326 1105 326Z" fill="#FFB000" fill-rule="evenodd"/><path d="M1079 326C1075.13 326 1072 323.09 1072 319.5 1072 315.91 1075.13 313 1079 313 1082.87 313 1086 315.91 1086 319.5 1086 323.09 1082.87 326 1079 326Z" fill="#FFB000" fill-rule="evenodd"/><rect x="1041.5" y="308.5" width="76" height="23" stroke="#000000" stroke-width="1.33333" stroke-miterlimit="8" fill="none"/><path d="M1047 345.5C1047 341.91 1049.91 339 1053.5 339 1057.09 339 1060 341.91 1060 345.5 1060 349.09 1057.09 352 1053.5 352 1049.91 352 1047 349.09 1047 345.5Z" fill="#FFB000" fill-rule="evenodd"/><path d="M1105 353C1101.13 353 1098 349.866 1098 346 1098 342.134 1101.13 339 1105 339 1108.87 339 1112 342.134 1112 346 1112 349.866 1108.87 353 1105 353Z" fill="#FFB000" fill-rule="evenodd"/><path d="M1079 353C1075.13 353 1072 349.866 1072 346 1072 342.134 1075.13 339 1079 339 1082.87 339 1086 342.134 1086 346 1086 349.866 1082.87 353 1079 353Z" fill="#FFB000" fill-rule="evenodd"/><rect x="1041.5" y="334.5" width="76" height="23" stroke="#000000" stroke-width="1.33333" stroke-miterlimit="8" fill="none"/><path d="M1047 371.5C1047 367.91 1049.91 365 1053.5 365 1057.09 365 1060 367.91 1060 371.5 1060 375.09 1057.09 378 1053.5 378 1049.91 378 1047 375.09 1047 371.5Z" fill="#FFB000" fill-rule="evenodd"/><path d="M1105.5 379.5C1101.63 379.5 1098.5 376.366 1098.5 372.5 1098.5 368.634 1101.63 365.5 1105.5 365.5 1109.37 365.5 1112.5 368.634 1112.5 372.5 1112.5 376.366 1109.37 379.5 1105.5 379.5Z" stroke="#000000" stroke-width="1.33333" stroke-miterlimit="8" fill="#FFB000" fill-rule="evenodd"/><path d="M1079 379C1075.13 379 1072 375.866 1072 372 1072 368.134 1075.13 365 1079 365 1082.87 365 1086 368.134 1086 372 1086 375.866 1082.87 379 1079 379Z" fill="#FFB000" fill-rule="evenodd"/><rect x="1041.5" y="360.5" width="76" height="23" stroke="#000000" stroke-width="1.33333" stroke-miterlimit="8" fill="none"/><path d="M1047 398C1047 394.134 1049.91 391 1053.5 391 1057.09 391 1060 394.134 1060 398 1060 401.866 1057.09 405 1053.5 405 1049.91 405 1047 401.866 1047 398Z" fill="#FFB000" fill-rule="evenodd"/><path d="M1105 405C1101.13 405 1098 401.866 1098 398 1098 394.134 1101.13 391 1105 391 1108.87 391 1112 394.134 1112 398 1112 401.866 1108.87 405 1105 405Z" fill="#FFB000" fill-rule="evenodd"/><path d="M1079 405C1075.13 405 1072 401.866 1072 398 1072 394.134 1075.13 391 1079 391 1082.87 391 1086 394.134 1086 398 1086 401.866 1082.87 405 1079 405Z" fill="#FFB000" fill-rule="evenodd"/><rect x="1041.5" y="387.5" width="76" height="22" stroke="#000000" stroke-width="1.33333" stroke-miterlimit="8" fill="none"/><text font-family="Calibri,Calibri_MSFontService,sans-serif" font-weight="400" font-size="13" transform="translate(174.397 197)">10<tspan font-size="13" x="0" y="26">15</tspan><tspan font-size="13" x="0" y="51">25</tspan><tspan font-size="13" x="95.1539" y="0">5</tspan><tspan font-size="13" x="95.1872" y="25">15</tspan><tspan font-size="13" x="95.1872" y="51">20</tspan><tspan font-size="13" x="95.1872" y="78">30</tspan></text><path d="M252.5 264C256.09 264 259 267.134 259 271 259 274.866 256.09 278 252.5 278 248.91 278 246 274.866 246 271 246 267.134 248.91 264 252.5 264Z" fill="#DC267F" fill-rule="evenodd"/><path d="M252.5 187C256.09 187 259 190.134 259 194 259 197.866 256.09 201 252.5 201 248.91 201 246 197.866 246 194 246 190.134 248.91 187 252.5 187Z" fill="#DC267F" fill-rule="evenodd"/><path d="M246.5 246C246.5 242.41 249.41 239.5 253 239.5 256.59 239.5 259.5 242.41 259.5 246 259.5 249.59 256.59 252.5 253 252.5 249.41 252.5 246.5 249.59 246.5 246Z" stroke="#000000" stroke-width="1.33333" stroke-miterlimit="8" fill="#DC267F" fill-rule="evenodd"/><path d="M246 219.5C246 215.91 248.91 213 252.5 213 256.09 213 259 215.91 259 219.5 259 223.09 256.09 226 252.5 226 248.91 226 246 223.09 246 219.5Z" fill="#DC267F" fill-rule="evenodd"/><rect x="241.5" y="182.5" width="23" height="101" stroke="#000000" stroke-width="1.33333" stroke-miterlimit="8" fill="none"/><path d="M207.5 188C211.09 188 214 190.91 214 194.5 214 198.09 211.09 201 207.5 201 203.91 201 201 198.09 201 194.5 201 190.91 203.91 188 207.5 188Z" fill="#DC267F" fill-rule="evenodd"/><path d="M201.5 246.5C201.5 242.634 204.41 239.5 208 239.5 211.59 239.5 214.5 242.634 214.5 246.5 214.5 250.366 211.59 253.5 208 253.5 204.41 253.5 201.5 250.366 201.5 246.5Z" stroke="#000000" stroke-width="1.33333" stroke-miterlimit="8" fill="#DC267F" fill-rule="evenodd"/><path d="M201 220.5C201 216.91 203.91 214 207.5 214 211.09 214 214 216.91 214 220.5 214 224.09 211.09 227 207.5 227 203.91 227 201 224.09 201 220.5Z" fill="#DC267F" fill-rule="evenodd"/><rect x="196.5" y="182.5" width="23" height="76" stroke="#000000" stroke-width="1.33333" stroke-miterlimit="8" fill="none"/><path d="M203.322 163.632 210.656 163.632 210.656 178.632 203.322 178.632Z" fill="#C0C0C0" fill-rule="evenodd"/><text font-family="Consolas,Consolas_MSFontService,sans-serif" font-weight="700" font-size="13" transform="translate(203.322 176)">x</text><path d="M248.996 163.632 256.329 163.632 256.329 178.632 248.996 178.632Z" fill="#C0C0C0" fill-rule="evenodd"/><text font-family="Consolas,Consolas_MSFontService,sans-serif" font-weight="700" font-size="13" transform="translate(248.996 176)">y<tspan font-family="Arial,Arial_MSFontService,sans-serif" font-weight="400" font-size="15" x="-81.0652" y="-24">Coordinate Arrays</tspan></text><path d="M151 519C154.866 519 158 521.91 158 525.5 158 529.09 154.866 532 151 532 147.134 532 144 529.09 144 525.5 144 521.91 147.134 519 151 519Z" fill="#DC267F" fill-rule="evenodd"/><path d="M151 441C154.866 441 158 444.134 158 448 158 451.866 154.866 455 151 455 147.134 455 144 451.866 144 448 144 444.134 147.134 441 151 441Z" fill="#DC267F" fill-rule="evenodd"/><path d="M144.5 500.5C144.5 496.634 147.634 493.5 151.5 493.5 155.366 493.5 158.5 496.634 158.5 500.5 158.5 504.366 155.366 507.5 151.5 507.5 147.634 507.5 144.5 504.366 144.5 500.5Z" stroke="#000000" stroke-width="1.33333" stroke-miterlimit="8" fill="#DC267F" fill-rule="evenodd"/><path d="M144 474C144 470.134 147.134 467 151 467 154.866 467 158 470.134 158 474 158 477.866 154.866 481 151 481 147.134 481 144 477.866 144 474Z" fill="#DC267F" fill-rule="evenodd"/><rect x="140.5" y="437.5" width="23" height="100" stroke="#000000" stroke-width="1.33333" stroke-miterlimit="8" fill="none"/><path d="M112 442C115.866 442 119 445.134 119 449 119 452.866 115.866 456 112 456 108.134 456 105 452.866 105 449 105 445.134 108.134 442 112 442Z" fill="#DC267F" fill-rule="evenodd"/><path d="M105.5 501C105.5 497.41 108.634 494.5 112.5 494.5 116.366 494.5 119.5 497.41 119.5 501 119.5 504.59 116.366 507.5 112.5 507.5 108.634 507.5 105.5 504.59 105.5 501Z" stroke="#000000" stroke-width="1.33333" stroke-miterlimit="8" fill="#DC267F" fill-rule="evenodd"/><path d="M105 475C105 471.134 108.134 468 112 468 115.866 468 119 471.134 119 475 119 478.866 115.866 482 112 482 108.134 482 105 478.866 105 475Z" fill="#DC267F" fill-rule="evenodd"/><rect x="101.5" y="437.5" width="22" height="76" stroke="#000000" stroke-width="1.33333" stroke-miterlimit="8" fill="none"/><path d="M108.609 417.952 115.943 417.952 115.943 432.952 108.609 432.952Z" fill="#C0C0C0" fill-rule="evenodd"/><text font-family="Consolas,Consolas_MSFontService,sans-serif" font-weight="700" font-size="13" transform="translate(108.609 430)">x</text><path d="M146.908 417.952 154.241 417.952 154.241 432.952 146.908 432.952Z" fill="#C0C0C0" fill-rule="evenodd"/><text font-family="Consolas,Consolas_MSFontService,sans-serif" font-weight="700" font-size="13" transform="translate(146.908 430)">y<tspan font-family="Arial,Arial_MSFontService,sans-serif" font-weight="400" font-size="15" x="-75.3372" y="-26">Coordinate Arrays</tspan><tspan font-family="Calibri,Calibri_MSFontService,sans-serif" font-weight="400" font-size="13" x="67.0813" y="94">23, 28</tspan><tspan font-family="Calibri,Calibri_MSFontService,sans-serif" font-weight="400" font-size="13" x="261.569" y="94">1</tspan><tspan font-family="Calibri,Calibri_MSFontService,sans-serif" font-weight="400" font-size="13" x="268.403" y="94">9</tspan><tspan font-family="Calibri,Calibri_MSFontService,sans-serif" font-weight="400" font-size="13" x="275.236" y="94">, 21</tspan></text><path d="M270 455.5C270 451.91 272.91 449 276.5 449 280.09 449 283 451.91 283 455.5 283 459.09 280.09 462 276.5 462 272.91 462 270 459.09 270 455.5Z" fill="#648FFF" fill-rule="evenodd"/><path d="M302.5 462C298.91 462 296 459.09 296 455.5 296 451.91 298.91 449 302.5 449 306.09 449 309 451.91 309 455.5 309 459.09 306.09 462 302.5 462Z" fill="#648FFF" fill-rule="evenodd"/><rect x="263.5" y="444.5" width="53" height="23" stroke="#000000" stroke-width="1.33333" stroke-miterlimit="8" fill="none"/><path d="M270 488C270 484.134 272.91 481 276.5 481 280.09 481 283 484.134 283 488 283 491.866 280.09 495 276.5 495 272.91 495 270 491.866 270 488Z" fill="#648FFF" fill-rule="evenodd"/><path d="M302.5 495C298.91 495 296 491.866 296 488 296 484.134 298.91 481 302.5 481 306.09 481 309 484.134 309 488 309 491.866 306.09 495 302.5 495Z" fill="#648FFF" fill-rule="evenodd"/><rect x="263.5" y="477.5" width="53" height="22" stroke="#000000" stroke-width="1.33333" stroke-miterlimit="8" fill="none"/><path d="M270.5 521C270.5 517.41 273.41 514.5 277 514.5 280.59 514.5 283.5 517.41 283.5 521 283.5 524.59 280.59 527.5 277 527.5 273.41 527.5 270.5 524.59 270.5 521Z" stroke="#000000" stroke-width="1.33333" stroke-miterlimit="8" fill="#648FFF" fill-rule="evenodd"/><path d="M303 527.5C299.41 527.5 296.5 524.59 296.5 521 296.5 517.41 299.41 514.5 303 514.5 306.59 514.5 309.5 517.41 309.5 521 309.5 524.59 306.59 527.5 303 527.5Z" stroke="#000000" stroke-width="1.33333" stroke-miterlimit="8" fill="#648FFF" fill-rule="evenodd"/><rect x="263.5" y="509.5" width="53" height="23" stroke="#000000" stroke-width="3" stroke-miterlimit="8" fill="none"/><rect x="256.5" y="436.5" width="66" height="104" stroke="#000000" stroke-width="1.33333" stroke-miterlimit="8" fill="none"/><path d="M349 455C349 451.134 351.91 448 355.5 448 359.09 448 362 451.134 362 455 362 458.866 359.09 462 355.5 462 351.91 462 349 458.866 349 455Z" fill="#648FFF" fill-rule="evenodd"/><path d="M381 462C377.134 462 374 458.866 374 455 374 451.134 377.134 448 381 448 384.866 448 388 451.134 388 455 388 458.866 384.866 462 381 462Z" fill="#648FFF" fill-rule="evenodd"/><rect x="342.5" y="444.5" width="53" height="22" stroke="#000000" stroke-width="1.33333" stroke-miterlimit="8" fill="none"/><path d="M349 488C349 484.134 351.91 481 355.5 481 359.09 481 362 484.134 362 488 362 491.866 359.09 495 355.5 495 351.91 495 349 491.866 349 488Z" fill="#648FFF" fill-rule="evenodd"/><path d="M381 495C377.134 495 374 491.866 374 488 374 484.134 377.134 481 381 481 384.866 481 388 484.134 388 488 388 491.866 384.866 495 381 495Z" fill="#648FFF" fill-rule="evenodd"/><rect x="342.5" y="477.5" width="53" height="22" stroke="#000000" stroke-width="1.33333" stroke-miterlimit="8" fill="none"/><path d="M349.5 520.5C349.5 516.634 352.41 513.5 356 513.5 359.59 513.5 362.5 516.634 362.5 520.5 362.5 524.366 359.59 527.5 356 527.5 352.41 527.5 349.5 524.366 349.5 520.5Z" stroke="#000000" stroke-width="1.33333" stroke-miterlimit="8" fill="#648FFF" fill-rule="evenodd"/><path d="M381.5 527.5C377.634 527.5 374.5 524.366 374.5 520.5 374.5 516.634 377.634 513.5 381.5 513.5 385.366 513.5 388.5 516.634 388.5 520.5 388.5 524.366 385.366 527.5 381.5 527.5Z" stroke="#000000" stroke-width="1.33333" stroke-miterlimit="8" fill="#648FFF" fill-rule="evenodd"/><rect x="342.5" y="509.5" width="53" height="23" stroke="#000000" stroke-width="3" stroke-miterlimit="8" fill="none"/><path d="M349 553.5C349 549.91 351.91 547 355.5 547 359.09 547 362 549.91 362 553.5 362 557.09 359.09 560 355.5 560 351.91 560 349 557.09 349 553.5Z" fill="#648FFF" fill-rule="evenodd"/><path d="M381 560C377.134 560 374 557.09 374 553.5 374 549.91 377.134 547 381 547 384.866 547 388 549.91 388 553.5 388 557.09 384.866 560 381 560Z" fill="#648FFF" fill-rule="evenodd"/><rect x="342.5" y="542.5" width="53" height="23" stroke="#000000" stroke-width="1.33333" stroke-miterlimit="8" fill="none"/><rect x="335.5" y="436.5" width="67" height="137" stroke="#000000" stroke-width="1.33333" stroke-miterlimit="8" fill="none"/><path d="M284.736 418.217 292.069 418.217 292.069 433.217 284.736 433.217Z" fill="#C0C0C0" fill-rule="evenodd"/><text font-family="Consolas,Consolas_MSFontService,sans-serif" font-weight="700" font-size="13" transform="translate(284.736 430)">x</text><path d="M365.157 418.217 372.49 418.217 372.49 433.217 365.157 433.217Z" fill="#C0C0C0" fill-rule="evenodd"/><text font-family="Consolas,Consolas_MSFontService,sans-serif" font-weight="700" font-size="13" transform="translate(365.157 430)">y<tspan font-family="Arial,Arial_MSFontService,sans-serif" font-weight="400" font-size="15" x="-81.3841" y="-26">Bounds Arrays</tspan></text><path d="M316.5 228.167 561.1 228.167 561.1 230.833 316.5 230.833ZM553.771 223.682 563.746 229.5 553.771 235.319C553.135 235.69 552.319 235.475 551.948 234.839 551.577 234.203 551.792 233.386 552.428 233.015L560.428 228.348 560.428 230.652 552.428 225.985C551.792 225.614 551.577 224.798 551.948 224.162 552.319 223.526 553.135 223.311 553.771 223.682Z"/><path d="M690.5 228.167 819.762 228.167 819.762 230.833 690.5 230.833ZM812.434 223.682 822.409 229.5 812.434 235.319C811.798 235.69 810.982 235.475 810.611 234.839 810.24 234.203 810.455 233.386 811.091 233.015L819.091 228.348 819.091 230.652 811.091 225.985C810.455 225.614 810.24 224.798 810.611 224.162 810.982 223.526 811.798 223.311 812.434 223.682Z"/><path d="M463.5 492.167 541.007 492.167 541.007 494.833 463.5 494.833ZM533.679 487.682 543.653 493.5 533.679 499.319C533.043 499.69 532.226 499.475 531.855 498.839 531.484 498.203 531.699 497.386 532.335 497.015L540.335 492.348 540.335 494.652 532.335 489.985C531.699 489.614 531.484 488.798 531.855 488.162 532.226 487.526 533.043 487.311 533.679 487.682Z"/><path d="M728.5 492.167 806.007 492.167 806.007 494.833 728.5 494.833ZM798.679 487.682 808.653 493.5 798.679 499.319C798.043 499.69 797.226 499.475 796.855 498.839 796.484 498.203 796.699 497.386 797.335 497.015L805.335 492.348 805.335 494.652 797.335 489.985C796.699 489.614 796.484 488.798 796.855 488.162 797.226 487.526 798.043 487.311 798.679 487.682Z"/><path d="M1028.21 302.462 940.148 252.956 941.455 250.631 1029.52 300.138ZM944.338 260.457 938.495 250.497 950.041 250.313C950.777 250.301 951.383 250.889 951.395 251.625 951.407 252.361 950.819 252.968 950.083 252.979L940.823 253.127 941.951 251.119 946.638 259.107C947.011 259.742 946.798 260.559 946.163 260.932 945.528 261.305 944.711 261.092 944.338 260.457Z"/><path d="M0.86963-1.0107 95.9808 80.8249 94.2416 82.8463-0.86963 1.0107ZM93.3509 72.6453 97.1168 83.5613 85.7611 81.4663C85.0369 81.3327 84.5582 80.6373 84.6918 79.9132 84.8254 79.189 85.5208 78.7103 86.2449 78.8439L95.3528 80.5242 93.8505 82.2702 90.83 73.515C90.5898 72.8189 90.9595 72.0599 91.6556 71.8197 92.3517 71.5796 93.1107 71.9492 93.3509 72.6453Z" transform="matrix(-1 0 0 1 1035.61 419.5)"/><text font-family="Arial,Arial_MSFontService,sans-serif" font-style="italic" font-weight="400" font-size="16" transform="translate(554.907 157)">derive point locations<tspan font-size="16" x="260.05" y="177">assign data using </tspan><tspan font-size="16" x="250.383" y="196">dimensional </tspan><tspan font-size="16" x="339.716" y="196">indices,</tspan><tspan font-size="16" x="226.296" y="234">position in array == relative </tspan><tspan font-size="16" x="269.383" y="253">spatial position</tspan><tspan font-size="16" x="34.965" y="456">derive area </tspan><tspan font-size="16" x="7.88495" y="475">locations &amp; shapes</tspan><tspan font-style="normal" font-weight="700" font-size="16" x="285.325" y="1">Point Data</tspan></text><path d="M840.732 159.969 867.065 159.969 893.398 159.969 919.732 159.969 919.732 161.969 893.398 161.969 867.065 161.969 840.732 161.969Z" fill-rule="evenodd"/><text font-family="Arial,Arial_MSFontService,sans-serif" font-weight="700" font-size="16" transform="translate(842.648 584)">Area Data</text><path d="M842.735 585.557 867.402 585.557 892.068 585.557 916.735 585.557 916.735 587.557 892.068 587.557 867.402 587.557 842.735 587.557Z" fill-rule="evenodd"/><text font-family="Arial,Arial_MSFontService,sans-serif" font-weight="400" font-size="16" transform="translate(1039.81 271)">Data Array<tspan font-style="italic" font-size="14" x="-566.513" y="148">(bounded </tspan><tspan font-style="italic" font-size="14" x="-503.179" y="148">coords</tspan><tspan font-style="italic" font-size="14" x="-552.426" y="164">always have </tspan><tspan font-style="italic" font-size="14" x="-546.513" y="181">points too)</tspan></text><path d="M1038.7 283.746 1119.36 283.746 1119.36 298.746 1038.7 298.746Z" fill="#C0C0C0" fill-rule="evenodd"/><text font-family="Consolas,Consolas_MSFontService,sans-serif" font-weight="700" font-size="13" transform="translate(1038.7 296)">my_variable</text></g></svg>