<svg width="1084" height="620" xmlns="http://www.w3.org/2000/svg" xmlns:xlink="http://www.w3.org/1999/xlink" overflow="hidden"><defs><clipPath id="clip0"><rect x="123" y="95" width="1084" height="620"/></clipPath></defs><g clip-path="url(#clip0)" transform="translate(-123 -95)"><path d="M726.002 231.403 728.243 229.322 730.5 231.753 732.757 229.322 734.998 231.403 732.586 234 734.998 236.597 732.757 238.678 730.5 236.247 728.243 238.678 726.002 236.597 728.414 234Z" fill="#DC267F" fill-rule="evenodd"/><path d="M726.502 193.903 728.743 191.822 731 194.253 733.258 191.822 735.498 193.903 733.086 196.5 735.498 199.097 733.258 201.178 731 198.747 728.743 201.178 726.502 199.097 728.914 196.5Z" stroke="#000000" stroke-miterlimit="8" stroke-dasharray="1 1" fill="#DC267F" fill-rule="evenodd"/><path d="M784.527 200.802 782.198 198.473 784.672 196 782.198 193.527 784.527 191.198 787 193.672 789.473 191.198 791.802 193.527 789.328 196 791.802 198.473 789.473 200.802 787 198.328Z" fill="#DC267F" fill-rule="evenodd"/><path d="M747.243 200.678 745.002 198.597 747.414 196 745.002 193.403 747.243 191.322 749.5 193.753 751.758 191.322 753.998 193.403 751.586 196 753.998 198.597 751.758 200.678 749.5 198.247Z" fill="#DC267F" fill-rule="evenodd"/><path d="M784.527 238.802 782.198 236.473 784.672 234 782.198 231.527 784.527 229.198 787 231.672 789.473 229.198 791.802 231.527 789.328 234 791.802 236.473 789.473 238.802 787 236.328Z" fill="#DC267F" fill-rule="evenodd"/><path d="M747.243 238.678 745.002 236.597 747.414 234 745.002 231.403 747.243 229.322 749.5 231.753 751.758 229.322 753.998 231.403 751.586 234 753.998 236.597 751.758 238.678 749.5 236.247Z" fill="#DC267F" fill-rule="evenodd"/><path d="M726.002 250.403 728.243 248.322 730.5 250.753 732.757 248.322 734.998 250.403 732.586 253 734.998 255.597 732.757 257.678 730.5 255.247 728.243 257.678 726.002 255.597 728.414 253Z" fill="#DC267F" fill-rule="evenodd"/><path d="M785.027 258.302 782.698 255.973 785.172 253.5 782.698 251.027 785.027 248.698 787.5 251.172 789.973 248.698 792.302 251.027 789.828 253.5 792.302 255.973 789.973 258.302 787.5 255.828Z" stroke="#000000" stroke-width="1.33333" stroke-miterlimit="8" fill="#DC267F" fill-rule="evenodd"/><path d="M747.243 257.678 745.002 255.597 747.414 253 745.002 250.403 747.243 248.322 749.5 250.753 751.758 248.322 753.998 250.403 751.586 253 753.998 255.597 751.758 257.678 749.5 255.247Z" fill="#DC267F" fill-rule="evenodd"/><path d="M726.041 288.203 728.203 286.041 730.5 288.338 732.797 286.041 734.959 288.203 732.662 290.5 734.959 292.797 732.797 294.959 730.5 292.662 728.203 294.959 726.041 292.797 728.338 290.5Z" fill="#DC267F" fill-rule="evenodd"/><path d="M784.403 294.998 782.322 292.758 784.753 290.5 782.322 288.243 784.403 286.002 787 288.414 789.597 286.002 791.678 288.243 789.247 290.5 791.678 292.758 789.597 294.998 787 292.586Z" fill="#DC267F" fill-rule="evenodd"/><path d="M747.203 294.959 745.041 292.797 747.338 290.5 745.041 288.203 747.203 286.041 749.5 288.338 751.797 286.041 753.959 288.203 751.662 290.5 753.959 292.797 751.797 294.959 749.5 292.662Z" fill="#DC267F" fill-rule="evenodd"/><path d="M926 233 932.5 226 939 233 932.5 240Z" fill="#FFB000" fill-rule="evenodd"/><path d="M926.5 196 933 189.5 939.5 196 933 202.5Z" stroke="#000000" stroke-width="1.33333" stroke-miterlimit="8" stroke-dasharray="1.33333 1.33333" fill="#FFB000" fill-rule="evenodd"/><path d="M989 202 982 195.5 989 189 996 195.5Z" fill="#FFB000" fill-rule="evenodd"/><path d="M951 202 944 195.5 951 189 958 195.5Z" fill="#FFB000" fill-rule="evenodd"/><path d="M989 240 982 233 989 226 996 233Z" fill="#FFB000" fill-rule="evenodd"/><path d="M951 240 944 233 951 226 958 233Z" fill="#FFB000" fill-rule="evenodd"/><path d="M926 252 932.5 245 939 252 932.5 259Z" fill="#FFB000" fill-rule="evenodd"/><path d="M989.5 259.5 982.5 252.5 989.5 245.5 996.5 252.5Z" stroke="#000000" stroke-width="1.33333" stroke-miterlimit="8" fill="#FFB000" fill-rule="evenodd"/><path d="M951 259 944 252 951 245 958 252Z" fill="#FFB000" fill-rule="evenodd"/><path d="M926 290 932.5 283 939 290 932.5 297Z" fill="#FFB000" fill-rule="evenodd"/><path d="M989 297 982 290 989 283 996 290Z" fill="#FFB000" fill-rule="evenodd"/><path d="M951 297 944 290 951 283 958 290Z" fill="#FFB000" fill-rule="evenodd"/><rect x="922.5" y="491.5" width="19" height="34" stroke="#FFFFFF" stroke-width="1.33333" stroke-miterlimit="8" fill="#FFB000"/><rect x="974.5" y="471.5" width="25" height="20" stroke="#FFFFFF" stroke-width="1.33333" stroke-miterlimit="8" fill="#FFB000"/><rect x="941.5" y="471.5" width="33" height="20" stroke="#FFFFFF" stroke-width="1.33333" stroke-miterlimit="8" fill="#FFB000"/><rect x="974.5" y="491.5" width="25" height="34" stroke="#FFFFFF" stroke-width="1.33333" stroke-miterlimit="8" fill="#FFB000"/><rect x="941.5" y="491.5" width="33" height="34" stroke="#FFFFFF" stroke-width="1.33333" stroke-miterlimit="8" fill="#FFB000"/><rect x="922.5" y="525.5" width="19" height="20" stroke="#FFFFFF" stroke-width="1.33333" stroke-miterlimit="8" fill="#FFB000"/><rect x="941.5" y="525.5" width="33" height="20" stroke="#FFFFFF" stroke-width="1.33333" stroke-miterlimit="8" fill="#FFB000"/><rect x="922.5" y="545.5" width="19" height="34" stroke="#FFFFFF" stroke-width="1.33333" stroke-miterlimit="8" fill="#FFB000"/><rect x="974.5" y="545.5" width="25" height="34" stroke="#FFFFFF" stroke-width="1.33333" stroke-miterlimit="8" fill="#FFB000"/><rect x="941.5" y="545.5" width="33" height="34" stroke="#FFFFFF" stroke-width="1.33333" stroke-miterlimit="8" fill="#FFB000"/><rect x="974.5" y="525.5" width="25" height="20" stroke="#000000" stroke-width="1.33333" stroke-miterlimit="8" fill="#FFB000"/><rect x="922.5" y="471.5" width="19" height="20" stroke="#000000" stroke-width="1.33333" stroke-miterlimit="8" stroke-dasharray="1.33333 1.33333" fill="#FFB000"/><path d="M332.041 470.203 334.203 468.041 336.5 470.338 338.797 468.041 340.959 470.203 338.662 472.5 340.959 474.797 338.797 476.959 336.5 474.662 334.203 476.959 332.041 474.797 334.338 472.5Z" fill="#DC267F" fill-rule="evenodd"/><path d="M351.041 470.203 353.203 468.041 355.5 470.338 357.797 468.041 359.959 470.203 357.662 472.5 359.959 474.797 357.797 476.959 355.5 474.662 353.203 476.959 351.041 474.797 353.338 472.5Z" fill="#DC267F" fill-rule="evenodd"/><path d="M384.041 470.203 386.203 468.041 388.5 470.338 390.797 468.041 392.959 470.203 390.662 472.5 392.959 474.797 390.797 476.959 388.5 474.662 386.203 476.959 384.041 474.797 386.338 472.5Z" fill="#DC267F" fill-rule="evenodd"/><path d="M408.322 470.243 410.403 468.002 413 470.414 415.597 468.002 417.678 470.243 415.247 472.5 417.678 474.757 415.597 476.998 413 474.586 410.403 476.998 408.322 474.757 410.753 472.5Z" fill="#DC267F" fill-rule="evenodd"/><path d="M332.041 490.203 334.203 488.041 336.5 490.338 338.797 488.041 340.959 490.203 338.662 492.5 340.959 494.797 338.797 496.959 336.5 494.662 334.203 496.959 332.041 494.797 334.338 492.5Z" fill="#DC267F" fill-rule="evenodd"/><path d="M351.041 490.203 353.203 488.041 355.5 490.338 357.797 488.041 359.959 490.203 357.662 492.5 359.959 494.797 357.797 496.959 355.5 494.662 353.203 496.959 351.041 494.797 353.338 492.5Z" fill="#DC267F" fill-rule="evenodd"/><path d="M384.041 490.203 386.203 488.041 388.5 490.338 390.797 488.041 392.959 490.203 390.662 492.5 392.959 494.797 390.797 496.959 388.5 494.662 386.203 496.959 384.041 494.797 386.338 492.5Z" fill="#DC267F" fill-rule="evenodd"/><path d="M408.322 490.243 410.403 488.002 413 490.414 415.597 488.002 417.678 490.243 415.247 492.5 417.678 494.757 415.597 496.998 413 494.586 410.403 496.998 408.322 494.757 410.753 492.5Z" fill="#DC267F" fill-rule="evenodd"/><path d="M332.041 524.203 334.203 522.041 336.5 524.338 338.797 522.041 340.959 524.203 338.662 526.5 340.959 528.797 338.797 530.959 336.5 528.662 334.203 530.959 332.041 528.797 334.338 526.5Z" fill="#DC267F" fill-rule="evenodd"/><path d="M351.041 524.203 353.203 522.041 355.5 524.338 357.797 522.041 359.959 524.203 357.662 526.5 359.959 528.797 357.797 530.959 355.5 528.662 353.203 530.959 351.041 528.797 353.338 526.5Z" fill="#DC267F" fill-rule="evenodd"/><path d="M384.541 524.703 386.703 522.541 389 524.838 391.297 522.541 393.459 524.703 391.162 527 393.459 529.297 391.297 531.459 389 529.162 386.703 531.459 384.541 529.297 386.838 527Z" stroke="#000000" stroke-width="1.33333" stroke-miterlimit="8" fill="#DC267F" fill-rule="evenodd"/><path d="M408.822 524.743 410.903 522.502 413.5 524.914 416.097 522.502 418.178 524.743 415.747 527 418.178 529.258 416.097 531.498 413.5 529.086 410.903 531.498 408.822 529.258 411.253 527Z" stroke="#000000" stroke-width="1.33333" stroke-miterlimit="8" fill="#DC267F" fill-rule="evenodd"/><path d="M332.041 544.203 334.203 542.041 336.5 544.338 338.797 542.041 340.959 544.203 338.662 546.5 340.959 548.797 338.797 550.959 336.5 548.662 334.203 550.959 332.041 548.797 334.338 546.5Z" fill="#DC267F" fill-rule="evenodd"/><path d="M351.041 544.203 353.203 542.041 355.5 544.338 357.797 542.041 359.959 544.203 357.662 546.5 359.959 548.797 357.797 550.959 355.5 548.662 353.203 550.959 351.041 548.797 353.338 546.5Z" fill="#DC267F" fill-rule="evenodd"/><path d="M384.541 544.703 386.703 542.541 389 544.838 391.297 542.541 393.459 544.703 391.162 547 393.459 549.297 391.297 551.459 389 549.162 386.703 551.459 384.541 549.297 386.838 547Z" stroke="#000000" stroke-width="1.33333" stroke-miterlimit="8" fill="#DC267F" fill-rule="evenodd"/><path d="M408.822 544.743 410.903 542.502 413.5 544.914 416.097 542.502 418.178 544.743 415.747 547 418.178 549.258 416.097 551.498 413.5 549.086 410.903 551.498 408.822 549.258 411.253 547Z" stroke="#000000" stroke-width="1.33333" stroke-miterlimit="8" fill="#DC267F" fill-rule="evenodd"/><path d="M332.041 578.203 334.203 576.041 336.5 578.338 338.797 576.041 340.959 578.203 338.662 580.5 340.959 582.797 338.797 584.959 336.5 582.662 334.203 584.959 332.041 582.797 334.338 580.5Z" fill="#DC267F" fill-rule="evenodd"/><path d="M351.041 578.203 353.203 576.041 355.5 578.338 357.797 576.041 359.959 578.203 357.662 580.5 359.959 582.797 357.797 584.959 355.5 582.662 353.203 584.959 351.041 582.797 353.338 580.5Z" fill="#DC267F" fill-rule="evenodd"/><path d="M384.041 578.203 386.203 576.041 388.5 578.338 390.797 576.041 392.959 578.203 390.662 580.5 392.959 582.797 390.797 584.959 388.5 582.662 386.203 584.959 384.041 582.797 386.338 580.5Z" fill="#DC267F" fill-rule="evenodd"/><path d="M408.322 578.243 410.403 576.002 413 578.414 415.597 576.002 417.678 578.243 415.247 580.5 417.678 582.757 415.597 584.998 413 582.586 410.403 584.998 408.322 582.757 410.753 580.5Z" fill="#DC267F" fill-rule="evenodd"/><text font-family="Arial,Arial_MSFontService,sans-serif" font-weight="400" font-size="13" transform="translate(620.493 497)">5, 7, 8, 14</text><rect x="721.5" y="492.5" width="19" height="34" stroke="#648FFF" stroke-width="1.33333" stroke-miterlimit="8" fill="none"/><rect x="772.5" y="471.5" width="25" height="21" stroke="#648FFF" stroke-width="1.33333" stroke-miterlimit="8" fill="none"/><rect x="739.5" y="471.5" width="33" height="21" stroke="#648FFF" stroke-width="1.33333" stroke-miterlimit="8" fill="none"/><rect x="772.5" y="492.5" width="25" height="34" stroke="#648FFF" stroke-width="1.33333" stroke-miterlimit="8" fill="none"/><rect x="739.5" y="492.5" width="33" height="34" stroke="#648FFF" stroke-width="1.33333" stroke-miterlimit="8" fill="none"/><rect x="721.5" y="526.5" width="19" height="19" stroke="#648FFF" stroke-width="1.33333" stroke-miterlimit="8" fill="none"/><rect x="739.5" y="526.5" width="33" height="19" stroke="#648FFF" stroke-width="1.33333" stroke-miterlimit="8" fill="none"/><rect x="721.5" y="545.5" width="19" height="34" stroke="#648FFF" stroke-width="1.33333" stroke-miterlimit="8" fill="none"/><rect x="772.5" y="545.5" width="25" height="34" stroke="#648FFF" stroke-width="1.33333" stroke-miterlimit="8" fill="none"/><rect x="739.5" y="545.5" width="33" height="34" stroke="#648FFF" stroke-width="1.33333" stroke-miterlimit="8" fill="none"/><path d="M768.041 469.203 770.203 467.041 772.5 469.338 774.797 467.041 776.959 469.203 774.662 471.5 776.959 473.797 774.797 475.959 772.5 473.662 770.203 475.959 768.041 473.797 770.338 471.5Z" fill="#DC267F" fill-rule="evenodd"/><path d="M792.322 469.243 794.403 467.002 797 469.414 799.597 467.002 801.678 469.243 799.247 471.5 801.678 473.757 799.597 475.998 797 473.586 794.403 475.998 792.322 473.757 794.753 471.5Z" fill="#DC267F" fill-rule="evenodd"/><path d="M768.041 489.203 770.203 487.041 772.5 489.338 774.797 487.041 776.959 489.203 774.662 491.5 776.959 493.797 774.797 495.959 772.5 493.662 770.203 495.959 768.041 493.797 770.338 491.5Z" fill="#DC267F" fill-rule="evenodd"/><path d="M792.322 489.243 794.403 487.002 797 489.414 799.597 487.002 801.678 489.243 799.247 491.5 801.678 493.757 799.597 495.998 797 493.586 794.403 495.998 792.322 493.757 794.753 491.5Z" fill="#DC267F" fill-rule="evenodd"/><path d="M716.322 523.243 718.403 521.002 721 523.414 723.597 521.002 725.678 523.243 723.247 525.5 725.678 527.757 723.597 529.998 721 527.586 718.403 529.998 716.322 527.757 718.753 525.5Z" fill="#DC267F" fill-rule="evenodd"/><path d="M735.041 523.203 737.203 521.041 739.5 523.338 741.797 521.041 743.959 523.203 741.662 525.5 743.959 527.797 741.797 529.959 739.5 527.662 737.203 529.959 735.041 527.797 737.338 525.5Z" fill="#DC267F" fill-rule="evenodd"/><path d="M716.322 543.243 718.403 541.002 721 543.414 723.597 541.002 725.678 543.243 723.247 545.5 725.678 547.757 723.597 549.998 721 547.586 718.403 549.998 716.322 547.757 718.753 545.5Z" fill="#DC267F" fill-rule="evenodd"/><path d="M735.041 543.203 737.203 541.041 739.5 543.338 741.797 541.041 743.959 543.203 741.662 545.5 743.959 547.797 741.797 549.959 739.5 547.662 737.203 549.959 735.041 547.797 737.338 545.5Z" fill="#DC267F" fill-rule="evenodd"/><path d="M716.322 577.243 718.403 575.002 721 577.414 723.597 575.002 725.678 577.243 723.247 579.5 725.678 581.757 723.597 583.998 721 581.586 718.403 583.998 716.322 581.757 718.753 579.5Z" fill="#DC267F" fill-rule="evenodd"/><path d="M735.041 577.203 737.203 575.041 739.5 577.338 741.797 575.041 743.959 577.203 741.662 579.5 743.959 581.797 741.797 583.959 739.5 581.662 737.203 583.959 735.041 581.797 737.338 579.5Z" fill="#DC267F" fill-rule="evenodd"/><path d="M768.041 577.203 770.203 575.041 772.5 577.338 774.797 575.041 776.959 577.203 774.662 579.5 776.959 581.797 774.797 583.959 772.5 581.662 770.203 583.959 768.041 581.797 770.338 579.5Z" fill="#DC267F" fill-rule="evenodd"/><path d="M792.322 577.243 794.403 575.002 797 577.414 799.597 575.002 801.678 577.243 799.247 579.5 801.678 581.757 799.597 583.998 797 581.586 794.403 583.998 792.322 581.757 794.753 579.5Z" fill="#DC267F" fill-rule="evenodd"/><rect x="772.5" y="526.5" width="25" height="19" stroke="#000000" stroke-width="1.33333" stroke-miterlimit="8" fill="none"/><path d="M768.541 523.703 770.703 521.541 773 523.838 775.297 521.541 777.459 523.703 775.162 526 777.459 528.297 775.297 530.459 773 528.162 770.703 530.459 768.541 528.297 770.838 526Z" stroke="#000000" stroke-width="1.33333" stroke-miterlimit="8" fill="#DC267F" fill-rule="evenodd"/><path d="M792.822 523.743 794.903 521.502 797.5 523.914 800.097 521.502 802.178 523.743 799.747 526 802.178 528.258 800.097 530.498 797.5 528.086 794.903 530.498 792.822 528.258 795.253 526Z" stroke="#000000" stroke-width="1.33333" stroke-miterlimit="8" fill="#DC267F" fill-rule="evenodd"/><path d="M768.541 543.703 770.703 541.541 773 543.838 775.297 541.541 777.459 543.703 775.162 546 777.459 548.297 775.297 550.459 773 548.162 770.703 550.459 768.541 548.297 770.838 546Z" stroke="#000000" stroke-width="1.33333" stroke-miterlimit="8" fill="#DC267F" fill-rule="evenodd"/><path d="M792.822 543.743 794.903 541.502 797.5 543.914 800.097 541.502 802.178 543.743 799.747 546 802.178 548.258 800.097 550.498 797.5 548.086 794.903 550.498 792.822 548.258 795.253 546Z" stroke="#000000" stroke-width="1.33333" stroke-miterlimit="8" fill="#DC267F" fill-rule="evenodd"/><rect x="721.5" y="471.5" width="19" height="21" stroke="#000000" stroke-width="1.33333" stroke-miterlimit="8" stroke-dasharray="1.33333 1.33333" fill="none"/><path d="M716.322 469.243 718.403 467.002 721 469.414 723.597 467.002 725.678 469.243 723.247 471.5 725.678 473.757 723.597 475.998 721 473.586 718.403 475.998 716.322 473.757 718.753 471.5Z" fill="#DC267F" fill-rule="evenodd"/><path d="M735.041 469.203 737.203 467.041 739.5 469.338 741.797 467.041 743.959 469.203 741.662 471.5 743.959 473.797 741.797 475.959 739.5 473.662 737.203 475.959 735.041 473.797 737.338 471.5Z" fill="#DC267F" fill-rule="evenodd"/><path d="M716.322 489.243 718.403 487.002 721 489.414 723.597 487.002 725.678 489.243 723.247 491.5 725.678 493.757 723.597 495.998 721 493.586 718.403 495.998 716.322 493.757 718.753 491.5Z" fill="#DC267F" fill-rule="evenodd"/><path d="M735.041 489.203 737.203 487.041 739.5 489.338 741.797 487.041 743.959 489.203 741.662 491.5 743.959 493.797 741.797 495.959 739.5 493.662 737.203 495.959 735.041 493.797 737.338 491.5Z" fill="#DC267F" fill-rule="evenodd"/><path d="M0 0 32.9942 2.50919" stroke="#000000" stroke-width="1.33333" stroke-miterlimit="8" fill="none" fill-rule="evenodd" transform="matrix(-1 0 0 1 615.494 492.5)"/><path d="M785.678 537.673 686.5 492.5" stroke="#000000" stroke-width="1.33333" stroke-miterlimit="8" fill="none" fill-rule="evenodd"/><path d="M357.5 201.5C359.709 201.5 361.5 203.515 361.5 206 361.5 208.485 359.709 210.5 357.5 210.5 355.291 210.5 353.5 208.485 353.5 206 353.5 203.515 355.291 201.5 357.5 201.5Z" stroke="#000000" stroke-width="1.33333" stroke-miterlimit="8" fill="#DC267F" fill-rule="evenodd"/><path d="M357 152C359.209 152 361 154.015 361 156.5 361 158.985 359.209 161 357 161 354.791 161 353 158.985 353 156.5 353 154.015 354.791 152 357 152Z" fill="#DC267F" fill-rule="evenodd"/><path d="M353 189.5C353 187.015 354.791 185 357 185 359.209 185 361 187.015 361 189.5 361 191.985 359.209 194 357 194 354.791 194 353 191.985 353 189.5Z" fill="#DC267F" fill-rule="evenodd"/><path d="M353 172.5C353 170.015 354.791 168 357 168 359.209 168 361 170.015 361 172.5 361 174.985 359.209 177 357 177 354.791 177 353 174.985 353 172.5Z" fill="#DC267F" fill-rule="evenodd"/><path d="M353 238.5C353 236.015 354.791 234 357 234 359.209 234 361 236.015 361 238.5 361 240.985 359.209 243 357 243 354.791 243 353 240.985 353 238.5Z" fill="#DC267F" fill-rule="evenodd"/><path d="M353.5 222.5C353.5 220.291 355.291 218.5 357.5 218.5 359.709 218.5 361.5 220.291 361.5 222.5 361.5 224.709 359.709 226.5 357.5 226.5 355.291 226.5 353.5 224.709 353.5 222.5Z" stroke="#000000" stroke-width="1.33333" stroke-miterlimit="8" stroke-dasharray="1.33333 1.33333" fill="#DC267F" fill-rule="evenodd"/><path d="M357 300C359.209 300 361 302.015 361 304.5 361 306.985 359.209 309 357 309 354.791 309 353 306.985 353 304.5 353 302.015 354.791 300 357 300Z" fill="#DC267F" fill-rule="evenodd"/><path d="M357 251C359.209 251 361 252.791 361 255 361 257.209 359.209 259 357 259 354.791 259 353 257.209 353 255 353 252.791 354.791 251 357 251Z" fill="#DC267F" fill-rule="evenodd"/><path d="M353 288C353 285.791 354.791 284 357 284 359.209 284 361 285.791 361 288 361 290.209 359.209 292 357 292 354.791 292 353 290.209 353 288Z" fill="#DC267F" fill-rule="evenodd"/><path d="M353 271.5C353 269.015 354.791 267 357 267 359.209 267 361 269.015 361 271.5 361 273.985 359.209 276 357 276 354.791 276 353 273.985 353 271.5Z" fill="#DC267F" fill-rule="evenodd"/><path d="M353 337.5C353 335.015 354.791 333 357 333 359.209 333 361 335.015 361 337.5 361 339.985 359.209 342 357 342 354.791 342 353 339.985 353 337.5Z" fill="#DC267F" fill-rule="evenodd"/><path d="M353 321C353 318.791 354.791 317 357 317 359.209 317 361 318.791 361 321 361 323.209 359.209 325 357 325 354.791 325 353 323.209 353 321Z" fill="#DC267F" fill-rule="evenodd"/><rect x="350.5" y="147.5" width="14" height="200" stroke="#000000" stroke-width="1.33333" stroke-miterlimit="8" fill="none"/><path d="M391.5 201.5C393.709 201.5 395.5 203.515 395.5 206 395.5 208.485 393.709 210.5 391.5 210.5 389.291 210.5 387.5 208.485 387.5 206 387.5 203.515 389.291 201.5 391.5 201.5Z" stroke="#000000" stroke-width="1.33333" stroke-miterlimit="8" fill="#DC267F" fill-rule="evenodd"/><path d="M391 152C393.209 152 395 154.015 395 156.5 395 158.985 393.209 161 391 161 388.791 161 387 158.985 387 156.5 387 154.015 388.791 152 391 152Z" fill="#DC267F" fill-rule="evenodd"/><path d="M387 189.5C387 187.015 388.791 185 391 185 393.209 185 395 187.015 395 189.5 395 191.985 393.209 194 391 194 388.791 194 387 191.985 387 189.5Z" fill="#DC267F" fill-rule="evenodd"/><path d="M387 172.5C387 170.015 388.791 168 391 168 393.209 168 395 170.015 395 172.5 395 174.985 393.209 177 391 177 388.791 177 387 174.985 387 172.5Z" fill="#DC267F" fill-rule="evenodd"/><path d="M387 238.5C387 236.015 388.791 234 391 234 393.209 234 395 236.015 395 238.5 395 240.985 393.209 243 391 243 388.791 243 387 240.985 387 238.5Z" fill="#DC267F" fill-rule="evenodd"/><path d="M387.5 222.5C387.5 220.291 389.291 218.5 391.5 218.5 393.709 218.5 395.5 220.291 395.5 222.5 395.5 224.709 393.709 226.5 391.5 226.5 389.291 226.5 387.5 224.709 387.5 222.5Z" stroke="#000000" stroke-width="1.33333" stroke-miterlimit="8" stroke-dasharray="1.33333 1.33333" fill="#DC267F" fill-rule="evenodd"/><path d="M391 300C393.209 300 395 302.015 395 304.5 395 306.985 393.209 309 391 309 388.791 309 387 306.985 387 304.5 387 302.015 388.791 300 391 300Z" fill="#DC267F" fill-rule="evenodd"/><path d="M391 251C393.209 251 395 252.791 395 255 395 257.209 393.209 259 391 259 388.791 259 387 257.209 387 255 387 252.791 388.791 251 391 251Z" fill="#DC267F" fill-rule="evenodd"/><path d="M387 288C387 285.791 388.791 284 391 284 393.209 284 395 285.791 395 288 395 290.209 393.209 292 391 292 388.791 292 387 290.209 387 288Z" fill="#DC267F" fill-rule="evenodd"/><path d="M387 271.5C387 269.015 388.791 267 391 267 393.209 267 395 269.015 395 271.5 395 273.985 393.209 276 391 276 388.791 276 387 273.985 387 271.5Z" fill="#DC267F" fill-rule="evenodd"/><path d="M387 337.5C387 335.015 388.791 333 391 333 393.209 333 395 335.015 395 337.5 395 339.985 393.209 342 391 342 388.791 342 387 339.985 387 337.5Z" fill="#DC267F" fill-rule="evenodd"/><text fill="#FFFFFF" font-family="Calibri,Calibri_MSFontService,sans-serif" font-weight="400" font-size="24" transform="translate(387.661 345)">`</text><path d="M387 321C387 318.791 388.791 317 391 317 393.209 317 395 318.791 395 321 395 323.209 393.209 325 391 325 388.791 325 387 323.209 387 321Z" fill="#DC267F" fill-rule="evenodd"/><rect x="384.5" y="147.5" width="14" height="200" stroke="#000000" stroke-width="1.33333" stroke-miterlimit="8" fill="none"/><path d="M352.808 128.892 360.141 128.892 360.141 143.892 352.808 143.892Z" fill="#C0C0C0" fill-rule="evenodd"/><text font-family="Consolas,Consolas_MSFontService,sans-serif" font-weight="700" font-size="13" transform="translate(352.808 141)">x</text><path d="M387.494 128.892 394.828 128.892 394.828 143.892 387.494 143.892Z" fill="#C0C0C0" fill-rule="evenodd"/><text font-family="Consolas,Consolas_MSFontService,sans-serif" font-weight="700" font-size="13" transform="translate(387.494 141)">y<tspan font-size="13" x="-37.7202" y="222">12</tspan><tspan font-size="13" x="-3.11813" y="222">12</tspan><tspan font-family="Arial,Arial_MSFontService,sans-serif" font-weight="400" font-size="16" x="-81.2767" y="-24">`</tspan><tspan font-family="Arial,Arial_MSFontService,sans-serif" font-weight="400" font-size="16" x="-75.9434" y="-24">node_coordinates</tspan><tspan font-family="Arial,Arial_MSFontService,sans-serif" font-weight="400" font-size="16" x="50.5566" y="-24">`</tspan><tspan font-family="Calibri,Calibri_MSFontService,sans-serif" font-style="italic" font-weight="400" font-size="16" x="-133.401" y="80">every node </tspan><tspan font-family="Calibri,Calibri_MSFontService,sans-serif" font-style="italic" font-weight="400" font-size="16" x="-134.288" y="99">has its own </tspan><tspan font-family="Calibri,Calibri_MSFontService,sans-serif" font-style="italic" font-weight="400" font-size="16" x="-112.661" y="118">x + y </tspan><tspan font-family="Calibri,Calibri_MSFontService,sans-serif" font-style="italic" font-weight="400" font-size="16" x="-135.674" y="138">coordinates</tspan></text><path d="M432.5 242.167 681.001 242.167 681.001 244.833 432.5 244.833ZM673.672 237.682 683.647 243.5 673.672 249.319C673.036 249.69 672.22 249.475 671.849 248.839 671.478 248.203 671.693 247.386 672.329 247.015L680.329 242.348 680.329 244.652 672.329 239.985C671.693 239.614 671.478 238.798 671.849 238.162 672.22 237.526 673.036 237.311 673.672 237.682Z"/><text font-family="Arial,Arial_MSFontService,sans-serif" font-style="italic" font-weight="400" font-size="16" transform="translate(683.616 173)">derive node locations</text><path d="M811.5 242.167 895.586 242.167 895.586 244.833 811.5 244.833ZM888.257 237.682 898.232 243.5 888.257 249.319C887.621 249.69 886.805 249.475 886.434 248.839 886.063 248.203 886.278 247.386 886.914 247.015L894.914 242.348 894.914 244.652 886.914 239.985C886.278 239.614 886.063 238.798 886.434 238.162 886.805 237.526 887.621 237.311 888.257 237.682Z"/><path d="M1122 343.5C1124.49 343.5 1126.5 345.515 1126.5 348 1126.5 350.485 1124.49 352.5 1122 352.5 1119.51 352.5 1117.5 350.485 1117.5 348 1117.5 345.515 1119.51 343.5 1122 343.5Z" stroke="#000000" stroke-width="1.33333" stroke-miterlimit="8" fill="#FFB000" fill-rule="evenodd"/><path d="M1121.5 294C1123.99 294 1126 296.015 1126 298.5 1126 300.985 1123.99 303 1121.5 303 1119.01 303 1117 300.985 1117 298.5 1117 296.015 1119.01 294 1121.5 294Z" fill="#FFB000" fill-rule="evenodd"/><path d="M1117 331.5C1117 329.015 1119.01 327 1121.5 327 1123.99 327 1126 329.015 1126 331.5 1126 333.985 1123.99 336 1121.5 336 1119.01 336 1117 333.985 1117 331.5Z" fill="#FFB000" fill-rule="evenodd"/><path d="M1117 314.5C1117 312.015 1119.01 310 1121.5 310 1123.99 310 1126 312.015 1126 314.5 1126 316.985 1123.99 319 1121.5 319 1119.01 319 1117 316.985 1117 314.5Z" fill="#FFB000" fill-rule="evenodd"/><path d="M1117 380.5C1117 378.015 1119.01 376 1121.5 376 1123.99 376 1126 378.015 1126 380.5 1126 382.985 1123.99 385 1121.5 385 1119.01 385 1117 382.985 1117 380.5Z" fill="#FFB000" fill-rule="evenodd"/><path d="M1117.5 364.5C1117.5 362.291 1119.51 360.5 1122 360.5 1124.49 360.5 1126.5 362.291 1126.5 364.5 1126.5 366.709 1124.49 368.5 1122 368.5 1119.51 368.5 1117.5 366.709 1117.5 364.5Z" stroke="#000000" stroke-width="1.33333" stroke-miterlimit="8" stroke-dasharray="1.33333 1.33333" fill="#FFB000" fill-rule="evenodd"/><path d="M1121.5 442C1123.99 442 1126 444.015 1126 446.5 1126 448.985 1123.99 451 1121.5 451 1119.01 451 1117 448.985 1117 446.5 1117 444.015 1119.01 442 1121.5 442Z" fill="#FFB000" fill-rule="evenodd"/><path d="M1121.5 393C1123.99 393 1126 394.791 1126 397 1126 399.209 1123.99 401 1121.5 401 1119.01 401 1117 399.209 1117 397 1117 394.791 1119.01 393 1121.5 393Z" fill="#FFB000" fill-rule="evenodd"/><path d="M1117 430C1117 427.791 1119.01 426 1121.5 426 1123.99 426 1126 427.791 1126 430 1126 432.209 1123.99 434 1121.5 434 1119.01 434 1117 432.209 1117 430Z" fill="#FFB000" fill-rule="evenodd"/><path d="M1117 413.5C1117 411.015 1119.01 409 1121.5 409 1123.99 409 1126 411.015 1126 413.5 1126 415.985 1123.99 418 1121.5 418 1119.01 418 1117 415.985 1117 413.5Z" fill="#FFB000" fill-rule="evenodd"/><path d="M1117 479.5C1117 477.015 1119.01 475 1121.5 475 1123.99 475 1126 477.015 1126 479.5 1126 481.985 1123.99 484 1121.5 484 1119.01 484 1117 481.985 1117 479.5Z" fill="#FFB000" fill-rule="evenodd"/><path d="M1117 462.5C1117 460.015 1119.01 458 1121.5 458 1123.99 458 1126 460.015 1126 462.5 1126 464.985 1123.99 467 1121.5 467 1119.01 467 1117 464.985 1117 462.5Z" fill="#FFB000" fill-rule="evenodd"/><rect x="1114.5" y="289.5" width="15" height="199" stroke="#000000" stroke-width="1.33333" stroke-miterlimit="8" fill="none"/><text font-family="Consolas,Consolas_MSFontService,sans-serif" font-weight="700" font-size="13" transform="translate(1114.27 506)">12<tspan font-family="Arial,Arial_MSFontService,sans-serif" font-weight="400" font-size="16" x="34.6101" y="-130">Data </tspan><tspan font-family="Arial,Arial_MSFontService,sans-serif" font-weight="400" font-size="16" x="32.3635" y="-111">Array</tspan></text><rect x="179.5" y="416.5" width="15" height="250" stroke="#000000" stroke-width="1.33333" stroke-miterlimit="8" fill="none"/><path d="M186.5 470C188.985 470 191 472.015 191 474.5 191 476.985 188.985 479 186.5 479 184.015 479 182 476.985 182 474.5 182 472.015 184.015 470 186.5 470Z" fill="#DC267F" fill-rule="evenodd"/><path d="M186.5 421C188.985 421 191 422.791 191 425 191 427.209 188.985 429 186.5 429 184.015 429 182 427.209 182 425 182 422.791 184.015 421 186.5 421Z" fill="#DC267F" fill-rule="evenodd"/><path d="M182 458C182 455.791 184.015 454 186.5 454 188.985 454 191 455.791 191 458 191 460.209 188.985 462 186.5 462 184.015 462 182 460.209 182 458Z" fill="#DC267F" fill-rule="evenodd"/><path d="M182 441.5C182 439.015 184.015 437 186.5 437 188.985 437 191 439.015 191 441.5 191 443.985 188.985 446 186.5 446 184.015 446 182 443.985 182 441.5Z" fill="#DC267F" fill-rule="evenodd"/><path d="M182.5 508C182.5 505.515 184.515 503.5 187 503.5 189.485 503.5 191.5 505.515 191.5 508 191.5 510.485 189.485 512.5 187 512.5 184.515 512.5 182.5 510.485 182.5 508Z" stroke="#000000" stroke-width="1.33333" stroke-miterlimit="8" fill="#DC267F" fill-rule="evenodd"/><path d="M182 491C182 488.791 184.015 487 186.5 487 188.985 487 191 488.791 191 491 191 493.209 188.985 495 186.5 495 184.015 495 182 493.209 182 491Z" fill="#DC267F" fill-rule="evenodd"/><path d="M186.5 569C188.985 569 191 570.791 191 573 191 575.209 188.985 577 186.5 577 184.015 577 182 575.209 182 573 182 570.791 184.015 569 186.5 569Z" fill="#DC267F" fill-rule="evenodd"/><path d="M186.5 519C188.985 519 191 521.015 191 523.5 191 525.985 188.985 528 186.5 528 184.015 528 182 525.985 182 523.5 182 521.015 184.015 519 186.5 519Z" fill="#DC267F" fill-rule="evenodd"/><path d="M182.5 557C182.5 554.515 184.515 552.5 187 552.5 189.485 552.5 191.5 554.515 191.5 557 191.5 559.485 189.485 561.5 187 561.5 184.515 561.5 182.5 559.485 182.5 557Z" stroke="#000000" stroke-width="1.33333" stroke-miterlimit="8" fill="#DC267F" fill-rule="evenodd"/><path d="M182.5 541C182.5 538.515 184.515 536.5 187 536.5 189.485 536.5 191.5 538.515 191.5 541 191.5 543.485 189.485 545.5 187 545.5 184.515 545.5 182.5 543.485 182.5 541Z" stroke="#000000" stroke-width="1.33333" stroke-miterlimit="8" fill="#DC267F" fill-rule="evenodd"/><path d="M182 606C182 603.791 184.015 602 186.5 602 188.985 602 191 603.791 191 606 191 608.209 188.985 610 186.5 610 184.015 610 182 608.209 182 606Z" fill="#DC267F" fill-rule="evenodd"/><path d="M182 589.5C182 587.015 184.015 585 186.5 585 188.985 585 191 587.015 191 589.5 191 591.985 188.985 594 186.5 594 184.015 594 182 591.985 182 589.5Z" fill="#DC267F" fill-rule="evenodd"/><path d="M182 622.5C182 620.015 184.015 618 186.5 618 188.985 618 191 620.015 191 622.5 191 624.985 188.985 627 186.5 627 184.015 627 182 624.985 182 622.5Z" fill="#DC267F" fill-rule="evenodd"/><path d="M182 639C182 636.791 184.015 635 186.5 635 188.985 635 191 636.791 191 639 191 641.209 188.985 643 186.5 643 184.015 643 182 641.209 182 639Z" fill="#DC267F" fill-rule="evenodd"/><path d="M182.5 656C182.5 653.515 184.515 651.5 187 651.5 189.485 651.5 191.5 653.515 191.5 656 191.5 658.485 189.485 660.5 187 660.5 184.515 660.5 182.5 658.485 182.5 656Z" stroke="#000000" stroke-width="1.33333" stroke-miterlimit="8" fill="#DC267F" fill-rule="evenodd"/><rect x="214.5" y="416.5" width="14" height="250" stroke="#000000" stroke-width="1.33333" stroke-miterlimit="8" fill="none"/><path d="M221 470C223.209 470 225 472.015 225 474.5 225 476.985 223.209 479 221 479 218.791 479 217 476.985 217 474.5 217 472.015 218.791 470 221 470Z" fill="#DC267F" fill-rule="evenodd"/><path d="M221 421C223.209 421 225 422.791 225 425 225 427.209 223.209 429 221 429 218.791 429 217 427.209 217 425 217 422.791 218.791 421 221 421Z" fill="#DC267F" fill-rule="evenodd"/><path d="M217 458C217 455.791 218.791 454 221 454 223.209 454 225 455.791 225 458 225 460.209 223.209 462 221 462 218.791 462 217 460.209 217 458Z" fill="#DC267F" fill-rule="evenodd"/><path d="M217 441.5C217 439.015 218.791 437 221 437 223.209 437 225 439.015 225 441.5 225 443.985 223.209 446 221 446 218.791 446 217 443.985 217 441.5Z" fill="#DC267F" fill-rule="evenodd"/><path d="M217.5 508C217.5 505.515 219.291 503.5 221.5 503.5 223.709 503.5 225.5 505.515 225.5 508 225.5 510.485 223.709 512.5 221.5 512.5 219.291 512.5 217.5 510.485 217.5 508Z" stroke="#000000" stroke-width="1.33333" stroke-miterlimit="8" fill="#DC267F" fill-rule="evenodd"/><path d="M217 491C217 488.791 218.791 487 221 487 223.209 487 225 488.791 225 491 225 493.209 223.209 495 221 495 218.791 495 217 493.209 217 491Z" fill="#DC267F" fill-rule="evenodd"/><path d="M221 569C223.209 569 225 570.791 225 573 225 575.209 223.209 577 221 577 218.791 577 217 575.209 217 573 217 570.791 218.791 569 221 569Z" fill="#DC267F" fill-rule="evenodd"/><path d="M221 519C223.209 519 225 521.015 225 523.5 225 525.985 223.209 528 221 528 218.791 528 217 525.985 217 523.5 217 521.015 218.791 519 221 519Z" fill="#DC267F" fill-rule="evenodd"/><path d="M217.5 557C217.5 554.515 219.291 552.5 221.5 552.5 223.709 552.5 225.5 554.515 225.5 557 225.5 559.485 223.709 561.5 221.5 561.5 219.291 561.5 217.5 559.485 217.5 557Z" stroke="#000000" stroke-width="1.33333" stroke-miterlimit="8" fill="#DC267F" fill-rule="evenodd"/><path d="M217.5 541C217.5 538.515 219.291 536.5 221.5 536.5 223.709 536.5 225.5 538.515 225.5 541 225.5 543.485 223.709 545.5 221.5 545.5 219.291 545.5 217.5 543.485 217.5 541Z" stroke="#000000" stroke-width="1.33333" stroke-miterlimit="8" fill="#DC267F" fill-rule="evenodd"/><path d="M217 606C217 603.791 218.791 602 221 602 223.209 602 225 603.791 225 606 225 608.209 223.209 610 221 610 218.791 610 217 608.209 217 606Z" fill="#DC267F" fill-rule="evenodd"/><path d="M217 589.5C217 587.015 218.791 585 221 585 223.209 585 225 587.015 225 589.5 225 591.985 223.209 594 221 594 218.791 594 217 591.985 217 589.5Z" fill="#DC267F" fill-rule="evenodd"/><path d="M217 622.5C217 620.015 218.791 618 221 618 223.209 618 225 620.015 225 622.5 225 624.985 223.209 627 221 627 218.791 627 217 624.985 217 622.5Z" fill="#DC267F" fill-rule="evenodd"/><path d="M217 639C217 636.791 218.791 635 221 635 223.209 635 225 636.791 225 639 225 641.209 223.209 643 221 643 218.791 643 217 641.209 217 639Z" fill="#DC267F" fill-rule="evenodd"/><path d="M217.5 656C217.5 653.515 219.291 651.5 221.5 651.5 223.709 651.5 225.5 653.515 225.5 656 225.5 658.485 223.709 660.5 221.5 660.5 219.291 660.5 217.5 658.485 217.5 656Z" stroke="#000000" stroke-width="1.33333" stroke-miterlimit="8" fill="#DC267F" fill-rule="evenodd"/><text font-family="Consolas,Consolas_MSFontService,sans-serif" font-weight="700" font-size="13" transform="translate(179.114 684)">15<tspan font-size="13" x="34.6021" y="0">15</tspan></text><path d="M182.697 395.785 190.03 395.785 190.03 410.785 182.697 410.785Z" fill="#C0C0C0" fill-rule="evenodd"/><text font-family="Consolas,Consolas_MSFontService,sans-serif" font-weight="700" font-size="13" transform="translate(182.697 408)">x</text><path d="M217.383 395.785 224.716 395.785 224.716 410.785 217.383 410.785Z" fill="#C0C0C0" fill-rule="evenodd"/><text font-family="Consolas,Consolas_MSFontService,sans-serif" font-weight="700" font-size="13" transform="translate(217.383 408)">y<tspan font-family="Arial,Arial_MSFontService,sans-serif" font-weight="400" font-size="16" x="-83.4371" y="-25">`</tspan><tspan font-family="Arial,Arial_MSFontService,sans-serif" font-weight="400" font-size="16" x="-78.1038" y="-25">node_coordinates</tspan><tspan font-family="Arial,Arial_MSFontService,sans-serif" font-weight="400" font-size="16" x="48.3962" y="-25">`</tspan><tspan font-family="Calibri,Calibri_MSFontService,sans-serif" font-weight="400" font-size="13" x="22.4766" y="102">[5]</tspan><tspan font-family="Calibri,Calibri_MSFontService,sans-serif" font-weight="400" font-size="13" x="22.4766" y="136">[7]</tspan><tspan font-family="Calibri,Calibri_MSFontService,sans-serif" font-weight="400" font-size="13" x="22.4766" y="153">[8]</tspan><tspan font-family="Calibri,Calibri_MSFontService,sans-serif" font-weight="400" font-size="13" x="22.5099" y="251">[14]</tspan><tspan font-family="Arial,Arial_MSFontService,sans-serif" font-style="italic" font-weight="400" font-size="16" x="420" y="209">construct faces </tspan><tspan font-family="Arial,Arial_MSFontService,sans-serif" font-style="italic" font-weight="400" font-size="16" x="424.586" y="228">by connecting </tspan><tspan font-family="Arial,Arial_MSFontService,sans-serif" font-style="italic" font-weight="400" font-size="16" x="452.086" y="247">nodes</tspan><tspan font-family="Arial,Arial_MSFontService,sans-serif" font-style="italic" font-weight="400" font-size="16" x="107.458" y="210">derive ‘corner’ </tspan><tspan font-family="Arial,Arial_MSFontService,sans-serif" font-style="italic" font-weight="400" font-size="16" x="105.978" y="229">node locations</tspan></text><path d="M263.5 522.167 309.361 522.167 309.361 524.833 263.5 524.833ZM302.032 517.682 312.007 523.5 302.032 529.319C301.396 529.69 300.58 529.475 300.209 528.839 299.838 528.203 300.053 527.386 300.689 527.015L308.689 522.348 308.689 524.652 300.689 519.985C300.053 519.614 299.838 518.798 300.209 518.162 300.58 517.526 301.396 517.311 302.032 517.682Z"/><path d="M432.5 522.167 484.88 522.167 484.88 524.833 432.5 524.833ZM477.552 517.682 487.526 523.5 477.552 529.319C476.916 529.69 476.099 529.475 475.728 528.839 475.357 528.203 475.572 527.386 476.208 527.015L484.208 522.348 484.208 524.652 476.208 519.985C475.572 519.614 475.357 518.798 475.728 518.162 476.099 517.526 476.916 517.311 477.552 517.682Z"/><path d="M607.5 522.167 691.95 522.167 691.95 524.833 607.5 524.833ZM684.621 517.682 694.596 523.5 684.621 529.319C683.985 529.69 683.169 529.475 682.798 528.839 682.427 528.203 682.642 527.386 683.278 527.015L691.278 522.348 691.278 524.652 683.278 519.985C682.642 519.614 682.427 518.798 682.798 518.162 683.169 517.526 683.985 517.311 684.621 517.682Z"/><path d="M826.5 522.167 901.704 522.167 901.704 524.833 826.5 524.833ZM894.376 517.682 904.35 523.5 894.376 529.319C893.74 529.69 892.923 529.475 892.552 528.839 892.181 528.203 892.396 527.386 893.032 527.015L901.032 522.348 901.032 524.652 893.032 519.985C892.396 519.614 892.181 518.798 892.552 518.162 892.923 517.526 893.74 517.311 894.376 517.682Z"/><path d="M1095.05 300.538 1013.14 253.964 1014.45 251.646 1096.37 298.22ZM1017.29 261.485 1011.49 251.497 1023.04 251.369C1023.78 251.361 1024.38 251.951 1024.39 252.688 1024.4 253.424 1023.81 254.027 1023.07 254.036L1013.81 254.138 1014.95 252.136 1019.6 260.147C1019.97 260.784 1019.75 261.6 1019.11 261.969 1018.48 262.339 1017.66 262.122 1017.29 261.485Z"/><path d="M0.670116-1.1527 77.1962 43.3353 75.856 45.6407-0.670116 1.1527ZM73.1149 35.7748 78.8137 45.8179 67.2664 45.8351C66.53 45.8361 65.9322 45.2401 65.9311 44.5037 65.93 43.7673 66.5261 43.1695 67.2624 43.1684L76.5241 43.1546 75.3664 45.146 70.7956 37.0908C70.4322 36.4504 70.6568 35.6366 71.2972 35.2732 71.9377 34.9097 72.7515 35.1343 73.1149 35.7748Z" transform="matrix(-1 0 0 1 1095.31 462.5)"/><text font-family="Arial,Arial_MSFontService,sans-serif" font-style="italic" font-weight="400" font-size="16" transform="translate(886.656 344)">assign data using 1D <tspan font-size="16" x="42.5867" y="19">indexing,</tspan><tspan font-size="16" x="18.1667" y="57">p</tspan><tspan font-size="16" x="27" y="57">osition in array </tspan><tspan font-size="16" x="7.08667" y="76">unrelated to spatial </tspan><tspan font-size="16" x="47" y="96">position</tspan><tspan font-size="15" x="126.61" y="187">match indices </tspan><tspan font-size="15" x="138.857" y="205">with faces</tspan><tspan font-size="15" x="142.935" y="-108">match indices </tspan><tspan font-size="15" x="152.689" y="-90">with nodes</tspan><tspan font-style="normal" font-weight="700" font-size="16" x="35.687" y="-173">Node Data</tspan></text><path d="M922.763 173.19 949.096 173.19 975.429 173.19 1001.76 173.19 1001.76 175.19 975.429 175.19 949.096 175.19 922.763 175.19Z" fill-rule="evenodd"/><text font-family="Arial,Arial_MSFontService,sans-serif" font-weight="700" font-size="16" transform="translate(924.176 605)">Face Data</text><path d="M923.763 606.53 949.096 606.53 974.429 606.53 999.763 606.53 999.763 608.53 974.429 608.53 949.096 608.53 923.763 608.53Z" fill-rule="evenodd"/><path d="M1113.6 269.274 1194.27 269.274 1194.27 284.274 1113.6 284.274Z" fill="#C0C0C0" fill-rule="evenodd"/><text font-family="Consolas,Consolas_MSFontService,sans-serif" font-weight="700" font-size="13" transform="translate(1113.6 281)">my_variable</text><rect x="503.5" y="415.5" width="82" height="272" stroke="#000000" stroke-width="1.33333" stroke-miterlimit="8" fill="none"/><path d="M564 429C564 426.791 566.015 425 568.5 425 570.985 425 573 426.791 573 429 573 431.209 570.985 433 568.5 433 566.015 433 564 431.209 564 429Z" fill="#648FFF" fill-rule="evenodd"/><path d="M515 429C515 426.791 516.791 425 519 425 521.209 425 523 426.791 523 429 523 431.209 521.209 433 519 433 516.791 433 515 431.209 515 429Z" fill="#648FFF" fill-rule="evenodd"/><path d="M552 433C549.791 433 548 431.209 548 429 548 426.791 549.791 425 552 425 554.209 425 556 426.791 556 429 556 431.209 554.209 433 552 433Z" fill="#648FFF" fill-rule="evenodd"/><path d="M535.5 433C533.015 433 531 431.209 531 429 531 426.791 533.015 425 535.5 425 537.985 425 540 426.791 540 429 540 431.209 537.985 433 535.5 433Z" fill="#648FFF" fill-rule="evenodd"/><rect x="509.5" y="421.5" width="69" height="16" stroke="#000000" stroke-width="1.33333" stroke-miterlimit="8" fill="none"/><path d="M564 451C564 448.791 566.015 447 568.5 447 570.985 447 573 448.791 573 451 573 453.209 570.985 455 568.5 455 566.015 455 564 453.209 564 451Z" fill="#648FFF" fill-rule="evenodd"/><path d="M515 451C515 448.791 516.791 447 519 447 521.209 447 523 448.791 523 451 523 453.209 521.209 455 519 455 516.791 455 515 453.209 515 451Z" fill="#648FFF" fill-rule="evenodd"/><path d="M552 455C549.791 455 548 453.209 548 451 548 448.791 549.791 447 552 447 554.209 447 556 448.791 556 451 556 453.209 554.209 455 552 455Z" fill="#648FFF" fill-rule="evenodd"/><path d="M535.5 455C533.015 455 531 453.209 531 451 531 448.791 533.015 447 535.5 447 537.985 447 540 448.791 540 451 540 453.209 537.985 455 535.5 455Z" fill="#648FFF" fill-rule="evenodd"/><rect x="509.5" y="443.5" width="69" height="17" stroke="#000000" stroke-width="1.33333" stroke-miterlimit="8" fill="none"/><path d="M564 473.5C564 471.015 566.015 469 568.5 469 570.985 469 573 471.015 573 473.5 573 475.985 570.985 478 568.5 478 566.015 478 564 475.985 564 473.5Z" fill="#648FFF" fill-rule="evenodd"/><path d="M515 473.5C515 471.015 516.791 469 519 469 521.209 469 523 471.015 523 473.5 523 475.985 521.209 478 519 478 516.791 478 515 475.985 515 473.5Z" fill="#648FFF" fill-rule="evenodd"/><path d="M552 478C549.791 478 548 475.985 548 473.5 548 471.015 549.791 469 552 469 554.209 469 556 471.015 556 473.5 556 475.985 554.209 478 552 478Z" fill="#648FFF" fill-rule="evenodd"/><path d="M535.5 478C533.015 478 531 475.985 531 473.5 531 471.015 533.015 469 535.5 469 537.985 469 540 471.015 540 473.5 540 475.985 537.985 478 535.5 478Z" fill="#648FFF" fill-rule="evenodd"/><rect x="509.5" y="465.5" width="69" height="17" stroke="#000000" stroke-width="1.33333" stroke-miterlimit="8" fill="none"/><path d="M564.5 496C564.5 493.515 566.515 491.5 569 491.5 571.485 491.5 573.5 493.515 573.5 496 573.5 498.485 571.485 500.5 569 500.5 566.515 500.5 564.5 498.485 564.5 496Z" stroke="#000000" stroke-width="1.33333" stroke-miterlimit="8" fill="#648FFF" fill-rule="evenodd"/><path d="M515.5 496C515.5 493.515 517.291 491.5 519.5 491.5 521.709 491.5 523.5 493.515 523.5 496 523.5 498.485 521.709 500.5 519.5 500.5 517.291 500.5 515.5 498.485 515.5 496Z" stroke="#000000" stroke-width="1.33333" stroke-miterlimit="8" fill="#648FFF" fill-rule="evenodd"/><path d="M552.5 500.5C550.291 500.5 548.5 498.485 548.5 496 548.5 493.515 550.291 491.5 552.5 491.5 554.709 491.5 556.5 493.515 556.5 496 556.5 498.485 554.709 500.5 552.5 500.5Z" stroke="#000000" stroke-width="1.33333" stroke-miterlimit="8" fill="#648FFF" fill-rule="evenodd"/><path d="M536 500.5C533.515 500.5 531.5 498.485 531.5 496 531.5 493.515 533.515 491.5 536 491.5 538.485 491.5 540.5 493.515 540.5 496 540.5 498.485 538.485 500.5 536 500.5Z" stroke="#000000" stroke-width="1.33333" stroke-miterlimit="8" fill="#648FFF" fill-rule="evenodd"/><rect x="509.5" y="487.5" width="69" height="17" stroke="#000000" stroke-width="3" stroke-miterlimit="8" fill="none"/><path d="M564.5 518C564.5 515.515 566.515 513.5 569 513.5 571.485 513.5 573.5 515.515 573.5 518 573.5 520.485 571.485 522.5 569 522.5 566.515 522.5 564.5 520.485 564.5 518Z" stroke="#000000" stroke-width="1.33333" stroke-miterlimit="8" stroke-dasharray="1.33333 1.33333" fill="#648FFF" fill-rule="evenodd"/><path d="M515.5 518C515.5 515.515 517.291 513.5 519.5 513.5 521.709 513.5 523.5 515.515 523.5 518 523.5 520.485 521.709 522.5 519.5 522.5 517.291 522.5 515.5 520.485 515.5 518Z" stroke="#000000" stroke-width="1.33333" stroke-miterlimit="8" stroke-dasharray="1.33333 1.33333" fill="#648FFF" fill-rule="evenodd"/><path d="M552.5 522.5C550.291 522.5 548.5 520.485 548.5 518 548.5 515.515 550.291 513.5 552.5 513.5 554.709 513.5 556.5 515.515 556.5 518 556.5 520.485 554.709 522.5 552.5 522.5Z" stroke="#000000" stroke-width="1.33333" stroke-miterlimit="8" stroke-dasharray="1.33333 1.33333" fill="#648FFF" fill-rule="evenodd"/><path d="M536 522.5C533.515 522.5 531.5 520.485 531.5 518 531.5 515.515 533.515 513.5 536 513.5 538.485 513.5 540.5 515.515 540.5 518 540.5 520.485 538.485 522.5 536 522.5Z" stroke="#000000" stroke-width="1.33333" stroke-miterlimit="8" stroke-dasharray="1.33333 1.33333" fill="#648FFF" fill-rule="evenodd"/><rect x="509.5" y="509.5" width="69" height="17" stroke="#000000" stroke-width="1.33333" stroke-miterlimit="8" stroke-dasharray="1.33333 1.33333" fill="none"/><path d="M564 540C564 537.791 566.015 536 568.5 536 570.985 536 573 537.791 573 540 573 542.209 570.985 544 568.5 544 566.015 544 564 542.209 564 540Z" fill="#648FFF" fill-rule="evenodd"/><path d="M515 540C515 537.791 516.791 536 519 536 521.209 536 523 537.791 523 540 523 542.209 521.209 544 519 544 516.791 544 515 542.209 515 540Z" fill="#648FFF" fill-rule="evenodd"/><path d="M552 544C549.791 544 548 542.209 548 540 548 537.791 549.791 536 552 536 554.209 536 556 537.791 556 540 556 542.209 554.209 544 552 544Z" fill="#648FFF" fill-rule="evenodd"/><path d="M535.5 544C533.015 544 531 542.209 531 540 531 537.791 533.015 536 535.5 536 537.985 536 540 537.791 540 540 540 542.209 537.985 544 535.5 544Z" fill="#648FFF" fill-rule="evenodd"/><rect x="509.5" y="532.5" width="69" height="16" stroke="#000000" stroke-width="1.33333" stroke-miterlimit="8" fill="none"/><path d="M564 562.5C564 560.015 566.015 558 568.5 558 570.985 558 573 560.015 573 562.5 573 564.985 570.985 567 568.5 567 566.015 567 564 564.985 564 562.5Z" fill="#648FFF" fill-rule="evenodd"/><path d="M515 562.5C515 560.015 516.791 558 519 558 521.209 558 523 560.015 523 562.5 523 564.985 521.209 567 519 567 516.791 567 515 564.985 515 562.5Z" fill="#648FFF" fill-rule="evenodd"/><path d="M552 567C549.791 567 548 564.985 548 562.5 548 560.015 549.791 558 552 558 554.209 558 556 560.015 556 562.5 556 564.985 554.209 567 552 567Z" fill="#648FFF" fill-rule="evenodd"/><path d="M535.5 567C533.015 567 531 564.985 531 562.5 531 560.015 533.015 558 535.5 558 537.985 558 540 560.015 540 562.5 540 564.985 537.985 567 535.5 567Z" fill="#648FFF" fill-rule="evenodd"/><rect x="509.5" y="554.5" width="69" height="17" stroke="#000000" stroke-width="1.33333" stroke-miterlimit="8" fill="none"/><path d="M564 584.5C564 582.015 566.015 580 568.5 580 570.985 580 573 582.015 573 584.5 573 586.985 570.985 589 568.5 589 566.015 589 564 586.985 564 584.5Z" fill="#648FFF" fill-rule="evenodd"/><path d="M515 584.5C515 582.015 516.791 580 519 580 521.209 580 523 582.015 523 584.5 523 586.985 521.209 589 519 589 516.791 589 515 586.985 515 584.5Z" fill="#648FFF" fill-rule="evenodd"/><path d="M552 589C549.791 589 548 586.985 548 584.5 548 582.015 549.791 580 552 580 554.209 580 556 582.015 556 584.5 556 586.985 554.209 589 552 589Z" fill="#648FFF" fill-rule="evenodd"/><path d="M535.5 589C533.015 589 531 586.985 531 584.5 531 582.015 533.015 580 535.5 580 537.985 580 540 582.015 540 584.5 540 586.985 537.985 589 535.5 589Z" fill="#648FFF" fill-rule="evenodd"/><rect x="509.5" y="576.5" width="69" height="17" stroke="#000000" stroke-width="1.33333" stroke-miterlimit="8" fill="none"/><path d="M564 606.5C564 604.015 566.015 602 568.5 602 570.985 602 573 604.015 573 606.5 573 608.985 570.985 611 568.5 611 566.015 611 564 608.985 564 606.5Z" fill="#648FFF" fill-rule="evenodd"/><path d="M515 606.5C515 604.015 516.791 602 519 602 521.209 602 523 604.015 523 606.5 523 608.985 521.209 611 519 611 516.791 611 515 608.985 515 606.5Z" fill="#648FFF" fill-rule="evenodd"/><path d="M552 611C549.791 611 548 608.985 548 606.5 548 604.015 549.791 602 552 602 554.209 602 556 604.015 556 606.5 556 608.985 554.209 611 552 611Z" fill="#648FFF" fill-rule="evenodd"/><path d="M535.5 611C533.015 611 531 608.985 531 606.5 531 604.015 533.015 602 535.5 602 537.985 602 540 604.015 540 606.5 540 608.985 537.985 611 535.5 611Z" fill="#648FFF" fill-rule="evenodd"/><rect x="509.5" y="598.5" width="69" height="17" stroke="#000000" stroke-width="1.33333" stroke-miterlimit="8" fill="none"/><path d="M564 629C564 626.791 566.015 625 568.5 625 570.985 625 573 626.791 573 629 573 631.209 570.985 633 568.5 633 566.015 633 564 631.209 564 629Z" fill="#648FFF" fill-rule="evenodd"/><path d="M515 629C515 626.791 516.791 625 519 625 521.209 625 523 626.791 523 629 523 631.209 521.209 633 519 633 516.791 633 515 631.209 515 629Z" fill="#648FFF" fill-rule="evenodd"/><path d="M552 633C549.791 633 548 631.209 548 629 548 626.791 549.791 625 552 625 554.209 625 556 626.791 556 629 556 631.209 554.209 633 552 633Z" fill="#648FFF" fill-rule="evenodd"/><path d="M535.5 633C533.015 633 531 631.209 531 629 531 626.791 533.015 625 535.5 625 537.985 625 540 626.791 540 629 540 631.209 537.985 633 535.5 633Z" fill="#648FFF" fill-rule="evenodd"/><rect x="509.5" y="621.5" width="69" height="16" stroke="#000000" stroke-width="1.33333" stroke-miterlimit="8" fill="none"/><path d="M564 651.5C564 649.015 566.015 647 568.5 647 570.985 647 573 649.015 573 651.5 573 653.985 570.985 656 568.5 656 566.015 656 564 653.985 564 651.5Z" fill="#648FFF" fill-rule="evenodd"/><path d="M515 651.5C515 649.015 516.791 647 519 647 521.209 647 523 649.015 523 651.5 523 653.985 521.209 656 519 656 516.791 656 515 653.985 515 651.5Z" fill="#648FFF" fill-rule="evenodd"/><path d="M552 656C549.791 656 548 653.985 548 651.5 548 649.015 549.791 647 552 647 554.209 647 556 649.015 556 651.5 556 653.985 554.209 656 552 656Z" fill="#648FFF" fill-rule="evenodd"/><path d="M535.5 656C533.015 656 531 653.985 531 651.5 531 649.015 533.015 647 535.5 647 537.985 647 540 649.015 540 651.5 540 653.985 537.985 656 535.5 656Z" fill="#648FFF" fill-rule="evenodd"/><rect x="509.5" y="643.5" width="69" height="17" stroke="#000000" stroke-width="1.33333" stroke-miterlimit="8" fill="none"/><path d="M564 673.5C564 671.015 566.015 669 568.5 669 570.985 669 573 671.015 573 673.5 573 675.985 570.985 678 568.5 678 566.015 678 564 675.985 564 673.5Z" fill="#648FFF" fill-rule="evenodd"/><path d="M515 673.5C515 671.015 516.791 669 519 669 521.209 669 523 671.015 523 673.5 523 675.985 521.209 678 519 678 516.791 678 515 675.985 515 673.5Z" fill="#648FFF" fill-rule="evenodd"/><path d="M552 678C549.791 678 548 675.985 548 673.5 548 671.015 549.791 669 552 669 554.209 669 556 671.015 556 673.5 556 675.985 554.209 678 552 678Z" fill="#648FFF" fill-rule="evenodd"/><path d="M535.5 678C533.015 678 531 675.985 531 673.5 531 671.015 533.015 669 535.5 669 537.985 669 540 671.015 540 673.5 540 675.985 537.985 678 535.5 678Z" fill="#648FFF" fill-rule="evenodd"/><rect x="509.5" y="665.5" width="69" height="17" stroke="#000000" stroke-width="1.33333" stroke-miterlimit="8" fill="none"/><text font-family="Consolas,Consolas_MSFontService,sans-serif" font-weight="700" font-size="13" transform="translate(521.779 703)">12 ×<tspan font-size="13" x="36.6666" y="0">4</tspan><tspan font-family="Arial,Arial_MSFontService,sans-serif" font-weight="400" font-size="16" x="-66.5836" y="-320">`</tspan><tspan font-family="Arial,Arial_MSFontService,sans-serif" font-weight="400" font-size="16" x="-61.2503" y="-320">face_node_connectivity</tspan><tspan font-family="Arial,Arial_MSFontService,sans-serif" font-weight="400" font-size="16" x="105.25" y="-320">`</tspan></text><path d="M508.025 394.941 581.358 394.941 581.358 409.941 508.025 409.941Z" fill="#C0C0C0" fill-rule="evenodd"/><text font-family="Consolas,Consolas_MSFontService,sans-serif" font-weight="700" font-size="13" transform="translate(508.025 407)">face_nodes</text></g></svg>