<svg width="267" height="278" xmlns="http://www.w3.org/2000/svg" xmlns:xlink="http://www.w3.org/1999/xlink" overflow="hidden"><defs><clipPath id="clip0"><rect x="338" y="90" width="267" height="278"/></clipPath></defs><g clip-path="url(#clip0)" transform="translate(-338 -90)"><path d="M515.002 135.403 517.243 133.322 519.5 135.753 521.757 133.322 523.998 135.403 521.586 138 523.998 140.597 521.757 142.678 519.5 140.247 517.243 142.678 515.002 140.597 517.414 138Z" fill="#DC267F" fill-rule="evenodd"/><path d="M505.198 109.527 507.527 107.198 510 109.672 512.473 107.198 514.802 109.527 512.328 112 514.802 114.473 512.473 116.802 510 114.328 507.527 116.802 505.198 114.473 507.672 112Z" fill="#DC267F" fill-rule="evenodd"/><path d="M541.527 121.802 539.198 119.473 541.672 117 539.198 114.527 541.527 112.198 544 114.672 546.473 112.198 548.802 114.527 546.328 117 548.802 119.473 546.473 121.802 544 119.328Z" fill="#DC267F" fill-rule="evenodd"/><path d="M533.527 99.8017 531.198 97.4734 533.672 95 531.198 92.5266 533.527 90.1983 536 92.6716 538.473 90.1983 540.802 92.5266 538.328 95 540.802 97.4734 538.473 99.8017 536 97.3284Z" fill="#DC267F" fill-rule="evenodd"/><path d="M565.527 120.802 563.198 118.473 565.672 116 563.198 113.527 565.527 111.198 568 113.672 570.473 111.198 572.802 113.527 570.328 116 572.802 118.473 570.473 120.802 568 118.328Z" fill="#DC267F" fill-rule="evenodd"/><path d="M541.403 167.998 539.322 165.757 541.753 163.5 539.322 161.243 541.403 159.002 544 161.414 546.597 159.002 548.678 161.243 546.247 163.5 548.678 165.757 546.597 167.998 544 165.586Z" fill="#DC267F" fill-rule="evenodd"/><path d="M505.198 166.527 507.527 164.198 510 166.672 512.473 164.198 514.802 166.527 512.328 169 514.802 171.473 512.473 173.802 510 171.328 507.527 173.802 505.198 171.473 507.672 169Z" fill="#DC267F" fill-rule="evenodd"/><path d="M591.403 156.998 589.322 154.757 591.753 152.5 589.322 150.243 591.403 148.002 594 150.414 596.597 148.002 598.678 150.243 596.247 152.5 598.678 154.757 596.597 156.998 594 154.586Z" fill="#DC267F" fill-rule="evenodd"/><path d="M526.527 173.802 524.198 171.473 526.672 169 524.198 166.527 526.527 164.198 529 166.672 531.473 164.198 533.802 166.527 531.328 169 533.802 171.473 531.473 173.802 529 171.328Z" fill="#DC267F" fill-rule="evenodd"/><path d="M505.322 204.243 507.403 202.002 510 204.414 512.597 202.002 514.678 204.243 512.247 206.5 514.678 208.757 512.597 210.998 510 208.586 507.403 210.998 505.322 208.757 507.753 206.5Z" fill="#DC267F" fill-rule="evenodd"/><path d="M578.243 189.678 576.002 187.597 578.414 185 576.002 182.403 578.243 180.322 580.5 182.753 582.758 180.322 584.998 182.403 582.586 185 584.998 187.597 582.758 189.678 580.5 187.247Z" fill="#DC267F" fill-rule="evenodd"/><path d="M552.527 225.802 550.198 223.473 552.672 221 550.198 218.527 552.527 216.198 555 218.672 557.473 216.198 559.802 218.527 557.328 221 559.802 223.473 557.473 225.802 555 223.328Z" fill="#DC267F" fill-rule="evenodd"/><path d="M0 0 24.603 23.4619" stroke="#648FFF" stroke-width="1.33333" stroke-miterlimit="8" fill="#00B050" fill-rule="evenodd" transform="matrix(-1 0 0 1 535.103 263.5)"/><path d="M534.5 263.5 555.421 275.351" stroke="#648FFF" stroke-width="1.33333" stroke-miterlimit="8" fill="#00B050" fill-rule="evenodd"/><path d="M0 0 20.9215 20.8508" stroke="#648FFF" stroke-width="1.33333" stroke-miterlimit="8" fill="#00B050" fill-rule="evenodd" transform="matrix(-1 0 0 1 555.422 275.5)"/><path d="M535.061 295.5 510.5 286.5" stroke="#648FFF" stroke-width="1.33333" stroke-miterlimit="8" fill="#00B050" fill-rule="evenodd"/><path d="M510.5 286.5 515.663 319.905" stroke="#648FFF" stroke-width="1.33333" stroke-miterlimit="8" fill="#00B050" fill-rule="evenodd"/><path d="M0 0 4.501 15.165" stroke="#648FFF" stroke-width="1.33333" stroke-miterlimit="8" fill="#00B050" fill-rule="evenodd" transform="matrix(-1 0 0 1 534.001 295.5)"/><path d="M0 0 14.5621 9.23958" stroke="#648FFF" stroke-width="1.33333" stroke-miterlimit="8" fill="#00B050" fill-rule="evenodd" transform="matrix(-1 0 0 1 530.062 311.5)"/><path d="M570.88 298.111 534.5 295.5" stroke="#648FFF" stroke-width="1.33333" stroke-miterlimit="8" fill="#00B050" fill-rule="evenodd"/><path d="M0 0 19.6886 8.35108" stroke="#648FFF" stroke-width="1.33333" stroke-miterlimit="8" fill="#00B050" fill-rule="evenodd" transform="matrix(1 0 0 -1 555.5 274.851)"/><path d="M0 0 3.67402 32.524" stroke="#648FFF" stroke-width="1.33333" stroke-miterlimit="8" fill="#00B050" fill-rule="evenodd" transform="matrix(-1 0 0 1 575.174 266.5)"/><path d="M600.355 274.971 575.5 266.5" stroke="#648FFF" stroke-width="1.33333" stroke-miterlimit="8" fill="#00B050" fill-rule="evenodd"/><path d="M0 0 4.37638 14.0765" stroke="#648FFF" stroke-width="1.33333" stroke-miterlimit="8" fill="#00B050" fill-rule="evenodd" transform="matrix(-1 0 0 1 599.876 274.5)"/><path d="M0 0 24.6028 9.95391" stroke="#648FFF" stroke-width="1.33333" stroke-miterlimit="8" fill="#00B050" fill-rule="evenodd" transform="matrix(-1 0 0 1 595.103 288.5)"/><path d="M0 0 0.663202 12.3221" stroke="#648FFF" stroke-width="1.33333" stroke-miterlimit="8" fill="#00B050" fill-rule="evenodd" transform="matrix(-1 0 0 1 571.163 298.5)"/><path d="M0 0 41.7324 0.000104987" stroke="#648FFF" stroke-width="1.33333" stroke-miterlimit="8" fill="#00B050" fill-rule="evenodd" transform="matrix(-1 0 0 1 571.232 310.5)"/><path d="M584.617 315.352 570.5 310.5" stroke="#648FFF" stroke-width="1.33333" stroke-miterlimit="8" fill="#00B050" fill-rule="evenodd"/><path d="M0 0 10.4861 26.892" stroke="#648FFF" stroke-width="1.33333" stroke-miterlimit="8" fill="#00B050" fill-rule="evenodd" transform="matrix(-1 0 0 1 594.986 288.5)"/><path d="M516.248 335.368 515.5 319.5" stroke="#648FFF" stroke-width="1.33333" stroke-miterlimit="8" fill="#00B050" fill-rule="evenodd"/><path d="M528.977 344.74 516.5 335.5" stroke="#648FFF" stroke-width="1.33333" stroke-miterlimit="8" fill="#00B050" fill-rule="evenodd"/><path d="M0 0 1.89669 33.8761" stroke="#648FFF" stroke-width="1.33333" stroke-miterlimit="8" fill="#00B050" fill-rule="evenodd" transform="matrix(-1 0 0 1 530.397 310.5)"/><path d="M0 0 37.8047 21.7936" stroke="#648FFF" stroke-width="1.33333" stroke-miterlimit="8" fill="#00B050" fill-rule="evenodd" transform="matrix(-1 0 0 1 566.305 322.5)"/><path d="M0 0 4.96714 12.0825" stroke="#85C0F9" stroke-width="1.33333" stroke-miterlimit="8" fill="#00B050" fill-rule="evenodd" transform="matrix(-1 0 0 1 570.467 310.5)"/><path d="M595.551 328.186 565.5 322.5" stroke="#648FFF" stroke-width="1.33333" stroke-miterlimit="8" fill="#00B050" fill-rule="evenodd"/><path d="M594.986 328.417 584.5 315.5" stroke="#648FFF" stroke-width="1.33333" stroke-miterlimit="8" fill="#00B050" fill-rule="evenodd"/><path d="M0 0 0.000104987 20.3874" stroke="#648FFF" stroke-width="1.33333" stroke-miterlimit="8" fill="#00B050" fill-rule="evenodd" transform="matrix(-1 0 0 1 565.5 322.5)"/><path d="M0 0 8.73627 11.0457" stroke="#648FFF" stroke-width="1.33333" stroke-miterlimit="8" fill="#00B050" fill-rule="evenodd" transform="matrix(1 0 0 -1 565.5 343.546)"/><path d="M0 0 20.7784 3.81932" stroke="#648FFF" stroke-width="1.33333" stroke-miterlimit="8" fill="#00B050" fill-rule="evenodd" transform="matrix(1 0 0 -1 574.5 332.319)"/><path d="M0 0 5.32388 11.8509" stroke="#648FFF" stroke-width="1.33333" stroke-miterlimit="8" fill="#00B050" fill-rule="evenodd" transform="matrix(1 0 0 -1 560.5 355.351)"/><path d="M560.648 354.713 528.5 344.5" stroke="#648FFF" stroke-width="1.33333" stroke-miterlimit="8" fill="#00B050" fill-rule="evenodd"/><path d="M0 0 12.3088 12.6454" stroke="#648FFF" stroke-width="1.33333" stroke-miterlimit="8" fill="#00B050" fill-rule="evenodd" transform="matrix(-1 0 0 1 515.809 335.5)"/><path d="M561.125 354.582 503.5 348.5" stroke="#648FFF" stroke-width="1.33333" stroke-miterlimit="8" fill="#00B050" fill-rule="evenodd"/><path d="M530.041 261.203 532.203 259.041 534.5 261.338 536.797 259.041 538.959 261.203 536.662 263.5 538.959 265.797 536.797 267.959 534.5 265.662 532.203 267.959 530.041 265.797 532.338 263.5Z" fill="#DC267F" fill-rule="evenodd"/><path d="M550.041 272.203 552.203 270.041 554.5 272.338 556.797 270.041 558.959 272.203 556.662 274.5 558.959 276.797 556.797 278.959 554.5 276.662 552.203 278.959 550.041 276.797 552.338 274.5Z" fill="#DC267F" fill-rule="evenodd"/><path d="M570.322 264.243 572.403 262.002 575 264.414 577.597 262.002 579.678 264.243 577.247 266.5 579.678 268.757 577.597 270.998 575 268.586 572.403 270.998 570.322 268.757 572.753 266.5Z" fill="#DC267F" fill-rule="evenodd"/><path d="M595.041 272.203 597.203 270.041 599.5 272.338 601.797 270.041 603.959 272.203 601.662 274.5 603.959 276.797 601.797 278.959 599.5 276.662 597.203 278.959 595.041 276.797 597.338 274.5Z" fill="#DC267F" fill-rule="evenodd"/><path d="M506.002 283.403 508.243 281.322 510.5 283.753 512.757 281.322 514.998 283.403 512.586 286 514.998 288.597 512.757 290.678 510.5 288.247 508.243 290.678 506.002 288.597 508.414 286Z" fill="#DC267F" fill-rule="evenodd"/><path d="M529.041 293.203 531.203 291.041 533.5 293.338 535.797 291.041 537.959 293.203 535.662 295.5 537.959 297.797 535.797 299.959 533.5 297.662 531.203 299.959 529.041 297.797 531.338 295.5Z" fill="#DC267F" fill-rule="evenodd"/><path d="M567.041 296.203 569.203 294.041 571.5 296.338 573.797 294.041 575.959 296.203 573.662 298.5 575.959 300.797 573.797 302.959 571.5 300.662 569.203 302.959 567.041 300.797 569.338 298.5Z" fill="#DC267F" fill-rule="evenodd"/><path d="M590.041 286.203 592.203 284.041 594.5 286.338 596.797 284.041 598.959 286.203 596.662 288.5 598.959 290.797 596.797 292.959 594.5 290.662 592.203 292.959 590.041 290.797 592.338 288.5Z" fill="#DC267F" fill-rule="evenodd"/><path d="M510.322 317.243 512.403 315.002 515 317.414 517.597 315.002 519.678 317.243 517.247 319.5 519.678 321.757 517.597 323.998 515 321.586 512.403 323.998 510.322 321.757 512.753 319.5Z" fill="#DC267F" fill-rule="evenodd"/><path d="M525.322 308.243 527.403 306.002 530 308.414 532.597 306.002 534.678 308.243 532.247 310.5 534.678 312.757 532.597 314.998 530 312.586 527.403 314.998 525.322 312.757 527.753 310.5Z" fill="#DC267F" fill-rule="evenodd"/><path d="M566.041 308.203 568.203 306.041 570.5 308.338 572.797 306.041 574.959 308.203 572.662 310.5 574.959 312.797 572.797 314.959 570.5 312.662 568.203 314.959 566.041 312.797 568.338 310.5Z" fill="#DC267F" fill-rule="evenodd"/><path d="M580.002 312.403 582.243 310.322 584.5 312.753 586.757 310.322 588.998 312.403 586.586 315 588.998 317.597 586.757 319.678 584.5 317.247 582.243 319.678 580.002 317.597 582.414 315Z" fill="#DC267F" fill-rule="evenodd"/><path d="M511.041 333.203 513.203 331.041 515.5 333.338 517.797 331.041 519.959 333.203 517.662 335.5 519.959 337.797 517.797 339.959 515.5 337.662 513.203 339.959 511.041 337.797 513.338 335.5Z" fill="#DC267F" fill-rule="evenodd"/><path d="M524.041 341.203 526.203 339.041 528.5 341.338 530.797 339.041 532.959 341.203 530.662 343.5 532.959 345.797 530.797 347.959 528.5 345.662 526.203 347.959 524.041 345.797 526.338 343.5Z" fill="#DC267F" fill-rule="evenodd"/><path d="M561.002 320.403 563.243 318.322 565.5 320.753 567.757 318.322 569.998 320.403 567.586 323 569.998 325.597 567.757 327.678 565.5 325.247 563.243 327.678 561.002 325.597 563.414 323Z" fill="#DC267F" fill-rule="evenodd"/><path d="M590.041 326.203 592.203 324.041 594.5 326.338 596.797 324.041 598.959 326.203 596.662 328.5 598.959 330.797 596.797 332.959 594.5 330.662 592.203 332.959 590.041 330.797 592.338 328.5Z" fill="#DC267F" fill-rule="evenodd"/><path d="M570.041 330.203 572.203 328.041 574.5 330.338 576.797 328.041 578.959 330.203 576.662 332.5 578.959 334.797 576.797 336.959 574.5 334.662 572.203 336.959 570.041 334.797 572.338 332.5Z" fill="#DC267F" fill-rule="evenodd"/><path d="M561.041 339.203 563.203 337.041 565.5 339.338 567.797 337.041 569.959 339.203 567.662 341.5 569.959 343.797 567.797 345.959 565.5 343.662 563.203 345.959 561.041 343.797 563.338 341.5Z" fill="#DC267F" fill-rule="evenodd"/><path d="M555.322 352.243 557.403 350.002 560 352.414 562.597 350.002 564.678 352.243 562.247 354.5 564.678 356.757 562.597 358.998 560 356.586 557.403 358.998 555.322 356.757 557.753 354.5Z" fill="#DC267F" fill-rule="evenodd"/><path d="M500.041 346.203 502.203 344.041 504.5 346.338 506.797 344.041 508.959 346.203 506.662 348.5 508.959 350.797 506.797 352.959 504.5 350.662 502.203 352.959 500.041 350.797 502.338 348.5Z" fill="#DC267F" fill-rule="evenodd"/><path d="M348.322 146.243 350.403 144.002 353 146.414 355.597 144.002 357.678 146.243 355.247 148.5 357.678 150.757 355.597 152.998 353 150.586 350.403 152.998 348.322 150.757 350.753 148.5Z" fill="#DC267F" fill-rule="evenodd"/><path d="M348.322 108.243 350.403 106.002 353 108.414 355.597 106.002 357.678 108.243 355.247 110.5 357.678 112.757 355.597 114.998 353 112.586 350.403 114.998 348.322 112.757 350.753 110.5Z" fill="#DC267F" fill-rule="evenodd"/><path d="M407.203 114.959 405.041 112.797 407.338 110.5 405.041 108.203 407.203 106.041 409.5 108.338 411.797 106.041 413.959 108.203 411.662 110.5 413.959 112.797 411.797 114.959 409.5 112.662Z" fill="#DC267F" fill-rule="evenodd"/><path d="M369.403 114.998 367.322 112.757 369.753 110.5 367.322 108.243 369.403 106.002 372 108.414 374.597 106.002 376.678 108.243 374.247 110.5 376.678 112.757 374.597 114.998 372 112.586Z" fill="#DC267F" fill-rule="evenodd"/><path d="M407.203 152.959 405.041 150.797 407.338 148.5 405.041 146.203 407.203 144.041 409.5 146.338 411.797 144.041 413.959 146.203 411.662 148.5 413.959 150.797 411.797 152.959 409.5 150.662Z" fill="#DC267F" fill-rule="evenodd"/><path d="M369.403 152.998 367.322 150.757 369.753 148.5 367.322 146.243 369.403 144.002 372 146.414 374.597 144.002 376.678 146.243 374.247 148.5 376.678 150.757 374.597 152.998 372 150.586Z" fill="#DC267F" fill-rule="evenodd"/><path d="M348.322 165.243 350.403 163.002 353 165.414 355.597 163.002 357.678 165.243 355.247 167.5 357.678 169.757 355.597 171.998 353 169.586 350.403 171.998 348.322 169.757 350.753 167.5Z" fill="#DC267F" fill-rule="evenodd"/><path d="M407.203 171.959 405.041 169.797 407.338 167.5 405.041 165.203 407.203 163.041 409.5 165.338 411.797 163.041 413.959 165.203 411.662 167.5 413.959 169.797 411.797 171.959 409.5 169.662Z" fill="#DC267F" fill-rule="evenodd"/><path d="M369.403 171.998 367.322 169.757 369.753 167.5 367.322 165.243 369.403 163.002 372 165.414 374.597 163.002 376.678 165.243 374.247 167.5 376.678 169.757 374.597 171.998 372 169.586Z" fill="#DC267F" fill-rule="evenodd"/><path d="M348.198 202.527 350.527 200.198 353 202.672 355.473 200.198 357.802 202.527 355.328 205 357.802 207.473 355.473 209.802 353 207.328 350.527 209.802 348.198 207.473 350.672 205Z" fill="#DC267F" fill-rule="evenodd"/><path d="M407.243 209.678 405.002 207.597 407.414 205 405.002 202.403 407.243 200.322 409.5 202.753 411.758 200.322 413.998 202.403 411.586 205 413.998 207.597 411.758 209.678 409.5 207.247Z" fill="#DC267F" fill-rule="evenodd"/><path d="M369.527 209.802 367.198 207.473 369.672 205 367.198 202.527 369.527 200.198 372 202.672 374.473 200.198 376.802 202.527 374.328 205 376.802 207.473 374.473 209.802 372 207.328Z" fill="#DC267F" fill-rule="evenodd"/><rect x="395.5" y="309.5" width="25" height="20" stroke="#648FFF" stroke-width="1.33333" stroke-miterlimit="8" fill="none"/><rect x="343.5" y="275.5" width="19" height="34" stroke="#648FFF" stroke-width="1.33333" stroke-miterlimit="8" fill="none"/><rect x="343.5" y="255.5" width="19" height="20" stroke="#648FFF" stroke-width="1.33333" stroke-miterlimit="8" fill="none"/><rect x="395.5" y="255.5" width="25" height="20" stroke="#648FFF" stroke-width="1.33333" stroke-miterlimit="8" fill="none"/><rect x="362.5" y="255.5" width="33" height="20" stroke="#648FFF" stroke-width="1.33333" stroke-miterlimit="8" fill="none"/><rect x="395.5" y="275.5" width="25" height="34" stroke="#648FFF" stroke-width="1.33333" stroke-miterlimit="8" fill="none"/><rect x="362.5" y="275.5" width="33" height="34" stroke="#648FFF" stroke-width="1.33333" stroke-miterlimit="8" fill="none"/><rect x="343.5" y="309.5" width="19" height="20" stroke="#648FFF" stroke-width="1.33333" stroke-miterlimit="8" fill="none"/><rect x="362.5" y="309.5" width="33" height="20" stroke="#648FFF" stroke-width="1.33333" stroke-miterlimit="8" fill="none"/><rect x="343.5" y="329.5" width="19" height="34" stroke="#648FFF" stroke-width="1.33333" stroke-miterlimit="8" fill="none"/><rect x="395.5" y="329.5" width="25" height="34" stroke="#648FFF" stroke-width="1.33333" stroke-miterlimit="8" fill="none"/><text fill="#FFFFFF" font-family="Calibri,Calibri_MSFontService,sans-serif" font-weight="400" font-size="24" transform="matrix(-1.83697e-16 -1 1 -1.83697e-16 414.865 349)">`</text><rect x="362.5" y="329.5" width="33" height="34" stroke="#648FFF" stroke-width="1.33333" stroke-miterlimit="8" fill="none"/><path d="M339.002 252.403 341.243 250.322 343.5 252.753 345.757 250.322 347.998 252.403 345.586 255 347.998 257.597 345.757 259.678 343.5 257.247 341.243 259.678 339.002 257.597 341.414 255Z" fill="#DC267F" fill-rule="evenodd"/><path d="M357.002 252.403 359.243 250.322 361.5 252.753 363.757 250.322 365.998 252.403 363.586 255 365.998 257.597 363.757 259.678 361.5 257.247 359.243 259.678 357.002 257.597 359.414 255Z" fill="#DC267F" fill-rule="evenodd"/><path d="M390.198 252.527 392.527 250.198 395 252.672 397.473 250.198 399.802 252.527 397.328 255 399.802 257.473 397.473 259.802 395 257.328 392.527 259.802 390.198 257.473 392.672 255Z" fill="#DC267F" fill-rule="evenodd"/><path d="M415.002 252.403 417.243 250.322 419.5 252.753 421.757 250.322 423.998 252.403 421.586 255 423.998 257.597 421.757 259.678 419.5 257.247 417.243 259.678 415.002 257.597 417.414 255Z" fill="#DC267F" fill-rule="evenodd"/><path d="M339.002 272.403 341.243 270.322 343.5 272.753 345.757 270.322 347.998 272.403 345.586 275 347.998 277.597 345.757 279.678 343.5 277.247 341.243 279.678 339.002 277.597 341.414 275Z" fill="#DC267F" fill-rule="evenodd"/><path d="M357.002 272.403 359.243 270.322 361.5 272.753 363.757 270.322 365.998 272.403 363.586 275 365.998 277.597 363.757 279.678 361.5 277.247 359.243 279.678 357.002 277.597 359.414 275Z" fill="#DC267F" fill-rule="evenodd"/><path d="M390.198 272.527 392.527 270.198 395 272.672 397.473 270.198 399.802 272.527 397.328 275 399.802 277.473 397.473 279.802 395 277.328 392.527 279.802 390.198 277.473 392.672 275Z" fill="#DC267F" fill-rule="evenodd"/><path d="M415.002 272.403 417.243 270.322 419.5 272.753 421.757 270.322 423.998 272.403 421.586 275 423.998 277.597 421.757 279.678 419.5 277.247 417.243 279.678 415.002 277.597 417.414 275Z" fill="#DC267F" fill-rule="evenodd"/><path d="M339.002 306.403 341.243 304.322 343.5 306.753 345.757 304.322 347.998 306.403 345.586 309 347.998 311.597 345.757 313.678 343.5 311.247 341.243 313.678 339.002 311.597 341.414 309Z" fill="#DC267F" fill-rule="evenodd"/><path d="M357.002 306.403 359.243 304.322 361.5 306.753 363.757 304.322 365.998 306.403 363.586 309 365.998 311.597 363.757 313.678 361.5 311.247 359.243 313.678 357.002 311.597 359.414 309Z" fill="#DC267F" fill-rule="evenodd"/><path d="M390.198 306.527 392.527 304.198 395 306.672 397.473 304.198 399.802 306.527 397.328 309 399.802 311.473 397.473 313.802 395 311.328 392.527 313.802 390.198 311.473 392.672 309Z" fill="#DC267F" fill-rule="evenodd"/><path d="M415.002 306.403 417.243 304.322 419.5 306.753 421.757 304.322 423.998 306.403 421.586 309 423.998 311.597 421.757 313.678 419.5 311.247 417.243 313.678 415.002 311.597 417.414 309Z" fill="#DC267F" fill-rule="evenodd"/><path d="M339.041 326.203 341.203 324.041 343.5 326.338 345.797 324.041 347.959 326.203 345.662 328.5 347.959 330.797 345.797 332.959 343.5 330.662 341.203 332.959 339.041 330.797 341.338 328.5Z" fill="#DC267F" fill-rule="evenodd"/><path d="M357.041 326.203 359.203 324.041 361.5 326.338 363.797 324.041 365.959 326.203 363.662 328.5 365.959 330.797 363.797 332.959 361.5 330.662 359.203 332.959 357.041 330.797 359.338 328.5Z" fill="#DC267F" fill-rule="evenodd"/><path d="M390.322 326.243 392.403 324.002 395 326.414 397.597 324.002 399.678 326.243 397.247 328.5 399.678 330.757 397.597 332.998 395 330.586 392.403 332.998 390.322 330.757 392.753 328.5Z" fill="#DC267F" fill-rule="evenodd"/><path d="M415.041 326.203 417.203 324.041 419.5 326.338 421.797 324.041 423.959 326.203 421.662 328.5 423.959 330.797 421.797 332.959 419.5 330.662 417.203 332.959 415.041 330.797 417.338 328.5Z" fill="#DC267F" fill-rule="evenodd"/><path d="M339.041 360.203 341.203 358.041 343.5 360.338 345.797 358.041 347.959 360.203 345.662 362.5 347.959 364.797 345.797 366.959 343.5 364.662 341.203 366.959 339.041 364.797 341.338 362.5Z" fill="#DC267F" fill-rule="evenodd"/><path d="M357.041 360.203 359.203 358.041 361.5 360.338 363.797 358.041 365.959 360.203 363.662 362.5 365.959 364.797 363.797 366.959 361.5 364.662 359.203 366.959 357.041 364.797 359.338 362.5Z" fill="#DC267F" fill-rule="evenodd"/><path d="M390.322 360.243 392.403 358.002 395 360.414 397.597 358.002 399.678 360.243 397.247 362.5 399.678 364.757 397.597 366.998 395 364.586 392.403 366.998 390.322 364.757 392.753 362.5Z" fill="#DC267F" fill-rule="evenodd"/><path d="M415.041 360.203 417.203 358.041 419.5 360.338 421.797 358.041 423.959 360.203 421.662 362.5 423.959 364.797 421.797 366.959 419.5 364.662 417.203 366.959 415.041 364.797 417.338 362.5Z" fill="#DC267F" fill-rule="evenodd"/><path d="M434.5 158.167 480.361 158.167 480.361 160.833 434.5 160.833ZM473.032 153.682 483.007 159.5 473.032 165.318C472.396 165.69 471.58 165.475 471.209 164.839 470.838 164.203 471.053 163.386 471.689 163.015L479.689 158.348 479.689 160.652 471.689 155.985C471.053 155.614 470.838 154.798 471.209 154.162 471.58 153.526 472.396 153.311 473.032 153.682Z"/><path d="M441.5 307.167 487.361 307.167 487.361 309.833 441.5 309.833ZM480.032 302.682 490.007 308.5 480.032 314.319C479.396 314.69 478.58 314.475 478.209 313.839 477.838 313.203 478.053 312.386 478.689 312.015L486.689 307.348 486.689 309.652 478.689 304.985C478.053 304.614 477.838 303.798 478.209 303.162 478.58 302.526 479.396 302.311 480.032 302.682Z"/></g></svg>