<svg width="603" height="335" xmlns="http://www.w3.org/2000/svg" xmlns:xlink="http://www.w3.org/1999/xlink" overflow="hidden"><defs><clipPath id="clip0"><rect x="649" y="382" width="603" height="335"/></clipPath></defs><g clip-path="url(#clip0)" transform="translate(-649 -382)"><rect x="1208.5" y="556.5" width="37" height="29" stroke="#648FFF" stroke-width="1.33333" stroke-miterlimit="8" fill="none"/><rect x="1131.5" y="506.5" width="28" height="50" stroke="#648FFF" stroke-width="1.33333" stroke-miterlimit="8" fill="none"/><rect x="1131.5" y="475.5" width="28" height="31" stroke="#648FFF" stroke-width="1.33333" stroke-miterlimit="8" fill="none"/><rect x="1208.5" y="475.5" width="37" height="31" stroke="#648FFF" stroke-width="1.33333" stroke-miterlimit="8" fill="none"/><rect x="1158.5" y="475.5" width="50" height="31" stroke="#648FFF" stroke-width="1.33333" stroke-miterlimit="8" fill="none"/><rect x="1208.5" y="506.5" width="37" height="50" stroke="#648FFF" stroke-width="1.33333" stroke-miterlimit="8" fill="none"/><rect x="1158.5" y="506.5" width="50" height="50" stroke="#648FFF" stroke-width="1.33333" stroke-miterlimit="8" fill="none"/><rect x="1131.5" y="556.5" width="28" height="29" stroke="#648FFF" stroke-width="1.33333" stroke-miterlimit="8" fill="none"/><rect x="1158.5" y="556.5" width="50" height="29" stroke="#648FFF" stroke-width="1.33333" stroke-miterlimit="8" fill="none"/><rect x="1131.5" y="585.5" width="28" height="51" stroke="#648FFF" stroke-width="1.33333" stroke-miterlimit="8" fill="none"/><rect x="1208.5" y="585.5" width="37" height="51" stroke="#648FFF" stroke-width="1.33333" stroke-miterlimit="8" fill="none"/><rect x="1158.5" y="585.5" width="50" height="51" stroke="#648FFF" stroke-width="1.33333" stroke-miterlimit="8" fill="none"/><path d="M1132 543 1138.59 541.586 1140 535 1141.41 541.586 1148 543 1141.41 544.414 1140 551 1138.59 544.414Z" fill="#DC267F" fill-rule="evenodd"/><path d="M1132 487 1138.59 485.586 1140 479 1141.41 485.586 1148 487 1141.41 488.414 1140 495 1138.59 488.414Z" fill="#DC267F" fill-rule="evenodd"/><path d="M1224.5 495 1223 488.414 1216 487 1223 485.586 1224.5 479 1226 485.586 1233 487 1226 488.414Z" fill="#DC267F" fill-rule="evenodd"/><path d="M1168 495 1166.59 488.414 1160 487 1166.59 485.586 1168 479 1169.41 485.586 1176 487 1169.41 488.414Z" fill="#DC267F" fill-rule="evenodd"/><path d="M1224.5 551 1223 544.414 1216 543 1223 541.586 1224.5 535 1226 541.586 1233 543 1226 544.414Z" fill="#DC267F" fill-rule="evenodd"/><path d="M1168 551 1166.59 544.414 1160 543 1166.59 541.586 1168 535 1169.41 541.586 1176 543 1169.41 544.414Z" fill="#DC267F" fill-rule="evenodd"/><path d="M1132 571 1138.59 569.586 1140 563 1141.41 569.586 1148 571 1141.41 572.414 1140 579 1138.59 572.414Z" fill="#DC267F" fill-rule="evenodd"/><path d="M1224.5 579 1223 572.414 1216 571 1223 569.586 1224.5 563 1226 569.586 1233 571 1226 572.414Z" fill="#DC267F" fill-rule="evenodd"/><path d="M1168 579 1166.59 572.414 1160 571 1166.59 569.586 1168 563 1169.41 569.586 1176 571 1169.41 572.414Z" fill="#DC267F" fill-rule="evenodd"/><path d="M1132 627.5 1138.59 625.997 1140 619 1141.41 625.997 1148 627.5 1141.41 629.003 1140 636 1138.59 629.003Z" fill="#DC267F" fill-rule="evenodd"/><path d="M1224.5 636 1223 629.003 1216 627.5 1223 625.997 1224.5 619 1226 625.997 1233 627.5 1226 629.003Z" fill="#DC267F" fill-rule="evenodd"/><path d="M1168 636 1166.59 629.003 1160 627.5 1166.59 625.997 1168 619 1169.41 625.997 1176 627.5 1169.41 629.003Z" fill="#DC267F" fill-rule="evenodd"/><path d="M1124.14 471.467 1127.47 468.14 1131 471.674 1134.53 468.14 1137.86 471.467 1134.33 475 1137.86 478.533 1134.53 481.86 1131 478.326 1127.47 481.86 1124.14 478.533 1127.67 475Z" fill="#DC267F" fill-rule="evenodd"/><path d="M1151.94 471.342 1155.18 468.265 1158.5 471.756 1161.82 468.265 1165.06 471.342 1161.58 475 1165.06 478.658 1161.82 481.735 1158.5 478.244 1155.18 481.735 1151.94 478.658 1155.42 475Z" fill="#DC267F" fill-rule="evenodd"/><path d="M1201.14 471.467 1204.47 468.14 1208 471.674 1211.53 468.14 1214.86 471.467 1211.33 475 1214.86 478.533 1211.53 481.86 1208 478.326 1204.47 481.86 1201.14 478.533 1204.67 475Z" fill="#DC267F" fill-rule="evenodd"/><path d="M1237.14 471.467 1240.47 468.14 1244 471.674 1247.53 468.14 1250.86 471.467 1247.33 475 1250.86 478.533 1247.53 481.86 1244 478.326 1240.47 481.86 1237.14 478.533 1240.67 475Z" fill="#DC267F" fill-rule="evenodd"/><path d="M1124.14 501.467 1127.47 498.14 1131 501.674 1134.53 498.14 1137.86 501.467 1134.33 505 1137.86 508.533 1134.53 511.86 1131 508.326 1127.47 511.86 1124.14 508.533 1127.67 505Z" fill="#DC267F" fill-rule="evenodd"/><path d="M1151.94 501.342 1155.18 498.265 1158.5 501.756 1161.82 498.265 1165.06 501.342 1161.58 505 1165.06 508.658 1161.82 511.735 1158.5 508.244 1155.18 511.735 1151.94 508.658 1155.42 505Z" fill="#DC267F" fill-rule="evenodd"/><path d="M1201.14 501.467 1204.47 498.14 1208 501.674 1211.53 498.14 1214.86 501.467 1211.33 505 1214.86 508.533 1211.53 511.86 1208 508.326 1204.47 511.86 1201.14 508.533 1204.67 505Z" fill="#DC267F" fill-rule="evenodd"/><path d="M1237.14 501.467 1240.47 498.14 1244 501.674 1247.53 498.14 1250.86 501.467 1247.33 505 1250.86 508.533 1247.53 511.86 1244 508.326 1240.47 511.86 1237.14 508.533 1240.67 505Z" fill="#DC267F" fill-rule="evenodd"/><path d="M1124.14 552.467 1127.47 549.14 1131 552.674 1134.53 549.14 1137.86 552.467 1134.33 556 1137.86 559.533 1134.53 562.86 1131 559.326 1127.47 562.86 1124.14 559.533 1127.67 556Z" fill="#DC267F" fill-rule="evenodd"/><path d="M1151.94 552.342 1155.18 549.265 1158.5 552.756 1161.82 549.265 1165.06 552.342 1161.58 556 1165.06 559.658 1161.82 562.735 1158.5 559.244 1155.18 562.735 1151.94 559.658 1155.42 556Z" fill="#DC267F" fill-rule="evenodd"/><path d="M1201.14 552.467 1204.47 549.14 1208 552.674 1211.53 549.14 1214.86 552.467 1211.33 556 1214.86 559.533 1211.53 562.86 1208 559.326 1204.47 562.86 1201.14 559.533 1204.67 556Z" fill="#DC267F" fill-rule="evenodd"/><path d="M1237.14 552.467 1240.47 549.14 1244 552.674 1247.53 549.14 1250.86 552.467 1247.33 556 1250.86 559.533 1247.53 562.86 1244 559.326 1240.47 562.86 1237.14 559.533 1240.67 556Z" fill="#DC267F" fill-rule="evenodd"/><path d="M1124.14 581.467 1127.47 578.14 1131 581.674 1134.53 578.14 1137.86 581.467 1134.33 585 1137.86 588.533 1134.53 591.86 1131 588.326 1127.47 591.86 1124.14 588.533 1127.67 585Z" fill="#DC267F" fill-rule="evenodd"/><path d="M1151.94 581.342 1155.18 578.265 1158.5 581.756 1161.82 578.265 1165.06 581.342 1161.58 585 1165.06 588.658 1161.82 591.735 1158.5 588.244 1155.18 591.735 1151.94 588.658 1155.42 585Z" fill="#DC267F" fill-rule="evenodd"/><path d="M1201.14 581.467 1204.47 578.14 1208 581.674 1211.53 578.14 1214.86 581.467 1211.33 585 1214.86 588.533 1211.53 591.86 1208 588.326 1204.47 591.86 1201.14 588.533 1204.67 585Z" fill="#DC267F" fill-rule="evenodd"/><path d="M1237.14 581.467 1240.47 578.14 1244 581.674 1247.53 578.14 1250.86 581.467 1247.33 585 1250.86 588.533 1247.53 591.86 1244 588.326 1240.47 591.86 1237.14 588.533 1240.67 585Z" fill="#DC267F" fill-rule="evenodd"/><path d="M1124.14 632.467 1127.47 629.14 1131 632.674 1134.53 629.14 1137.86 632.467 1134.33 636 1137.86 639.533 1134.53 642.86 1131 639.326 1127.47 642.86 1124.14 639.533 1127.67 636Z" fill="#DC267F" fill-rule="evenodd"/><path d="M1151.94 632.342 1155.18 629.265 1158.5 632.756 1161.82 629.265 1165.06 632.342 1161.58 636 1165.06 639.658 1161.82 642.735 1158.5 639.244 1155.18 642.735 1151.94 639.658 1155.42 636Z" fill="#DC267F" fill-rule="evenodd"/><path d="M1201.14 632.467 1204.47 629.14 1208 632.674 1211.53 629.14 1214.86 632.467 1211.33 636 1214.86 639.533 1211.53 642.86 1208 639.326 1204.47 642.86 1201.14 639.533 1204.67 636Z" fill="#DC267F" fill-rule="evenodd"/><path d="M1237.14 632.467 1240.47 629.14 1244 632.674 1247.53 629.14 1250.86 632.467 1247.33 636 1250.86 639.533 1247.53 642.86 1244 639.326 1240.47 642.86 1237.14 639.533 1240.67 636Z" fill="#DC267F" fill-rule="evenodd"/><rect x="695.5" y="429.5" width="14" height="250" stroke="#000000" stroke-width="1.33333" stroke-miterlimit="8" fill="none"/><path d="M701.5 483C703.985 483 706 485.015 706 487.5 706 489.985 703.985 492 701.5 492 699.015 492 697 489.985 697 487.5 697 485.015 699.015 483 701.5 483Z" fill="#DC267F" fill-rule="evenodd"/><path d="M701.5 434C703.985 434 706 435.791 706 438 706 440.209 703.985 442 701.5 442 699.015 442 697 440.209 697 438 697 435.791 699.015 434 701.5 434Z" fill="#DC267F" fill-rule="evenodd"/><path d="M697 471C697 468.791 699.015 467 701.5 467 703.985 467 706 468.791 706 471 706 473.209 703.985 475 701.5 475 699.015 475 697 473.209 697 471Z" fill="#DC267F" fill-rule="evenodd"/><path d="M697 454.5C697 452.015 699.015 450 701.5 450 703.985 450 706 452.015 706 454.5 706 456.985 703.985 459 701.5 459 699.015 459 697 456.985 697 454.5Z" fill="#DC267F" fill-rule="evenodd"/><path d="M697 520.5C697 518.015 699.015 516 701.5 516 703.985 516 706 518.015 706 520.5 706 522.985 703.985 525 701.5 525 699.015 525 697 522.985 697 520.5Z" fill="#DC267F" fill-rule="evenodd"/><path d="M697 504C697 501.791 699.015 500 701.5 500 703.985 500 706 501.791 706 504 706 506.209 703.985 508 701.5 508 699.015 508 697 506.209 697 504Z" fill="#DC267F" fill-rule="evenodd"/><path d="M701.5 582C703.985 582 706 583.791 706 586 706 588.209 703.985 590 701.5 590 699.015 590 697 588.209 697 586 697 583.791 699.015 582 701.5 582Z" fill="#DC267F" fill-rule="evenodd"/><path d="M701.5 532C703.985 532 706 534.015 706 536.5 706 538.985 703.985 541 701.5 541 699.015 541 697 538.985 697 536.5 697 534.015 699.015 532 701.5 532Z" fill="#DC267F" fill-rule="evenodd"/><path d="M697 569.5C697 567.015 699.015 565 701.5 565 703.985 565 706 567.015 706 569.5 706 571.985 703.985 574 701.5 574 699.015 574 697 571.985 697 569.5Z" fill="#DC267F" fill-rule="evenodd"/><path d="M697 553.5C697 551.015 699.015 549 701.5 549 703.985 549 706 551.015 706 553.5 706 555.985 703.985 558 701.5 558 699.015 558 697 555.985 697 553.5Z" fill="#DC267F" fill-rule="evenodd"/><path d="M697 619C697 616.791 699.015 615 701.5 615 703.985 615 706 616.791 706 619 706 621.209 703.985 623 701.5 623 699.015 623 697 621.209 697 619Z" fill="#DC267F" fill-rule="evenodd"/><path d="M697 602.5C697 600.015 699.015 598 701.5 598 703.985 598 706 600.015 706 602.5 706 604.985 703.985 607 701.5 607 699.015 607 697 604.985 697 602.5Z" fill="#DC267F" fill-rule="evenodd"/><path d="M697 635.5C697 633.015 699.015 631 701.5 631 703.985 631 706 633.015 706 635.5 706 637.985 703.985 640 701.5 640 699.015 640 697 637.985 697 635.5Z" fill="#DC267F" fill-rule="evenodd"/><path d="M697 652C697 649.791 699.015 648 701.5 648 703.985 648 706 649.791 706 652 706 654.209 703.985 656 701.5 656 699.015 656 697 654.209 697 652Z" fill="#DC267F" fill-rule="evenodd"/><path d="M697 668.5C697 666.015 699.015 664 701.5 664 703.985 664 706 666.015 706 668.5 706 670.985 703.985 673 701.5 673 699.015 673 697 670.985 697 668.5Z" fill="#DC267F" fill-rule="evenodd"/><rect x="728.5" y="429.5" width="15" height="250" stroke="#000000" stroke-width="1.33333" stroke-miterlimit="8" fill="none"/><path d="M735.5 483C737.985 483 740 485.015 740 487.5 740 489.985 737.985 492 735.5 492 733.015 492 731 489.985 731 487.5 731 485.015 733.015 483 735.5 483Z" fill="#DC267F" fill-rule="evenodd"/><path d="M735.5 434C737.985 434 740 435.791 740 438 740 440.209 737.985 442 735.5 442 733.015 442 731 440.209 731 438 731 435.791 733.015 434 735.5 434Z" fill="#DC267F" fill-rule="evenodd"/><path d="M731 471C731 468.791 733.015 467 735.5 467 737.985 467 740 468.791 740 471 740 473.209 737.985 475 735.5 475 733.015 475 731 473.209 731 471Z" fill="#DC267F" fill-rule="evenodd"/><path d="M731 454.5C731 452.015 733.015 450 735.5 450 737.985 450 740 452.015 740 454.5 740 456.985 737.985 459 735.5 459 733.015 459 731 456.985 731 454.5Z" fill="#DC267F" fill-rule="evenodd"/><path d="M731 520.5C731 518.015 733.015 516 735.5 516 737.985 516 740 518.015 740 520.5 740 522.985 737.985 525 735.5 525 733.015 525 731 522.985 731 520.5Z" fill="#DC267F" fill-rule="evenodd"/><path d="M731 504C731 501.791 733.015 500 735.5 500 737.985 500 740 501.791 740 504 740 506.209 737.985 508 735.5 508 733.015 508 731 506.209 731 504Z" fill="#DC267F" fill-rule="evenodd"/><path d="M735.5 582C737.985 582 740 583.791 740 586 740 588.209 737.985 590 735.5 590 733.015 590 731 588.209 731 586 731 583.791 733.015 582 735.5 582Z" fill="#DC267F" fill-rule="evenodd"/><path d="M735.5 532C737.985 532 740 534.015 740 536.5 740 538.985 737.985 541 735.5 541 733.015 541 731 538.985 731 536.5 731 534.015 733.015 532 735.5 532Z" fill="#DC267F" fill-rule="evenodd"/><path d="M731 569.5C731 567.015 733.015 565 735.5 565 737.985 565 740 567.015 740 569.5 740 571.985 737.985 574 735.5 574 733.015 574 731 571.985 731 569.5Z" fill="#DC267F" fill-rule="evenodd"/><path d="M731 553.5C731 551.015 733.015 549 735.5 549 737.985 549 740 551.015 740 553.5 740 555.985 737.985 558 735.5 558 733.015 558 731 555.985 731 553.5Z" fill="#DC267F" fill-rule="evenodd"/><path d="M731 619C731 616.791 733.015 615 735.5 615 737.985 615 740 616.791 740 619 740 621.209 737.985 623 735.5 623 733.015 623 731 621.209 731 619Z" fill="#DC267F" fill-rule="evenodd"/><path d="M731 602.5C731 600.015 733.015 598 735.5 598 737.985 598 740 600.015 740 602.5 740 604.985 737.985 607 735.5 607 733.015 607 731 604.985 731 602.5Z" fill="#DC267F" fill-rule="evenodd"/><path d="M731 635.5C731 633.015 733.015 631 735.5 631 737.985 631 740 633.015 740 635.5 740 637.985 737.985 640 735.5 640 733.015 640 731 637.985 731 635.5Z" fill="#DC267F" fill-rule="evenodd"/><path d="M731 652C731 649.791 733.015 648 735.5 648 737.985 648 740 649.791 740 652 740 654.209 737.985 656 735.5 656 733.015 656 731 654.209 731 652Z" fill="#DC267F" fill-rule="evenodd"/><path d="M731 668.5C731 666.015 733.015 664 735.5 664 737.985 664 740 666.015 740 668.5 740 670.985 737.985 673 735.5 673 733.015 673 731 670.985 731 668.5Z" fill="#DC267F" fill-rule="evenodd"/><rect x="828.5" y="412.5" width="83" height="272" stroke="#000000" stroke-width="1.33333" stroke-miterlimit="8" fill="none"/><path d="M890 426C890 423.791 891.791 422 894 422 896.209 422 898 423.791 898 426 898 428.209 896.209 430 894 430 891.791 430 890 428.209 890 426Z" fill="#648FFF" fill-rule="evenodd"/><path d="M840 426C840 423.791 842.015 422 844.5 422 846.985 422 849 423.791 849 426 849 428.209 846.985 430 844.5 430 842.015 430 840 428.209 840 426Z" fill="#648FFF" fill-rule="evenodd"/><path d="M877.5 430C875.015 430 873 428.209 873 426 873 423.791 875.015 422 877.5 422 879.985 422 882 423.791 882 426 882 428.209 879.985 430 877.5 430Z" fill="#648FFF" fill-rule="evenodd"/><path d="M861 430C858.791 430 857 428.209 857 426 857 423.791 858.791 422 861 422 863.209 422 865 423.791 865 426 865 428.209 863.209 430 861 430Z" fill="#648FFF" fill-rule="evenodd"/><rect x="835.5" y="418.5" width="69" height="16" stroke="#000000" stroke-width="1.33333" stroke-miterlimit="8" fill="none"/><path d="M890 448.5C890 446.015 891.791 444 894 444 896.209 444 898 446.015 898 448.5 898 450.985 896.209 453 894 453 891.791 453 890 450.985 890 448.5Z" fill="#648FFF" fill-rule="evenodd"/><path d="M840 448.5C840 446.015 842.015 444 844.5 444 846.985 444 849 446.015 849 448.5 849 450.985 846.985 453 844.5 453 842.015 453 840 450.985 840 448.5Z" fill="#648FFF" fill-rule="evenodd"/><path d="M877.5 453C875.015 453 873 450.985 873 448.5 873 446.015 875.015 444 877.5 444 879.985 444 882 446.015 882 448.5 882 450.985 879.985 453 877.5 453Z" fill="#648FFF" fill-rule="evenodd"/><path d="M861 453C858.791 453 857 450.985 857 448.5 857 446.015 858.791 444 861 444 863.209 444 865 446.015 865 448.5 865 450.985 863.209 453 861 453Z" fill="#648FFF" fill-rule="evenodd"/><rect x="835.5" y="440.5" width="69" height="17" stroke="#000000" stroke-width="1.33333" stroke-miterlimit="8" fill="none"/><path d="M890 470.5C890 468.015 891.791 466 894 466 896.209 466 898 468.015 898 470.5 898 472.985 896.209 475 894 475 891.791 475 890 472.985 890 470.5Z" fill="#648FFF" fill-rule="evenodd"/><path d="M840 470.5C840 468.015 842.015 466 844.5 466 846.985 466 849 468.015 849 470.5 849 472.985 846.985 475 844.5 475 842.015 475 840 472.985 840 470.5Z" fill="#648FFF" fill-rule="evenodd"/><path d="M877.5 475C875.015 475 873 472.985 873 470.5 873 468.015 875.015 466 877.5 466 879.985 466 882 468.015 882 470.5 882 472.985 879.985 475 877.5 475Z" fill="#648FFF" fill-rule="evenodd"/><path d="M861 475C858.791 475 857 472.985 857 470.5 857 468.015 858.791 466 861 466 863.209 466 865 468.015 865 470.5 865 472.985 863.209 475 861 475Z" fill="#648FFF" fill-rule="evenodd"/><rect x="835.5" y="462.5" width="69" height="17" stroke="#000000" stroke-width="1.33333" stroke-miterlimit="8" fill="none"/><path d="M890 492.5C890 490.015 891.791 488 894 488 896.209 488 898 490.015 898 492.5 898 494.985 896.209 497 894 497 891.791 497 890 494.985 890 492.5Z" fill="#648FFF" fill-rule="evenodd"/><path d="M840 492.5C840 490.015 842.015 488 844.5 488 846.985 488 849 490.015 849 492.5 849 494.985 846.985 497 844.5 497 842.015 497 840 494.985 840 492.5Z" fill="#648FFF" fill-rule="evenodd"/><path d="M877.5 497C875.015 497 873 494.985 873 492.5 873 490.015 875.015 488 877.5 488 879.985 488 882 490.015 882 492.5 882 494.985 879.985 497 877.5 497Z" fill="#648FFF" fill-rule="evenodd"/><path d="M861 497C858.791 497 857 494.985 857 492.5 857 490.015 858.791 488 861 488 863.209 488 865 490.015 865 492.5 865 494.985 863.209 497 861 497Z" fill="#648FFF" fill-rule="evenodd"/><rect x="835.5" y="484.5" width="69" height="17" stroke="#000000" stroke-width="1.33333" stroke-miterlimit="8" fill="none"/><path d="M890 515C890 512.791 891.791 511 894 511 896.209 511 898 512.791 898 515 898 517.209 896.209 519 894 519 891.791 519 890 517.209 890 515Z" fill="#648FFF" fill-rule="evenodd"/><path d="M840 515C840 512.791 842.015 511 844.5 511 846.985 511 849 512.791 849 515 849 517.209 846.985 519 844.5 519 842.015 519 840 517.209 840 515Z" fill="#648FFF" fill-rule="evenodd"/><path d="M877.5 519C875.015 519 873 517.209 873 515 873 512.791 875.015 511 877.5 511 879.985 511 882 512.791 882 515 882 517.209 879.985 519 877.5 519Z" fill="#648FFF" fill-rule="evenodd"/><path d="M861 519C858.791 519 857 517.209 857 515 857 512.791 858.791 511 861 511 863.209 511 865 512.791 865 515 865 517.209 863.209 519 861 519Z" fill="#648FFF" fill-rule="evenodd"/><rect x="835.5" y="506.5" width="69" height="17" stroke="#000000" stroke-width="1.33333" stroke-miterlimit="8" fill="none"/><path d="M890 537C890 534.791 891.791 533 894 533 896.209 533 898 534.791 898 537 898 539.209 896.209 541 894 541 891.791 541 890 539.209 890 537Z" fill="#648FFF" fill-rule="evenodd"/><path d="M840 537C840 534.791 842.015 533 844.5 533 846.985 533 849 534.791 849 537 849 539.209 846.985 541 844.5 541 842.015 541 840 539.209 840 537Z" fill="#648FFF" fill-rule="evenodd"/><path d="M877.5 541C875.015 541 873 539.209 873 537 873 534.791 875.015 533 877.5 533 879.985 533 882 534.791 882 537 882 539.209 879.985 541 877.5 541Z" fill="#648FFF" fill-rule="evenodd"/><path d="M861 541C858.791 541 857 539.209 857 537 857 534.791 858.791 533 861 533 863.209 533 865 534.791 865 537 865 539.209 863.209 541 861 541Z" fill="#648FFF" fill-rule="evenodd"/><rect x="835.5" y="529.5" width="69" height="16" stroke="#000000" stroke-width="1.33333" stroke-miterlimit="8" fill="none"/><path d="M890 559.5C890 557.015 891.791 555 894 555 896.209 555 898 557.015 898 559.5 898 561.985 896.209 564 894 564 891.791 564 890 561.985 890 559.5Z" fill="#648FFF" fill-rule="evenodd"/><path d="M840 559.5C840 557.015 842.015 555 844.5 555 846.985 555 849 557.015 849 559.5 849 561.985 846.985 564 844.5 564 842.015 564 840 561.985 840 559.5Z" fill="#648FFF" fill-rule="evenodd"/><path d="M877.5 564C875.015 564 873 561.985 873 559.5 873 557.015 875.015 555 877.5 555 879.985 555 882 557.015 882 559.5 882 561.985 879.985 564 877.5 564Z" fill="#648FFF" fill-rule="evenodd"/><path d="M861 564C858.791 564 857 561.985 857 559.5 857 557.015 858.791 555 861 555 863.209 555 865 557.015 865 559.5 865 561.985 863.209 564 861 564Z" fill="#648FFF" fill-rule="evenodd"/><rect x="835.5" y="551.5" width="69" height="17" stroke="#000000" stroke-width="1.33333" stroke-miterlimit="8" fill="none"/><path d="M890 581.5C890 579.015 891.791 577 894 577 896.209 577 898 579.015 898 581.5 898 583.985 896.209 586 894 586 891.791 586 890 583.985 890 581.5Z" fill="#648FFF" fill-rule="evenodd"/><path d="M840 581.5C840 579.015 842.015 577 844.5 577 846.985 577 849 579.015 849 581.5 849 583.985 846.985 586 844.5 586 842.015 586 840 583.985 840 581.5Z" fill="#648FFF" fill-rule="evenodd"/><path d="M877.5 586C875.015 586 873 583.985 873 581.5 873 579.015 875.015 577 877.5 577 879.985 577 882 579.015 882 581.5 882 583.985 879.985 586 877.5 586Z" fill="#648FFF" fill-rule="evenodd"/><path d="M861 586C858.791 586 857 583.985 857 581.5 857 579.015 858.791 577 861 577 863.209 577 865 579.015 865 581.5 865 583.985 863.209 586 861 586Z" fill="#648FFF" fill-rule="evenodd"/><rect x="835.5" y="573.5" width="69" height="17" stroke="#000000" stroke-width="1.33333" stroke-miterlimit="8" fill="none"/><path d="M890 603.5C890 601.015 891.791 599 894 599 896.209 599 898 601.015 898 603.5 898 605.985 896.209 608 894 608 891.791 608 890 605.985 890 603.5Z" fill="#648FFF" fill-rule="evenodd"/><path d="M840 603.5C840 601.015 842.015 599 844.5 599 846.985 599 849 601.015 849 603.5 849 605.985 846.985 608 844.5 608 842.015 608 840 605.985 840 603.5Z" fill="#648FFF" fill-rule="evenodd"/><path d="M877.5 608C875.015 608 873 605.985 873 603.5 873 601.015 875.015 599 877.5 599 879.985 599 882 601.015 882 603.5 882 605.985 879.985 608 877.5 608Z" fill="#648FFF" fill-rule="evenodd"/><path d="M861 608C858.791 608 857 605.985 857 603.5 857 601.015 858.791 599 861 599 863.209 599 865 601.015 865 603.5 865 605.985 863.209 608 861 608Z" fill="#648FFF" fill-rule="evenodd"/><rect x="835.5" y="595.5" width="69" height="17" stroke="#000000" stroke-width="1.33333" stroke-miterlimit="8" fill="none"/><path d="M890 626C890 623.791 891.791 622 894 622 896.209 622 898 623.791 898 626 898 628.209 896.209 630 894 630 891.791 630 890 628.209 890 626Z" fill="#648FFF" fill-rule="evenodd"/><path d="M840 626C840 623.791 842.015 622 844.5 622 846.985 622 849 623.791 849 626 849 628.209 846.985 630 844.5 630 842.015 630 840 628.209 840 626Z" fill="#648FFF" fill-rule="evenodd"/><path d="M877.5 630C875.015 630 873 628.209 873 626 873 623.791 875.015 622 877.5 622 879.985 622 882 623.791 882 626 882 628.209 879.985 630 877.5 630Z" fill="#648FFF" fill-rule="evenodd"/><path d="M861 630C858.791 630 857 628.209 857 626 857 623.791 858.791 622 861 622 863.209 622 865 623.791 865 626 865 628.209 863.209 630 861 630Z" fill="#648FFF" fill-rule="evenodd"/><rect x="835.5" y="618.5" width="69" height="16" stroke="#000000" stroke-width="1.33333" stroke-miterlimit="8" fill="none"/><path d="M890 648.5C890 646.015 891.791 644 894 644 896.209 644 898 646.015 898 648.5 898 650.985 896.209 653 894 653 891.791 653 890 650.985 890 648.5Z" fill="#648FFF" fill-rule="evenodd"/><path d="M840 648.5C840 646.015 842.015 644 844.5 644 846.985 644 849 646.015 849 648.5 849 650.985 846.985 653 844.5 653 842.015 653 840 650.985 840 648.5Z" fill="#648FFF" fill-rule="evenodd"/><path d="M877.5 653C875.015 653 873 650.985 873 648.5 873 646.015 875.015 644 877.5 644 879.985 644 882 646.015 882 648.5 882 650.985 879.985 653 877.5 653Z" fill="#648FFF" fill-rule="evenodd"/><path d="M861 653C858.791 653 857 650.985 857 648.5 857 646.015 858.791 644 861 644 863.209 644 865 646.015 865 648.5 865 650.985 863.209 653 861 653Z" fill="#648FFF" fill-rule="evenodd"/><rect x="835.5" y="640.5" width="69" height="17" stroke="#000000" stroke-width="1.33333" stroke-miterlimit="8" fill="none"/><path d="M890 670.5C890 668.015 891.791 666 894 666 896.209 666 898 668.015 898 670.5 898 672.985 896.209 675 894 675 891.791 675 890 672.985 890 670.5Z" fill="#648FFF" fill-rule="evenodd"/><path d="M840 670.5C840 668.015 842.015 666 844.5 666 846.985 666 849 668.015 849 670.5 849 672.985 846.985 675 844.5 675 842.015 675 840 672.985 840 670.5Z" fill="#648FFF" fill-rule="evenodd"/><path d="M877.5 675C875.015 675 873 672.985 873 670.5 873 668.015 875.015 666 877.5 666 879.985 666 882 668.015 882 670.5 882 672.985 879.985 675 877.5 675Z" fill="#648FFF" fill-rule="evenodd"/><path d="M861 675C858.791 675 857 672.985 857 670.5 857 668.015 858.791 666 861 666 863.209 666 865 668.015 865 670.5 865 672.985 863.209 675 861 675Z" fill="#648FFF" fill-rule="evenodd"/><rect x="835.5" y="662.5" width="69" height="17" stroke="#000000" stroke-width="1.33333" stroke-miterlimit="8" fill="none"/><path d="M991.5 524C993.985 524 996 526.015 996 528.5 996 530.985 993.985 533 991.5 533 989.015 533 987 530.985 987 528.5 987 526.015 989.015 524 991.5 524Z" fill="#DC267F" fill-rule="evenodd"/><path d="M991.5 475C993.985 475 996 477.015 996 479.5 996 481.985 993.985 484 991.5 484 989.015 484 987 481.985 987 479.5 987 477.015 989.015 475 991.5 475Z" fill="#DC267F" fill-rule="evenodd"/><path d="M987 512.5C987 510.015 989.015 508 991.5 508 993.985 508 996 510.015 996 512.5 996 514.985 993.985 517 991.5 517 989.015 517 987 514.985 987 512.5Z" fill="#DC267F" fill-rule="evenodd"/><path d="M987 496C987 493.791 989.015 492 991.5 492 993.985 492 996 493.791 996 496 996 498.209 993.985 500 991.5 500 989.015 500 987 498.209 987 496Z" fill="#DC267F" fill-rule="evenodd"/><path d="M987 561.5C987 559.015 989.015 557 991.5 557 993.985 557 996 559.015 996 561.5 996 563.985 993.985 566 991.5 566 989.015 566 987 563.985 987 561.5Z" fill="#DC267F" fill-rule="evenodd"/><path d="M987 545.5C987 543.015 989.015 541 991.5 541 993.985 541 996 543.015 996 545.5 996 547.985 993.985 550 991.5 550 989.015 550 987 547.985 987 545.5Z" fill="#DC267F" fill-rule="evenodd"/><path d="M991.5 623C993.985 623 996 625.015 996 627.5 996 629.985 993.985 632 991.5 632 989.015 632 987 629.985 987 627.5 987 625.015 989.015 623 991.5 623Z" fill="#DC267F" fill-rule="evenodd"/><path d="M991.5 574C993.985 574 996 575.791 996 578 996 580.209 993.985 582 991.5 582 989.015 582 987 580.209 987 578 987 575.791 989.015 574 991.5 574Z" fill="#DC267F" fill-rule="evenodd"/><path d="M987 611C987 608.791 989.015 607 991.5 607 993.985 607 996 608.791 996 611 996 613.209 993.985 615 991.5 615 989.015 615 987 613.209 987 611Z" fill="#DC267F" fill-rule="evenodd"/><path d="M987 594.5C987 592.015 989.015 590 991.5 590 993.985 590 996 592.015 996 594.5 996 596.985 993.985 599 991.5 599 989.015 599 987 596.985 987 594.5Z" fill="#DC267F" fill-rule="evenodd"/><path d="M987 660.5C987 658.015 989.015 656 991.5 656 993.985 656 996 658.015 996 660.5 996 662.985 993.985 665 991.5 665 989.015 665 987 662.985 987 660.5Z" fill="#DC267F" fill-rule="evenodd"/><path d="M987 644C987 641.791 989.015 640 991.5 640 993.985 640 996 641.791 996 644 996 646.209 993.985 648 991.5 648 989.015 648 987 646.209 987 644Z" fill="#DC267F" fill-rule="evenodd"/><rect x="984.5" y="470.5" width="15" height="200" stroke="#000000" stroke-width="1.33333" stroke-miterlimit="8" fill="none"/><path d="M1026.5 524C1028.99 524 1031 526.015 1031 528.5 1031 530.985 1028.99 533 1026.5 533 1024.01 533 1022 530.985 1022 528.5 1022 526.015 1024.01 524 1026.5 524Z" fill="#DC267F" fill-rule="evenodd"/><path d="M1026.5 475C1028.99 475 1031 477.015 1031 479.5 1031 481.985 1028.99 484 1026.5 484 1024.01 484 1022 481.985 1022 479.5 1022 477.015 1024.01 475 1026.5 475Z" fill="#DC267F" fill-rule="evenodd"/><path d="M1022 512.5C1022 510.015 1024.01 508 1026.5 508 1028.99 508 1031 510.015 1031 512.5 1031 514.985 1028.99 517 1026.5 517 1024.01 517 1022 514.985 1022 512.5Z" fill="#DC267F" fill-rule="evenodd"/><path d="M1022 496C1022 493.791 1024.01 492 1026.5 492 1028.99 492 1031 493.791 1031 496 1031 498.209 1028.99 500 1026.5 500 1024.01 500 1022 498.209 1022 496Z" fill="#DC267F" fill-rule="evenodd"/><path d="M1022 561.5C1022 559.015 1024.01 557 1026.5 557 1028.99 557 1031 559.015 1031 561.5 1031 563.985 1028.99 566 1026.5 566 1024.01 566 1022 563.985 1022 561.5Z" fill="#DC267F" fill-rule="evenodd"/><path d="M1022 545.5C1022 543.015 1024.01 541 1026.5 541 1028.99 541 1031 543.015 1031 545.5 1031 547.985 1028.99 550 1026.5 550 1024.01 550 1022 547.985 1022 545.5Z" fill="#DC267F" fill-rule="evenodd"/><path d="M1026.5 623C1028.99 623 1031 625.015 1031 627.5 1031 629.985 1028.99 632 1026.5 632 1024.01 632 1022 629.985 1022 627.5 1022 625.015 1024.01 623 1026.5 623Z" fill="#DC267F" fill-rule="evenodd"/><path d="M1026.5 574C1028.99 574 1031 575.791 1031 578 1031 580.209 1028.99 582 1026.5 582 1024.01 582 1022 580.209 1022 578 1022 575.791 1024.01 574 1026.5 574Z" fill="#DC267F" fill-rule="evenodd"/><path d="M1022 611C1022 608.791 1024.01 607 1026.5 607 1028.99 607 1031 608.791 1031 611 1031 613.209 1028.99 615 1026.5 615 1024.01 615 1022 613.209 1022 611Z" fill="#DC267F" fill-rule="evenodd"/><path d="M1022 594.5C1022 592.015 1024.01 590 1026.5 590 1028.99 590 1031 592.015 1031 594.5 1031 596.985 1028.99 599 1026.5 599 1024.01 599 1022 596.985 1022 594.5Z" fill="#DC267F" fill-rule="evenodd"/><path d="M1022 660.5C1022 658.015 1024.01 656 1026.5 656 1028.99 656 1031 658.015 1031 660.5 1031 662.985 1028.99 665 1026.5 665 1024.01 665 1022 662.985 1022 660.5Z" fill="#DC267F" fill-rule="evenodd"/><path d="M1022 644C1022 641.791 1024.01 640 1026.5 640 1028.99 640 1031 641.791 1031 644 1031 646.209 1028.99 648 1026.5 648 1024.01 648 1022 646.209 1022 644Z" fill="#DC267F" fill-rule="evenodd"/><rect x="1019.5" y="470.5" width="14.9999" height="200" stroke="#000000" stroke-width="1.33333" stroke-miterlimit="8" fill="none"/><text font-family="Arial,Arial_MSFontService,sans-serif" font-weight="400" font-size="13" transform="translate(795.92 401)">`face_node_connectivity<tspan font-size="13" x="142.833" y="0">`</tspan></text><path d="M697.491 410.08 704.824 410.08 704.824 425.08 697.491 425.08Z" fill="#C0C0C0" fill-rule="evenodd"/><text font-family="Consolas,Consolas_MSFontService,sans-serif" font-weight="700" font-size="13" transform="translate(697.491 422)">x</text><path d="M732.177 410.08 739.51 410.08 739.51 425.08 732.177 425.08Z" fill="#C0C0C0" fill-rule="evenodd"/><text font-family="Consolas,Consolas_MSFontService,sans-serif" font-weight="700" font-size="13" transform="translate(732.177 422)">y<tspan font-family="Arial,Arial_MSFontService,sans-serif" font-weight="400" font-size="13" x="-71.937" y="-21">`</tspan><tspan font-family="Arial,Arial_MSFontService,sans-serif" font-weight="400" font-size="13" x="-67.437" y="-21">node_coordinates</tspan><tspan font-family="Arial,Arial_MSFontService,sans-serif" font-weight="400" font-size="13" x="37.7297" y="-21">`</tspan></text><path d="M987.179 451.993 994.512 451.993 994.512 466.993 987.179 466.993Z" fill="#C0C0C0" fill-rule="evenodd"/><text font-family="Consolas,Consolas_MSFontService,sans-serif" font-weight="700" font-size="13" transform="translate(987.179 464)">x</text><path d="M1021.87 451.993 1029.2 451.993 1029.2 466.993 1021.87 466.993Z" fill="#C0C0C0" fill-rule="evenodd"/><text font-family="Consolas,Consolas_MSFontService,sans-serif" font-weight="700" font-size="13" transform="translate(1021.87 464)">y<tspan font-family="Arial,Arial_MSFontService,sans-serif" font-weight="400" font-size="13" x="-68.1462" y="-22">`</tspan><tspan font-family="Arial,Arial_MSFontService,sans-serif" font-weight="400" font-size="13" x="-63.6462" y="-22">face_coordinates</tspan><tspan font-family="Arial,Arial_MSFontService,sans-serif" font-weight="400" font-size="13" x="37.1871" y="-22">`</tspan><tspan font-size="13" x="-327.865" y="230">15</tspan><tspan font-size="13" x="-293.263" y="230">15</tspan><tspan font-size="13" x="-171.599" y="241">12 </tspan>×<tspan font-size="13" x="-134.933" y="241">4</tspan><tspan font-size="13" x="-38.5712" y="222">12</tspan><tspan font-size="13" x="-2.50531" y="222">12</tspan></text></g></svg>