<svg width="361" height="332" xmlns="http://www.w3.org/2000/svg" xmlns:xlink="http://www.w3.org/1999/xlink" overflow="hidden"><defs><clipPath id="clip0"><rect x="759" y="16" width="361" height="332"/></clipPath></defs><g clip-path="url(#clip0)" transform="translate(-759 -16)"><path d="M0 0 26.2912 23.7015" stroke="#648FFF" stroke-width="1.33333" stroke-miterlimit="8" fill="#00B050" fill-rule="evenodd" transform="matrix(-1 0 0 1 1015.79 152.5)"/><path d="M1022.64 183.129 989.5 176.5" stroke="#648FFF" stroke-width="1.33333" stroke-miterlimit="8" fill="#00B050" fill-rule="evenodd"/><path d="M1015.5 152.5 1022.35 182.83" stroke="#648FFF" stroke-width="1.33333" stroke-miterlimit="8" fill="#00B050" fill-rule="evenodd"/><path d="M0 0 25.5503 23.7015" stroke="#648FFF" stroke-width="1.33333" stroke-miterlimit="8" fill="#00B050" fill-rule="evenodd" transform="matrix(-1 0 0 1 990.05 176.5)"/><path d="M977.275 209.85 964.5 199.5" stroke="#648FFF" stroke-width="1.33333" stroke-miterlimit="8" fill="#00B050" fill-rule="evenodd"/><path d="M0 0 45.5472 27.4225" stroke="#648FFF" stroke-width="1.33333" stroke-miterlimit="8" fill="#00B050" fill-rule="evenodd" transform="matrix(-1 0 0 1 1022.05 182.5)"/><path d="M1041.94 189.129 1022.5 182.5" stroke="#648FFF" stroke-width="1.33333" stroke-miterlimit="8" fill="#00B050" fill-rule="evenodd"/><path d="M0 0 23.4889 21.7936" stroke="#648FFF" stroke-width="1.33333" stroke-miterlimit="8" fill="#00B050" fill-rule="evenodd" transform="matrix(-1 0 0 1 1064.99 167.5)"/><path d="M1048.5 143.5 1065.14 167.665" stroke="#648FFF" stroke-width="1.33333" stroke-miterlimit="8" fill="#00B050" fill-rule="evenodd"/><path d="M0 0 33.1427 9" stroke="#648FFF" stroke-width="1.33333" stroke-miterlimit="8" fill="#00B050" fill-rule="evenodd" transform="matrix(-1 0 0 1 1048.64 143.5)"/><path d="M1041.5 189.5 1060.71 206.573" stroke="#648FFF" stroke-width="1.33333" stroke-miterlimit="8" fill="#00B050" fill-rule="evenodd"/><path d="M0 0 7.46404 25.5145" stroke="#648FFF" stroke-width="1.33333" stroke-miterlimit="8" fill="#00B050" fill-rule="evenodd" transform="matrix(-1 0 0 1 1060.96 206.5)"/><path d="M0 0 34.6102 4.49554" stroke="#648FFF" stroke-width="1.33333" stroke-miterlimit="8" fill="#00B050" fill-rule="evenodd" transform="matrix(-1 0 0 1 1053.11 232.5)"/><path d="M1018.91 236.789 977.5 210.5" stroke="#648FFF" stroke-width="1.33333" stroke-miterlimit="8" fill="#00B050" fill-rule="evenodd"/><path d="M1065.5 167.5 1086.22 185.979" stroke="#648FFF" stroke-width="1.33333" stroke-miterlimit="8" fill="#00B050" fill-rule="evenodd"/><path d="M0 0 25 21.6931" stroke="#648FFF" stroke-width="1.33333" stroke-miterlimit="8" fill="#00B050" fill-rule="evenodd" transform="matrix(-1 0 0 1 1085.5 184.5)"/><path d="M1084.5 185.5 1114.34 201.608" stroke="#648FFF" stroke-width="1.33333" stroke-miterlimit="8" fill="#00B050" fill-rule="evenodd"/><path d="M1114.5 201.5 1115.67 226.608" stroke="#648FFF" stroke-width="1.33333" stroke-miterlimit="8" fill="#00B050" fill-rule="evenodd"/><path d="M0 0 61.9642 5.10845" stroke="#648FFF" stroke-width="1.33333" stroke-miterlimit="8" fill="#00B050" fill-rule="evenodd" transform="matrix(-1 0 0 1 1115.46 226.5)"/><path d="M964.5 200.5 976.442 236.065" stroke="#648FFF" stroke-width="1.33333" stroke-miterlimit="8" fill="#00B050" fill-rule="evenodd"/><path d="M0 0 42.5843 0.000104987" stroke="#648FFF" stroke-width="1.33333" stroke-miterlimit="8" fill="#00B050" fill-rule="evenodd" transform="matrix(-1 0 0 1 1019.08 236.5)"/><path d="M976.5 236.5 980.408 262.532" stroke="#648FFF" stroke-width="1.33333" stroke-miterlimit="8" fill="#00B050" fill-rule="evenodd"/><path d="M0 0 27.7494 10.5188" stroke="#648FFF" stroke-width="1.33333" stroke-miterlimit="8" fill="#00B050" fill-rule="evenodd" transform="matrix(-1 0 0 1 1008.25 251.5)"/><path d="M0 0 10.9263 15.7346" stroke="#648FFF" stroke-width="1.33333" stroke-miterlimit="8" fill="#00B050" fill-rule="evenodd" transform="matrix(1 0 0 -1 1007.5 251.235)"/><path d="M1051.22 255.71 1008.5 251.5" stroke="#648FFF" stroke-width="1.33333" stroke-miterlimit="8" fill="#00B050" fill-rule="evenodd"/><path d="M0 0 3.78226 24.2218" stroke="#648FFF" stroke-width="1.33333" stroke-miterlimit="8" fill="#00B050" fill-rule="evenodd" transform="matrix(-1 0 0 1 1054.28 231.5)"/><path d="M1050.5 255.5 1062.96 263.717" stroke="#648FFF" stroke-width="1.33333" stroke-miterlimit="8" fill="#00B050" fill-rule="evenodd"/><path d="M0 0 1.07045 24.0089" stroke="#648FFF" stroke-width="1.33333" stroke-miterlimit="8" fill="#00B050" fill-rule="evenodd" transform="matrix(-1 0 0 1 1062.57 263.5)"/><path d="M0 0 53.4299 61.709" stroke="#648FFF" stroke-width="1.33333" stroke-miterlimit="8" fill="#00B050" fill-rule="evenodd" transform="matrix(1 0 0 -1 1061.5 288.209)"/><path d="M1062.32 287.695 980.5 262.5" stroke="#648FFF" stroke-width="1.33333" stroke-miterlimit="8" fill="#00B050" fill-rule="evenodd"/><path d="M980.5 262.5 994.237 286.426" stroke="#648FFF" stroke-width="1.33333" stroke-miterlimit="8" fill="#00B050" fill-rule="evenodd"/><path d="M1029.55 295.003 993.5 285.5" stroke="#648FFF" stroke-width="1.33333" stroke-miterlimit="8" fill="#00B050" fill-rule="evenodd"/><path d="M0 0 32.3182 7.90908" stroke="#648FFF" stroke-width="1.33333" stroke-miterlimit="8" fill="#00B050" fill-rule="evenodd" transform="matrix(1 0 0 -1 1030.5 295.409)"/><path d="M1044 140.403 1046.24 138.322 1048.5 140.753 1050.76 138.322 1053 140.403 1050.59 143 1053 145.597 1050.76 147.678 1048.5 145.247 1046.24 147.678 1044 145.597 1046.41 143Z" fill="#DC267F" fill-rule="evenodd"/><path d="M1011.04 150.203 1013.2 148.041 1015.5 150.338 1017.8 148.041 1019.96 150.203 1017.66 152.5 1019.96 154.797 1017.8 156.959 1015.5 154.662 1013.2 156.959 1011.04 154.797 1013.34 152.5Z" fill="#DC267F" fill-rule="evenodd"/><path d="M985.322 173.243 987.403 171.002 990 173.414 992.597 171.002 994.678 173.243 992.247 175.5 994.678 177.757 992.597 179.998 990 177.586 987.403 179.998 985.322 177.757 987.753 175.5Z" fill="#DC267F" fill-rule="evenodd"/><path d="M960.041 197.203 962.203 195.041 964.5 197.338 966.797 195.041 968.959 197.203 966.662 199.5 968.959 201.797 966.797 203.959 964.5 201.662 962.203 203.959 960.041 201.797 962.338 199.5Z" fill="#DC267F" fill-rule="evenodd"/><path d="M1017 179.403 1019.24 177.322 1021.5 179.753 1023.76 177.322 1026 179.403 1023.59 182 1026 184.597 1023.76 186.678 1021.5 184.247 1019.24 186.678 1017 184.597 1019.41 182Z" fill="#DC267F" fill-rule="evenodd"/><path d="M973.002 206.403 975.243 204.322 977.5 206.753 979.757 204.322 981.998 206.403 979.586 209 981.998 211.597 979.757 213.678 977.5 211.247 975.243 213.678 973.002 211.597 975.414 209Z" fill="#DC267F" fill-rule="evenodd"/><path d="M1013.04 233.203 1015.2 231.041 1017.5 233.338 1019.8 231.041 1021.96 233.203 1019.66 235.5 1021.96 237.797 1019.8 239.959 1017.5 237.662 1015.2 239.959 1013.04 237.797 1015.34 235.5Z" fill="#DC267F" fill-rule="evenodd"/><path d="M1038.32 186.243 1040.4 184.002 1043 186.414 1045.6 184.002 1047.68 186.243 1045.25 188.5 1047.68 190.757 1045.6 192.998 1043 190.586 1040.4 192.998 1038.32 190.757 1040.75 188.5Z" fill="#DC267F" fill-rule="evenodd"/><path d="M1056.04 203.203 1058.2 201.041 1060.5 203.338 1062.8 201.041 1064.96 203.203 1062.66 205.5 1064.96 207.797 1062.8 209.959 1060.5 207.662 1058.2 209.959 1056.04 207.797 1058.34 205.5Z" fill="#DC267F" fill-rule="evenodd"/><path d="M1060 164.403 1062.24 162.322 1064.5 164.753 1066.76 162.322 1069 164.403 1066.59 167 1069 169.597 1066.76 171.678 1064.5 169.247 1062.24 171.678 1060 169.597 1062.41 167Z" fill="#DC267F" fill-rule="evenodd"/><path d="M1080.04 182.203 1082.2 180.041 1084.5 182.338 1086.8 180.041 1088.96 182.203 1086.66 184.5 1088.96 186.797 1086.8 188.959 1084.5 186.662 1082.2 188.959 1080.04 186.797 1082.34 184.5Z" fill="#DC267F" fill-rule="evenodd"/><path d="M1050 228.403 1052.24 226.322 1054.5 228.753 1056.76 226.322 1059 228.403 1056.59 231 1059 233.597 1056.76 235.678 1054.5 233.247 1052.24 235.678 1050 233.597 1052.41 231Z" fill="#DC267F" fill-rule="evenodd"/><path d="M971.041 233.203 973.203 231.041 975.5 233.338 977.797 231.041 979.959 233.203 977.662 235.5 979.959 237.797 977.797 239.959 975.5 237.662 973.203 239.959 971.041 237.797 973.338 235.5Z" fill="#DC267F" fill-rule="evenodd"/><path d="M975.322 259.243 977.403 257.002 980 259.414 982.597 257.002 984.678 259.243 982.247 261.5 984.678 263.757 982.597 265.998 980 263.586 977.403 265.998 975.322 263.757 977.753 261.5Z" fill="#DC267F" fill-rule="evenodd"/><path d="M1003.04 249.203 1005.2 247.041 1007.5 249.338 1009.8 247.041 1011.96 249.203 1009.66 251.5 1011.96 253.797 1009.8 255.959 1007.5 253.662 1005.2 255.959 1003.04 253.797 1005.34 251.5Z" fill="#DC267F" fill-rule="evenodd"/><path d="M1046.04 252.203 1048.2 250.041 1050.5 252.338 1052.8 250.041 1054.96 252.203 1052.66 254.5 1054.96 256.797 1052.8 258.959 1050.5 256.662 1048.2 258.959 1046.04 256.797 1048.34 254.5Z" fill="#DC267F" fill-rule="evenodd"/><path d="M1110.04 223.203 1112.2 221.041 1114.5 223.338 1116.8 221.041 1118.96 223.203 1116.66 225.5 1118.96 227.797 1116.8 229.959 1114.5 227.662 1112.2 229.959 1110.04 227.797 1112.34 225.5Z" fill="#DC267F" fill-rule="evenodd"/><path d="M1109.04 198.203 1111.2 196.041 1113.5 198.338 1115.8 196.041 1117.96 198.203 1115.66 200.5 1117.96 202.797 1115.8 204.959 1113.5 202.662 1111.2 204.959 1109.04 202.797 1111.34 200.5Z" fill="#DC267F" fill-rule="evenodd"/><path d="M1058.04 261.203 1060.2 259.041 1062.5 261.338 1064.8 259.041 1066.96 261.203 1064.66 263.5 1066.96 265.797 1064.8 267.959 1062.5 265.662 1060.2 267.959 1058.04 265.797 1060.34 263.5Z" fill="#DC267F" fill-rule="evenodd"/><path d="M1057.32 284.243 1059.4 282.002 1062 284.414 1064.6 282.002 1066.68 284.243 1064.25 286.5 1066.68 288.757 1064.6 290.998 1062 288.586 1059.4 290.998 1057.32 288.757 1059.75 286.5Z" fill="#DC267F" fill-rule="evenodd"/><path d="M1025.04 292.203 1027.2 290.041 1029.5 292.338 1031.8 290.041 1033.96 292.203 1031.66 294.5 1033.96 296.797 1031.8 298.959 1029.5 296.662 1027.2 298.959 1025.04 296.797 1027.34 294.5Z" fill="#DC267F" fill-rule="evenodd"/><path d="M989.002 282.403 991.243 280.322 993.5 282.753 995.757 280.322 997.998 282.403 995.586 285 997.998 287.597 995.757 289.678 993.5 287.247 991.243 289.678 989.002 287.597 991.414 285Z" fill="#DC267F" fill-rule="evenodd"/><rect x="786.5" y="46.5001" width="116" height="273" stroke="#000000" stroke-width="1.33333" stroke-miterlimit="8" fill="none"/><rect x="793.5" y="52.5001" width="101" height="17" stroke="#000000" stroke-width="1.33333" stroke-miterlimit="8" fill="none"/><path d="M847 60.5C847 58.0147 849.015 56 851.5 56 853.985 56 856 58.0147 856 60.5 856 62.9853 853.985 65 851.5 65 849.015 65 847 62.9853 847 60.5Z" fill="#648FFF" fill-rule="evenodd"/><path d="M798 60.5C798 58.0147 800.015 56 802.5 56 804.985 56 807 58.0147 807 60.5 807 62.9853 804.985 65 802.5 65 800.015 65 798 62.9853 798 60.5Z" fill="#648FFF" fill-rule="evenodd"/><path d="M835.5 65C833.015 65 831 62.9853 831 60.5 831 58.0147 833.015 56 835.5 56 837.985 56 840 58.0147 840 60.5 840 62.9853 837.985 65 835.5 65Z" fill="#648FFF" fill-rule="evenodd"/><path d="M819 64.9999C816.791 64.9999 815 62.9852 815 60.4999 815 58.0147 816.791 55.9999 819 55.9999 821.209 55.9999 823 58.0147 823 60.4999 823 62.9852 821.209 64.9999 819 64.9999Z" fill="#648FFF" fill-rule="evenodd"/><path d="M864 60.5C864 58.0147 866.015 56 868.5 56 870.985 56 873 58.0147 873 60.5 873 62.9853 870.985 65 868.5 65 866.015 65 864 62.9853 864 60.5Z" fill-rule="evenodd"/><path d="M880 60.5C880 58.0147 882.015 56 884.5 56 886.985 56 889 58.0147 889 60.5 889 62.9853 886.985 65 884.5 65 882.015 65 880 62.9853 880 60.5Z" fill-rule="evenodd"/><rect x="793.5" y="74.5001" width="101" height="17" stroke="#000000" stroke-width="1.33333" stroke-miterlimit="8" fill="none"/><path d="M847 82.5C847 80.0147 849.015 78 851.5 78 853.985 78 856 80.0147 856 82.5 856 84.9853 853.985 87 851.5 87 849.015 87 847 84.9853 847 82.5Z" fill-rule="evenodd"/><path d="M798 82.5C798 80.0147 800.015 78 802.5 78 804.985 78 807 80.0147 807 82.5 807 84.9853 804.985 87 802.5 87 800.015 87 798 84.9853 798 82.5Z" fill="#648FFF" fill-rule="evenodd"/><path d="M835.5 87C833.015 87 831 84.9853 831 82.5 831 80.0147 833.015 78 835.5 78 837.985 78 840 80.0147 840 82.5 840 84.9853 837.985 87 835.5 87Z" fill="#648FFF" fill-rule="evenodd"/><path d="M819 86.9999C816.791 86.9999 815 84.9852 815 82.4999 815 80.0147 816.791 77.9999 819 77.9999 821.209 77.9999 823 80.0147 823 82.4999 823 84.9852 821.209 86.9999 819 86.9999Z" fill="#648FFF" fill-rule="evenodd"/><path d="M864 82.5C864 80.0147 866.015 78 868.5 78 870.985 78 873 80.0147 873 82.5 873 84.9853 870.985 87 868.5 87 866.015 87 864 84.9853 864 82.5Z" fill-rule="evenodd"/><path d="M880 82.5C880 80.0147 882.015 78 884.5 78 886.985 78 889 80.0147 889 82.5 889 84.9853 886.985 87 884.5 87 882.015 87 880 84.9853 880 82.5Z" fill-rule="evenodd"/><rect x="793.5" y="96.5001" width="101" height="17" stroke="#000000" stroke-width="1.33333" stroke-miterlimit="8" fill="none"/><path d="M847 104.5C847 102.015 849.015 100 851.5 100 853.985 100 856 102.015 856 104.5 856 106.985 853.985 109 851.5 109 849.015 109 847 106.985 847 104.5Z" fill="#648FFF" fill-rule="evenodd"/><path d="M798 104.5C798 102.015 800.015 100 802.5 100 804.985 100 807 102.015 807 104.5 807 106.985 804.985 109 802.5 109 800.015 109 798 106.985 798 104.5Z" fill="#648FFF" fill-rule="evenodd"/><path d="M835.5 109C833.015 109 831 106.985 831 104.5 831 102.015 833.015 100 835.5 100 837.985 100 840 102.015 840 104.5 840 106.985 837.985 109 835.5 109Z" fill="#648FFF" fill-rule="evenodd"/><path d="M819 109C816.791 109 815 106.985 815 104.5 815 102.015 816.791 99.9999 819 99.9999 821.209 99.9999 823 102.015 823 104.5 823 106.985 821.209 109 819 109Z" fill="#648FFF" fill-rule="evenodd"/><path d="M864 104.5C864 102.015 866.015 100 868.5 100 870.985 100 873 102.015 873 104.5 873 106.985 870.985 109 868.5 109 866.015 109 864 106.985 864 104.5Z" fill="#648FFF" fill-rule="evenodd"/><path d="M880 104.5C880 102.015 882.015 100 884.5 100 886.985 100 889 102.015 889 104.5 889 106.985 886.985 109 884.5 109 882.015 109 880 106.985 880 104.5Z" fill-rule="evenodd"/><rect x="793.5" y="118.5" width="101" height="17" stroke="#000000" stroke-width="1.33333" stroke-miterlimit="8" fill="none"/><path d="M847 126.5C847 124.015 849.015 122 851.5 122 853.985 122 856 124.015 856 126.5 856 128.985 853.985 131 851.5 131 849.015 131 847 128.985 847 126.5Z" fill="#648FFF" fill-rule="evenodd"/><path d="M798 126.5C798 124.015 800.015 122 802.5 122 804.985 122 807 124.015 807 126.5 807 128.985 804.985 131 802.5 131 800.015 131 798 128.985 798 126.5Z" fill="#648FFF" fill-rule="evenodd"/><path d="M835.5 131C833.015 131 831 128.985 831 126.5 831 124.015 833.015 122 835.5 122 837.985 122 840 124.015 840 126.5 840 128.985 837.985 131 835.5 131Z" fill="#648FFF" fill-rule="evenodd"/><path d="M819 131C816.791 131 815 128.985 815 126.5 815 124.015 816.791 122 819 122 821.209 122 823 124.015 823 126.5 823 128.985 821.209 131 819 131Z" fill="#648FFF" fill-rule="evenodd"/><path d="M864 126.5C864 124.015 866.015 122 868.5 122 870.985 122 873 124.015 873 126.5 873 128.985 870.985 131 868.5 131 866.015 131 864 128.985 864 126.5Z" fill="#648FFF" fill-rule="evenodd"/><path d="M880 126.5C880 124.015 882.015 122 884.5 122 886.985 122 889 124.015 889 126.5 889 128.985 886.985 131 884.5 131 882.015 131 880 128.985 880 126.5Z" fill="#648FFF" fill-rule="evenodd"/><rect x="793.5" y="141.5" width="101" height="16" stroke="#000000" stroke-width="1.33333" stroke-miterlimit="8" fill="none"/><path d="M847 149C847 146.791 849.015 145 851.5 145 853.985 145 856 146.791 856 149 856 151.209 853.985 153 851.5 153 849.015 153 847 151.209 847 149Z" fill="#648FFF" fill-rule="evenodd"/><path d="M798 149C798 146.791 800.015 145 802.5 145 804.985 145 807 146.791 807 149 807 151.209 804.985 153 802.5 153 800.015 153 798 151.209 798 149Z" fill="#648FFF" fill-rule="evenodd"/><path d="M835.5 153C833.015 153 831 151.209 831 149 831 146.791 833.015 145 835.5 145 837.985 145 840 146.791 840 149 840 151.209 837.985 153 835.5 153Z" fill="#648FFF" fill-rule="evenodd"/><path d="M819 153C816.791 153 815 151.209 815 149 815 146.791 816.791 145 819 145 821.209 145 823 146.791 823 149 823 151.209 821.209 153 819 153Z" fill="#648FFF" fill-rule="evenodd"/><path d="M864 149C864 146.791 866.015 145 868.5 145 870.985 145 873 146.791 873 149 873 151.209 870.985 153 868.5 153 866.015 153 864 151.209 864 149Z" fill-rule="evenodd"/><path d="M880 149C880 146.791 882.015 145 884.5 145 886.985 145 889 146.791 889 149 889 151.209 886.985 153 884.5 153 882.015 153 880 151.209 880 149Z" fill-rule="evenodd"/><rect x="793.5" y="163.5" width="101" height="16" stroke="#000000" stroke-width="1.33333" stroke-miterlimit="8" fill="none"/><path d="M847 171C847 168.791 849.015 167 851.5 167 853.985 167 856 168.791 856 171 856 173.209 853.985 175 851.5 175 849.015 175 847 173.209 847 171Z" fill="#648FFF" fill-rule="evenodd"/><path d="M798 171C798 168.791 800.015 167 802.5 167 804.985 167 807 168.791 807 171 807 173.209 804.985 175 802.5 175 800.015 175 798 173.209 798 171Z" fill="#648FFF" fill-rule="evenodd"/><path d="M835.5 175C833.015 175 831 173.209 831 171 831 168.791 833.015 167 835.5 167 837.985 167 840 168.791 840 171 840 173.209 837.985 175 835.5 175Z" fill="#648FFF" fill-rule="evenodd"/><path d="M819 175C816.791 175 815 173.209 815 171 815 168.791 816.791 167 819 167 821.209 167 823 168.791 823 171 823 173.209 821.209 175 819 175Z" fill="#648FFF" fill-rule="evenodd"/><path d="M864 171C864 168.791 866.015 167 868.5 167 870.985 167 873 168.791 873 171 873 173.209 870.985 175 868.5 175 866.015 175 864 173.209 864 171Z" fill-rule="evenodd"/><path d="M880 171C880 168.791 882.015 167 884.5 167 886.985 167 889 168.791 889 171 889 173.209 886.985 175 884.5 175 882.015 175 880 173.209 880 171Z" fill-rule="evenodd"/><rect x="793.5" y="185.5" width="101" height="17" stroke="#000000" stroke-width="1.33333" stroke-miterlimit="8" fill="none"/><path d="M847 193.5C847 191.015 849.015 189 851.5 189 853.985 189 856 191.015 856 193.5 856 195.985 853.985 198 851.5 198 849.015 198 847 195.985 847 193.5Z" fill="#648FFF" fill-rule="evenodd"/><path d="M798 193.5C798 191.015 800.015 189 802.5 189 804.985 189 807 191.015 807 193.5 807 195.985 804.985 198 802.5 198 800.015 198 798 195.985 798 193.5Z" fill="#648FFF" fill-rule="evenodd"/><path d="M835.5 198C833.015 198 831 195.985 831 193.5 831 191.015 833.015 189 835.5 189 837.985 189 840 191.015 840 193.5 840 195.985 837.985 198 835.5 198Z" fill="#648FFF" fill-rule="evenodd"/><path d="M819 198C816.791 198 815 195.985 815 193.5 815 191.015 816.791 189 819 189 821.209 189 823 191.015 823 193.5 823 195.985 821.209 198 819 198Z" fill="#648FFF" fill-rule="evenodd"/><path d="M864 193.5C864 191.015 866.015 189 868.5 189 870.985 189 873 191.015 873 193.5 873 195.985 870.985 198 868.5 198 866.015 198 864 195.985 864 193.5Z" fill="#648FFF" fill-rule="evenodd"/><path d="M880 193.5C880 191.015 882.015 189 884.5 189 886.985 189 889 191.015 889 193.5 889 195.985 886.985 198 884.5 198 882.015 198 880 195.985 880 193.5Z" fill-rule="evenodd"/><rect x="793.5" y="207.5" width="101" height="17" stroke="#000000" stroke-width="1.33333" stroke-miterlimit="8" fill="none"/><path d="M847 215.5C847 213.015 849.015 211 851.5 211 853.985 211 856 213.015 856 215.5 856 217.985 853.985 220 851.5 220 849.015 220 847 217.985 847 215.5Z" fill="#648FFF" fill-rule="evenodd"/><path d="M798 215.5C798 213.015 800.015 211 802.5 211 804.985 211 807 213.015 807 215.5 807 217.985 804.985 220 802.5 220 800.015 220 798 217.985 798 215.5Z" fill="#648FFF" fill-rule="evenodd"/><path d="M835.5 220C833.015 220 831 217.985 831 215.5 831 213.015 833.015 211 835.5 211 837.985 211 840 213.015 840 215.5 840 217.985 837.985 220 835.5 220Z" fill="#648FFF" fill-rule="evenodd"/><path d="M819 220C816.791 220 815 217.985 815 215.5 815 213.015 816.791 211 819 211 821.209 211 823 213.015 823 215.5 823 217.985 821.209 220 819 220Z" fill="#648FFF" fill-rule="evenodd"/><path d="M864 215.5C864 213.015 866.015 211 868.5 211 870.985 211 873 213.015 873 215.5 873 217.985 870.985 220 868.5 220 866.015 220 864 217.985 864 215.5Z" fill-rule="evenodd"/><path d="M880 215.5C880 213.015 882.015 211 884.5 211 886.985 211 889 213.015 889 215.5 889 217.985 886.985 220 884.5 220 882.015 220 880 217.985 880 215.5Z" fill-rule="evenodd"/><rect x="793.5" y="229.5" width="101" height="17" stroke="#000000" stroke-width="1.33333" stroke-miterlimit="8" fill="none"/><path d="M847 237.5C847 235.015 849.015 233 851.5 233 853.985 233 856 235.015 856 237.5 856 239.985 853.985 242 851.5 242 849.015 242 847 239.985 847 237.5Z" fill="#648FFF" fill-rule="evenodd"/><path d="M798 237.5C798 235.015 800.015 233 802.5 233 804.985 233 807 235.015 807 237.5 807 239.985 804.985 242 802.5 242 800.015 242 798 239.985 798 237.5Z" fill="#648FFF" fill-rule="evenodd"/><path d="M835.5 242C833.015 242 831 239.985 831 237.5 831 235.015 833.015 233 835.5 233 837.985 233 840 235.015 840 237.5 840 239.985 837.985 242 835.5 242Z" fill="#648FFF" fill-rule="evenodd"/><path d="M819 242C816.791 242 815 239.985 815 237.5 815 235.015 816.791 233 819 233 821.209 233 823 235.015 823 237.5 823 239.985 821.209 242 819 242Z" fill="#648FFF" fill-rule="evenodd"/><path d="M864 237.5C864 235.015 866.015 233 868.5 233 870.985 233 873 235.015 873 237.5 873 239.985 870.985 242 868.5 242 866.015 242 864 239.985 864 237.5Z" fill-rule="evenodd"/><path d="M880 237.5C880 235.015 882.015 233 884.5 233 886.985 233 889 235.015 889 237.5 889 239.985 886.985 242 884.5 242 882.015 242 880 239.985 880 237.5Z" fill-rule="evenodd"/><rect x="793.5" y="251.5" width="101" height="17" stroke="#000000" stroke-width="1.33333" stroke-miterlimit="8" fill="none"/><path d="M847 259.5C847 257.015 849.015 255 851.5 255 853.985 255 856 257.015 856 259.5 856 261.985 853.985 264 851.5 264 849.015 264 847 261.985 847 259.5Z" fill="#648FFF" fill-rule="evenodd"/><path d="M798 259.5C798 257.015 800.015 255 802.5 255 804.985 255 807 257.015 807 259.5 807 261.985 804.985 264 802.5 264 800.015 264 798 261.985 798 259.5Z" fill="#648FFF" fill-rule="evenodd"/><path d="M835.5 264C833.015 264 831 261.985 831 259.5 831 257.015 833.015 255 835.5 255 837.985 255 840 257.015 840 259.5 840 261.985 837.985 264 835.5 264Z" fill="#648FFF" fill-rule="evenodd"/><path d="M819 264C816.791 264 815 261.985 815 259.5 815 257.015 816.791 255 819 255 821.209 255 823 257.015 823 259.5 823 261.985 821.209 264 819 264Z" fill="#648FFF" fill-rule="evenodd"/><path d="M864 259.5C864 257.015 866.015 255 868.5 255 870.985 255 873 257.015 873 259.5 873 261.985 870.985 264 868.5 264 866.015 264 864 261.985 864 259.5Z" fill="#648FFF" fill-rule="evenodd"/><path d="M880 259.5C880 257.015 882.015 255 884.5 255 886.985 255 889 257.015 889 259.5 889 261.985 886.985 264 884.5 264 882.015 264 880 261.985 880 259.5Z" fill-rule="evenodd"/><rect x="793.5" y="274.5" width="101" height="16" stroke="#000000" stroke-width="1.33333" stroke-miterlimit="8" fill="none"/><path d="M847 282C847 279.791 849.015 278 851.5 278 853.985 278 856 279.791 856 282 856 284.209 853.985 286 851.5 286 849.015 286 847 284.209 847 282Z" fill="#648FFF" fill-rule="evenodd"/><path d="M798 282C798 279.791 800.015 278 802.5 278 804.985 278 807 279.791 807 282 807 284.209 804.985 286 802.5 286 800.015 286 798 284.209 798 282Z" fill="#648FFF" fill-rule="evenodd"/><path d="M835.5 286C833.015 286 831 284.209 831 282 831 279.791 833.015 278 835.5 278 837.985 278 840 279.791 840 282 840 284.209 837.985 286 835.5 286Z" fill="#648FFF" fill-rule="evenodd"/><path d="M819 286C816.791 286 815 284.209 815 282 815 279.791 816.791 278 819 278 821.209 278 823 279.791 823 282 823 284.209 821.209 286 819 286Z" fill="#648FFF" fill-rule="evenodd"/><path d="M864 282C864 279.791 866.015 278 868.5 278 870.985 278 873 279.791 873 282 873 284.209 870.985 286 868.5 286 866.015 286 864 284.209 864 282Z" fill="#648FFF" fill-rule="evenodd"/><path d="M880 282C880 279.791 882.015 278 884.5 278 886.985 278 889 279.791 889 282 889 284.209 886.985 286 884.5 286 882.015 286 880 284.209 880 282Z" fill-rule="evenodd"/><rect x="793.5" y="296.5" width="101" height="17" stroke="#000000" stroke-width="1.33333" stroke-miterlimit="8" fill="none"/><path d="M847 304C847 301.791 849.015 300 851.5 300 853.985 300 856 301.791 856 304 856 306.209 853.985 308 851.5 308 849.015 308 847 306.209 847 304Z" fill="#648FFF" fill-rule="evenodd"/><path d="M798 304C798 301.791 800.015 300 802.5 300 804.985 300 807 301.791 807 304 807 306.209 804.985 308 802.5 308 800.015 308 798 306.209 798 304Z" fill="#648FFF" fill-rule="evenodd"/><path d="M835.5 308C833.015 308 831 306.209 831 304 831 301.791 833.015 300 835.5 300 837.985 300 840 301.791 840 304 840 306.209 837.985 308 835.5 308Z" fill="#648FFF" fill-rule="evenodd"/><path d="M819 308C816.791 308 815 306.209 815 304 815 301.791 816.791 300 819 300 821.209 300 823 301.791 823 304 823 306.209 821.209 308 819 308Z" fill="#648FFF" fill-rule="evenodd"/><path d="M864 304C864 301.791 866.015 300 868.5 300 870.985 300 873 301.791 873 304 873 306.209 870.985 308 868.5 308 866.015 308 864 306.209 864 304Z" fill-rule="evenodd"/><path d="M880 304C880 301.791 882.015 300 884.5 300 886.985 300 889 301.791 889 304 889 306.209 886.985 308 884.5 308 882.015 308 880 306.209 880 304Z" fill-rule="evenodd"/><text font-family="Arial,Arial_MSFontService,sans-serif" font-weight="400" font-size="13" transform="translate(769.942 34)">`face_node_connectivity<tspan font-size="13" x="142.833" y="0">`</tspan><tspan font-family="Consolas,Consolas_MSFontService,sans-serif" font-weight="700" font-size="13" x="52.9962" y="302">12 </tspan><tspan font-family="Consolas,Consolas_MSFontService,sans-serif" font-weight="700" font-size="13" x="74.9962" y="302">×</tspan><tspan font-family="Consolas,Consolas_MSFontService,sans-serif" font-weight="700" font-size="13" x="89.6628" y="302">6</tspan></text></g></svg>