<svg width="318" height="332" xmlns="http://www.w3.org/2000/svg" xmlns:xlink="http://www.w3.org/1999/xlink" overflow="hidden"><defs><clipPath id="clip0"><rect x="30" y="382" width="318" height="332"/></clipPath></defs><g clip-path="url(#clip0)" transform="translate(-30 -382)"><path d="M0 0 42.5974 5.2736" stroke="#648FFF" stroke-width="1.33333" stroke-miterlimit="8" fill="#00B050" fill-rule="evenodd" transform="matrix(-1 0 0 1 239.097 564.5)"/><path d="M0 0 9.74478 25.0001" stroke="#648FFF" stroke-width="1.33333" stroke-miterlimit="8" fill="#00B050" fill-rule="evenodd" transform="matrix(-1 0 0 1 249.245 539.5)"/><path d="M0 0 42.2606 0.000104987" stroke="#648FFF" stroke-width="1.33333" stroke-miterlimit="8" fill="#00B050" fill-rule="evenodd" transform="matrix(-1 0 0 1 248.761 539.5)"/><path d="M0 0 10.0817 30.2737" stroke="#648FFF" stroke-width="1.33333" stroke-miterlimit="8" fill="#00B050" fill-rule="evenodd" transform="matrix(1 0 0 -1 196.5 569.774)"/><path d="M0 0 41.1246 10.1226" stroke="#648FFF" stroke-width="1.33333" stroke-miterlimit="8" fill="#00B050" fill-rule="evenodd" transform="matrix(-1 0 0 1 290.625 529.5)"/><path d="M289.725 528.575 281.5 510.5" stroke="#648FFF" stroke-width="1.33333" stroke-miterlimit="8" fill="#00B050" fill-rule="evenodd"/><path d="M281.5 510.5 314.4 510.543" stroke="#648FFF" stroke-width="1.33333" stroke-miterlimit="8" fill="#00B050" fill-rule="evenodd"/><path d="M314.5 510.5 340.695 533.679" stroke="#648FFF" stroke-width="1.33333" stroke-miterlimit="8" fill="#00B050" fill-rule="evenodd"/><path d="M0 0 21.8569 17.7736" stroke="#648FFF" stroke-width="1.33333" stroke-miterlimit="8" fill="#00B050" fill-rule="evenodd" transform="matrix(-1 0 0 1 341.357 533.5)"/><path d="M318.95 551.939 302.5 544.5" stroke="#648FFF" stroke-width="1.33333" stroke-miterlimit="8" fill="#00B050" fill-rule="evenodd"/><path d="M0 0 12.1118 20.4574" stroke="#648FFF" stroke-width="1.33333" stroke-miterlimit="8" fill="#00B050" fill-rule="evenodd" transform="matrix(1 0 0 -1 302.5 543.957)"/><path d="M314.5 523.5 340.695 533.623" stroke="#648FFF" stroke-width="1.33333" stroke-miterlimit="8" fill="#00B050" fill-rule="evenodd"/><path d="M192.041 566.203 194.203 564.041 196.5 566.338 198.797 564.041 200.959 566.203 198.662 568.5 200.959 570.797 198.797 572.959 196.5 570.662 194.203 572.959 192.041 570.797 194.338 568.5Z" fill="#DC267F" fill-rule="evenodd"/><path d="M234.041 561.203 236.203 559.041 238.5 561.338 240.797 559.041 242.959 561.203 240.662 563.5 242.959 565.797 240.797 567.959 238.5 565.662 236.203 567.959 234.041 565.797 236.338 563.5Z" fill="#DC267F" fill-rule="evenodd"/><path d="M285.041 526.203 287.203 524.041 289.5 526.338 291.797 524.041 293.959 526.203 291.662 528.5 293.959 530.797 291.797 532.959 289.5 530.662 287.203 532.959 285.041 530.797 287.338 528.5Z" fill="#DC267F" fill-rule="evenodd"/><path d="M277.041 508.203 279.203 506.041 281.5 508.338 283.797 506.041 285.959 508.203 283.662 510.5 285.959 512.797 283.797 514.959 281.5 512.662 279.203 514.959 277.041 512.797 279.338 510.5Z" fill="#DC267F" fill-rule="evenodd"/><path d="M309.322 508.243 311.403 506.002 314 508.414 316.597 506.002 318.678 508.243 316.247 510.5 318.678 512.757 316.597 514.998 314 512.586 311.403 514.998 309.322 512.757 311.753 510.5Z" fill="#DC267F" fill-rule="evenodd"/><path d="M336.002 530.403 338.243 528.322 340.5 530.753 342.757 528.322 344.998 530.403 342.586 533 344.998 535.597 342.757 537.678 340.5 535.247 338.243 537.678 336.002 535.597 338.414 533Z" fill="#DC267F" fill-rule="evenodd"/><path d="M310.322 521.243 312.403 519.002 315 521.414 317.597 519.002 319.678 521.243 317.247 523.5 319.678 525.757 317.597 527.998 315 525.586 312.403 527.998 310.322 525.757 312.753 523.5Z" fill="#DC267F" fill-rule="evenodd"/><path d="M298.041 541.203 300.203 539.041 302.5 541.338 304.797 539.041 306.959 541.203 304.662 543.5 306.959 545.797 304.797 547.959 302.5 545.662 300.203 547.959 298.041 545.797 300.338 543.5Z" fill="#DC267F" fill-rule="evenodd"/><path d="M315.041 548.203 317.203 546.041 319.5 548.338 321.797 546.041 323.959 548.203 321.662 550.5 323.959 552.797 321.797 554.959 319.5 552.662 317.203 554.959 315.041 552.797 317.338 550.5Z" fill="#DC267F" fill-rule="evenodd"/><path d="M202.041 536.203 204.203 534.041 206.5 536.338 208.797 534.041 210.959 536.203 208.662 538.5 210.959 540.797 208.797 542.959 206.5 540.662 204.203 542.959 202.041 540.797 204.338 538.5Z" fill="#DC267F" fill-rule="evenodd"/><path d="M243.322 536.243 245.403 534.002 248 536.414 250.597 534.002 252.678 536.243 250.247 538.5 252.678 540.757 250.597 542.998 248 540.586 245.403 542.998 243.322 540.757 245.753 538.5Z" fill="#DC267F" fill-rule="evenodd"/><rect x="91.5001" y="413.5" width="51" height="273" stroke="#000000" stroke-width="1.33333" stroke-miterlimit="8" fill="none"/><path d="M103 427.5C103 425.015 104.791 423 107 423 109.209 423 111 425.015 111 427.5 111 429.985 109.209 432 107 432 104.791 432 103 429.985 103 427.5Z" fill="#648FFF" fill-rule="evenodd"/><path d="M123.5 432C121.015 432 119 429.985 119 427.5 119 425.015 121.015 423 123.5 423 125.985 423 128 425.015 128 427.5 128 429.985 125.985 432 123.5 432Z" fill="#648FFF" fill-rule="evenodd"/><rect x="97.5001" y="419.5" width="37" height="17" stroke="#000000" stroke-width="1.33333" stroke-miterlimit="8" fill="none"/><path d="M103 671.5C103 669.015 104.791 667 107 667 109.209 667 111 669.015 111 671.5 111 673.985 109.209 676 107 676 104.791 676 103 673.985 103 671.5Z" fill="#648FFF" fill-rule="evenodd"/><path d="M123.5 676C121.015 676 119 673.985 119 671.5 119 669.015 121.015 667 123.5 667 125.985 667 128 669.015 128 671.5 128 673.985 125.985 676 123.5 676Z" fill="#648FFF" fill-rule="evenodd"/><rect x="97.5001" y="663.5" width="37" height="17" stroke="#000000" stroke-width="1.33333" stroke-miterlimit="8" fill="none"/><path d="M103 449.5C103 447.015 104.791 445 107 445 109.209 445 111 447.015 111 449.5 111 451.985 109.209 454 107 454 104.791 454 103 451.985 103 449.5Z" fill="#648FFF" fill-rule="evenodd"/><path d="M123.5 454C121.015 454 119 451.985 119 449.5 119 447.015 121.015 445 123.5 445 125.985 445 128 447.015 128 449.5 128 451.985 125.985 454 123.5 454Z" fill="#648FFF" fill-rule="evenodd"/><rect x="97.5001" y="441.5" width="37" height="17" stroke="#000000" stroke-width="1.33333" stroke-miterlimit="8" fill="none"/><path d="M103 471.5C103 469.015 104.791 467 107 467 109.209 467 111 469.015 111 471.5 111 473.985 109.209 476 107 476 104.791 476 103 473.985 103 471.5Z" fill="#648FFF" fill-rule="evenodd"/><path d="M123.5 476C121.015 476 119 473.985 119 471.5 119 469.015 121.015 467 123.5 467 125.985 467 128 469.015 128 471.5 128 473.985 125.985 476 123.5 476Z" fill="#648FFF" fill-rule="evenodd"/><rect x="97.5001" y="463.5" width="37" height="17" stroke="#000000" stroke-width="1.33333" stroke-miterlimit="8" fill="none"/><path d="M103 494C103 491.791 104.791 490 107 490 109.209 490 111 491.791 111 494 111 496.209 109.209 498 107 498 104.791 498 103 496.209 103 494Z" fill="#648FFF" fill-rule="evenodd"/><path d="M123.5 498C121.015 498 119 496.209 119 494 119 491.791 121.015 490 123.5 490 125.985 490 128 491.791 128 494 128 496.209 125.985 498 123.5 498Z" fill="#648FFF" fill-rule="evenodd"/><rect x="97.5001" y="486.5" width="37" height="16" stroke="#000000" stroke-width="1.33333" stroke-miterlimit="8" fill="none"/><path d="M103 516C103 513.791 104.791 512 107 512 109.209 512 111 513.791 111 516 111 518.209 109.209 520 107 520 104.791 520 103 518.209 103 516Z" fill="#648FFF" fill-rule="evenodd"/><path d="M123.5 520C121.015 520 119 518.209 119 516 119 513.791 121.015 512 123.5 512 125.985 512 128 513.791 128 516 128 518.209 125.985 520 123.5 520Z" fill="#648FFF" fill-rule="evenodd"/><rect x="97.5001" y="508.5" width="37" height="17" stroke="#000000" stroke-width="1.33333" stroke-miterlimit="8" fill="none"/><path d="M103 538.5C103 536.015 104.791 534 107 534 109.209 534 111 536.015 111 538.5 111 540.985 109.209 543 107 543 104.791 543 103 540.985 103 538.5Z" fill="#648FFF" fill-rule="evenodd"/><path d="M123.5 543C121.015 543 119 540.985 119 538.5 119 536.015 121.015 534 123.5 534 125.985 534 128 536.015 128 538.5 128 540.985 125.985 543 123.5 543Z" fill="#648FFF" fill-rule="evenodd"/><rect x="97.5001" y="530.5" width="37" height="17" stroke="#000000" stroke-width="1.33333" stroke-miterlimit="8" fill="none"/><path d="M103 560.5C103 558.015 104.791 556 107 556 109.209 556 111 558.015 111 560.5 111 562.985 109.209 565 107 565 104.791 565 103 562.985 103 560.5Z" fill="#648FFF" fill-rule="evenodd"/><path d="M123.5 565C121.015 565 119 562.985 119 560.5 119 558.015 121.015 556 123.5 556 125.985 556 128 558.015 128 560.5 128 562.985 125.985 565 123.5 565Z" fill="#648FFF" fill-rule="evenodd"/><rect x="97.5001" y="552.5" width="37" height="17" stroke="#000000" stroke-width="1.33333" stroke-miterlimit="8" fill="none"/><path d="M103 582.5C103 580.015 104.791 578 107 578 109.209 578 111 580.015 111 582.5 111 584.985 109.209 587 107 587 104.791 587 103 584.985 103 582.5Z" fill="#648FFF" fill-rule="evenodd"/><path d="M123.5 587C121.015 587 119 584.985 119 582.5 119 580.015 121.015 578 123.5 578 125.985 578 128 580.015 128 582.5 128 584.985 125.985 587 123.5 587Z" fill="#648FFF" fill-rule="evenodd"/><rect x="97.5001" y="574.5" width="37" height="17" stroke="#000000" stroke-width="1.33333" stroke-miterlimit="8" fill="none"/><path d="M103 605C103 602.791 104.791 601 107 601 109.209 601 111 602.791 111 605 111 607.209 109.209 609 107 609 104.791 609 103 607.209 103 605Z" fill="#648FFF" fill-rule="evenodd"/><path d="M123.5 609C121.015 609 119 607.209 119 605 119 602.791 121.015 601 123.5 601 125.985 601 128 602.791 128 605 128 607.209 125.985 609 123.5 609Z" fill="#648FFF" fill-rule="evenodd"/><rect x="97.5001" y="597.5" width="37" height="16" stroke="#000000" stroke-width="1.33333" stroke-miterlimit="8" fill="none"/><path d="M103 627.5C103 625.015 104.791 623 107 623 109.209 623 111 625.015 111 627.5 111 629.985 109.209 632 107 632 104.791 632 103 629.985 103 627.5Z" fill="#648FFF" fill-rule="evenodd"/><path d="M123.5 632C121.015 632 119 629.985 119 627.5 119 625.015 121.015 623 123.5 623 125.985 623 128 625.015 128 627.5 128 629.985 125.985 632 123.5 632Z" fill="#648FFF" fill-rule="evenodd"/><rect x="97.5001" y="619.5" width="37" height="17" stroke="#000000" stroke-width="1.33333" stroke-miterlimit="8" fill="none"/><path d="M103 649.5C103 647.015 104.791 645 107 645 109.209 645 111 647.015 111 649.5 111 651.985 109.209 654 107 654 104.791 654 103 651.985 103 649.5Z" fill="#648FFF" fill-rule="evenodd"/><path d="M123.5 654C121.015 654 119 651.985 119 649.5 119 647.015 121.015 645 123.5 645 125.985 645 128 647.015 128 649.5 128 651.985 125.985 654 123.5 654Z" fill="#648FFF" fill-rule="evenodd"/><rect x="97.5001" y="641.5" width="37" height="17" stroke="#000000" stroke-width="1.33333" stroke-miterlimit="8" fill="none"/><path d="M0 0 42.5974 5.2736" stroke="#FFB000" stroke-width="5.33333" stroke-miterlimit="8" fill="none" fill-rule="evenodd" transform="matrix(-1 0 0 1 244.097 656.5)"/><path d="M0 0 9.74478 25.0001" stroke="#FFB000" stroke-width="5.33333" stroke-miterlimit="8" fill="none" fill-rule="evenodd" transform="matrix(-1 0 0 1 253.245 631.5)"/><path d="M0 0 42.2606 0.000104987" stroke="#FFB000" stroke-width="5.33333" stroke-miterlimit="8" fill="none" fill-rule="evenodd" transform="matrix(-1 0 0 1 253.761 631.5)"/><path d="M0 0 10.0817 30.2737" stroke="#FFB000" stroke-width="5.33333" stroke-miterlimit="8" fill="none" fill-rule="evenodd" transform="matrix(1 0 0 -1 201.5 661.774)"/><path d="M0 0 41.1246 10.1226" stroke="#FFB000" stroke-width="5.33333" stroke-miterlimit="8" fill="none" fill-rule="evenodd" transform="matrix(-1 0 0 1 294.625 621.5)"/><path d="M294.725 621.575 286.5 603.5" stroke="#FFB000" stroke-width="5.33333" stroke-miterlimit="8" fill="none" fill-rule="evenodd"/><path d="M286.5 603.5 319.4 603.543" stroke="#FFB000" stroke-width="5.33333" stroke-miterlimit="8" fill="none" fill-rule="evenodd"/><path d="M319.5 603.5 345.695 626.679" stroke="#FFB000" stroke-width="5.33333" stroke-miterlimit="8" fill="none" fill-rule="evenodd"/><path d="M0 0 21.8569 17.7736" stroke="#FFB000" stroke-width="5.33333" stroke-miterlimit="8" fill="none" fill-rule="evenodd" transform="matrix(-1 0 0 1 345.357 626.5)"/><path d="M323.95 643.939 307.5 636.5" stroke="#FFB000" stroke-width="5.33333" stroke-miterlimit="8" fill="none" fill-rule="evenodd"/><path d="M0 0 12.1118 20.4574" stroke="#FFB000" stroke-width="5.33333" stroke-miterlimit="8" fill="none" fill-rule="evenodd" transform="matrix(1 0 0 -1 307.5 636.957)"/><path d="M319.5 616.5 345.695 626.623" stroke="#FFB000" stroke-width="5.33333" stroke-miterlimit="8" fill="none" fill-rule="evenodd"/><text font-family="Arial,Arial_MSFontService,sans-serif" font-weight="400" font-size="13" transform="translate(41.3721 400)">`edge_node_connectivity<tspan font-size="13" x="147.167" y="0">`</tspan><tspan font-family="Consolas,Consolas_MSFontService,sans-serif" font-weight="700" font-size="13" x="55.1777" y="302">12 </tspan><tspan font-family="Calibri,Calibri_MSFontService,sans-serif" font-weight="700" font-size="13" x="77.1777" y="302">×</tspan><tspan font-family="Calibri,Calibri_MSFontService,sans-serif" font-weight="700" font-size="13" x="86.8444" y="302">2</tspan></text></g></svg>