<?xml version="1.0" encoding="UTF-8" standalone="no"?>
<!-- Generator: Adobe Illustrator 19.0.0, SVG Export Plug-In . SVG Version: 6.00 Build 0)  -->

<svg
   xmlns:dc="http://purl.org/dc/elements/1.1/"
   xmlns:cc="http://creativecommons.org/ns#"
   xmlns:rdf="http://www.w3.org/1999/02/22-rdf-syntax-ns#"
   xmlns:svg="http://www.w3.org/2000/svg"
   xmlns="http://www.w3.org/2000/svg"
   xmlns:sodipodi="http://sodipodi.sourceforge.net/DTD/sodipodi-0.dtd"
   xmlns:inkscape="http://www.inkscape.org/namespaces/inkscape"
   version="1.1"
   id="Capa_1"
   x="0px"
   y="0px"
   viewBox="0 0 508 511"
   xml:space="preserve"
   sodipodi:docname="icon_api.svg"
   inkscape:version="0.92.4 (5da689c313, 2019-01-14)"
   width="508"
   height="511"><metadata
   id="metadata57"><rdf:RDF><cc:Work
       rdf:about=""><dc:format>image/svg+xml</dc:format><dc:type
         rdf:resource="http://purl.org/dc/dcmitype/StillImage" /><dc:title></dc:title></cc:Work></rdf:RDF></metadata><defs
   id="defs55" /><sodipodi:namedview
   pagecolor="#ffffff"
   bordercolor="#666666"
   borderopacity="1"
   objecttolerance="10"
   gridtolerance="10"
   guidetolerance="10"
   inkscape:pageopacity="0"
   inkscape:pageshadow="2"
   inkscape:window-width="1718"
   inkscape:window-height="1368"
   id="namedview53"
   showgrid="false"
   inkscape:zoom="0.92367906"
   inkscape:cx="5.9989685"
   inkscape:cy="254.98794"
   inkscape:window-x="1913"
   inkscape:window-y="0"
   inkscape:window-maximized="0"
   inkscape:current-layer="g20"
   inkscape:pagecheckerboard="true" />
<g
   id="g20"
   style="fill:#1b8fb7;fill-opacity:1">
	<path
   d="M 492.168,309.579 474.542,299.402 C 477.502,284.679 479,269.936 479,255.5 c 0,-14.646 -1.474,-29.403 -4.384,-43.946 l 17.552,-10.134 c 5.436,-3.138 9.325,-8.206 10.949,-14.269 1.624,-6.063 0.791,-12.396 -2.348,-17.832 l -48,-83.139 C 449.63,80.744 444.563,76.855 438.5,75.231 432.436,73.607 426.104,74.44 420.667,77.579 L 403.101,87.721 C 380.912,68.2 354.798,53.092 327,43.692 V 23.5 C 327,10.542 316.458,0 303.5,0 h -96 C 194.542,0 184,10.542 184,23.5 v 20.193 c -27.65,9.362 -53.728,24.49 -75.999,44.088 L 90.332,77.579 C 84.895,74.44 78.562,73.606 72.499,75.231 66.436,76.856 61.369,80.744 58.23,86.18 l -48,83.139 c -3.139,5.436 -3.972,11.769 -2.348,17.832 1.624,6.063 5.513,11.131 10.949,14.269 l 17.626,10.177 C 33.499,226.32 32,241.063 32,255.5 c 0,14.644 1.474,29.401 4.384,43.945 L 18.832,309.579 C 7.61,316.058 3.752,330.458 10.23,341.681 l 48,83.139 c 6.479,11.221 20.879,15.08 32.102,8.601 l 17.565,-10.142 C 130.087,442.8 156.2,457.908 184,467.309 V 487.5 c 0,12.958 10.542,23.5 23.5,23.5 h 96 c 12.958,0 23.5,-10.542 23.5,-23.5 v -20.193 c 27.651,-9.362 53.729,-24.49 76,-44.087 l 17.668,10.201 c 11.221,6.479 25.623,2.62 32.102,-8.601 l 48,-83.139 c 6.478,-11.223 2.62,-25.623 -8.602,-32.102 z m -4.389,24.602 -48,83.138 c -2.343,4.06 -7.552,5.455 -11.611,3.111 l -22.392,-12.928 c -2.845,-1.643 -6.43,-1.242 -8.842,0.989 -22.893,21.173 -50.437,37.148 -79.653,46.199 -3.14,0.973 -5.281,3.877 -5.281,7.164 V 487.5 c 0,4.687 -3.813,8.5 -8.5,8.5 h -96 c -4.687,0 -8.5,-3.813 -8.5,-8.5 v -25.645 c 0,-3.287 -2.141,-6.191 -5.28,-7.164 -29.396,-9.107 -56.974,-25.062 -79.755,-46.139 -1.421,-1.315 -3.25,-1.995 -5.095,-1.995 -1.286,0 -2.579,0.33 -3.748,1.005 l -22.29,12.868 c -4.06,2.343 -9.268,0.948 -11.611,-3.111 l -48,-83.138 c -2.343,-4.059 -0.947,-9.268 3.111,-11.612 L 48.604,309.71 c 2.844,-1.642 4.289,-4.942 3.566,-8.146 C 48.739,286.357 47,270.858 47,255.5 c 0,-15.1 1.765,-30.584 5.247,-46.022 0.722,-3.203 -0.723,-6.504 -3.566,-8.145 L 26.332,188.43 c -1.966,-1.135 -3.372,-2.968 -3.96,-5.161 -0.587,-2.193 -0.286,-4.484 0.849,-6.45 l 48,-83.139 c 1.135,-1.966 2.968,-3.373 5.162,-3.96 2.192,-0.588 4.484,-0.286 6.45,0.849 l 22.392,12.928 c 2.846,1.644 6.43,1.242 8.842,-0.989 22.894,-21.173 50.437,-37.148 79.653,-46.199 3.14,-0.973 5.281,-3.877 5.281,-7.164 V 23.5 c 0,-4.687 3.813,-8.5 8.5,-8.5 h 96 c 4.687,0 8.5,3.813 8.5,8.5 v 25.645 c 0,3.287 2.141,6.191 5.28,7.164 29.395,9.106 56.973,25.061 79.755,46.139 2.412,2.232 5.997,2.633 8.843,0.99 l 22.29,-12.869 c 1.967,-1.135 4.258,-1.437 6.45,-0.849 2.193,0.588 4.026,1.994 5.162,3.96 l 48,83.139 c 1.135,1.966 1.437,4.257 0.849,6.45 -0.588,2.193 -1.994,4.026 -3.96,5.161 l -22.272,12.859 c -2.844,1.642 -4.289,4.943 -3.566,8.146 3.431,15.206 5.17,30.704 5.17,46.065 0,15.1 -1.765,30.584 -5.247,46.021 -0.722,3.203 0.723,6.503 3.566,8.145 l 22.349,12.903 c 4.057,2.344 5.453,7.553 3.109,11.612 z"
   id="path2"
   style="fill:#1b8fb7;fill-opacity:1"
   inkscape:connector-curvature="0" />
	<path
   d="M 255.5,104 C 171.962,104 104,171.963 104,255.5 104,339.037 171.962,407 255.5,407 339.038,407 407,339.037 407,255.5 407,171.963 339.038,104 255.5,104 Z m 0,288 C 180.234,392 119,330.766 119,255.5 119,180.234 180.234,119 255.5,119 330.766,119 392,180.234 392,255.5 392,330.766 330.766,392 255.5,392 Z"
   id="path4"
   style="fill:#1b8fb7;fill-opacity:1"
   inkscape:connector-curvature="0" />
	<path
   d="m 283.5,216 h -28 c -4.142,0 -7.5,3.358 -7.5,7.5 v 64 c 0,4.142 3.358,7.5 7.5,7.5 4.142,0 7.5,-3.358 7.5,-7.5 V 271 h 20.5 C 298.664,271 311,258.664 311,243.5 311,228.336 298.664,216 283.5,216 Z m 0,40 H 263 v -25 h 20.5 c 6.893,0 12.5,5.607 12.5,12.5 0,6.893 -5.607,12.5 -12.5,12.5 z"
   id="path6"
   style="fill:#1b8fb7;fill-opacity:1"
   inkscape:connector-curvature="0" />
	<path
   d="M 214.522,220.867 C 213.424,217.94 210.626,216 207.5,216 h -8 c -3.126,0 -5.925,1.939 -7.022,4.867 l -24,64 c -1.455,3.878 0.511,8.201 4.389,9.656 3.878,1.455 8.201,-0.511 9.656,-4.389 L 186.697,279 h 33.605 l 4.175,11.133 c 1.129,3.011 3.987,4.869 7.023,4.869 0.875,0 1.765,-0.154 2.632,-0.479 3.878,-1.454 5.844,-5.778 4.389,-9.656 z M 192.322,264 203.5,234.193 214.678,264 Z"
   id="path8"
   style="fill:#1b8fb7;fill-opacity:1"
   inkscape:connector-curvature="0" />
	<path
   d="m 327.5,216 c -4.142,0 -7.5,3.358 -7.5,7.5 v 64 c 0,4.142 3.358,7.5 7.5,7.5 4.142,0 7.5,-3.358 7.5,-7.5 v -64 c 0,-4.142 -3.358,-7.5 -7.5,-7.5 z"
   id="path10"
   style="fill:#1b8fb7;fill-opacity:1"
   inkscape:connector-curvature="0" />
	<path
   d="m 309.152,87.3 c 5.205,1.659 10.394,3.586 15.421,5.726 0.958,0.408 1.954,0.601 2.934,0.601 2.916,0 5.69,-1.712 6.904,-4.564 1.622,-3.811 -0.152,-8.216 -3.963,-9.838 -5.458,-2.323 -11.09,-4.415 -16.742,-6.216 -3.945,-1.258 -8.165,0.922 -9.423,4.868 -1.257,3.946 0.923,8.165 4.869,9.423 z"
   id="path12"
   style="fill:#cadc6d;fill-opacity:1"
   inkscape:connector-curvature="0" />
	<path
   d="m 100.45,339.904 c -1.984,-3.636 -6.541,-4.976 -10.176,-2.992 -3.636,1.984 -4.976,6.54 -2.992,10.176 3.112,5.704 6.557,11.315 10.239,16.677 1.454,2.117 3.801,3.255 6.189,3.255 1.463,0 2.941,-0.427 4.239,-1.318 3.415,-2.345 4.282,-7.014 1.937,-10.428 -3.393,-4.942 -6.568,-10.113 -9.436,-15.37 z"
   id="path14"
   style="fill:#cadc6d;fill-opacity:1"
   inkscape:connector-curvature="0" />
	<path
   d="m 240.14,431.341 c -40.189,-3.463 -78.337,-20.879 -107.416,-49.041 -2.976,-2.882 -7.724,-2.805 -10.605,0.17 -2.881,2.976 -2.806,7.724 0.17,10.605 31.55,30.555 72.947,49.452 116.563,53.21 0.219,0.019 0.436,0.028 0.652,0.028 3.851,0 7.127,-2.949 7.464,-6.856 0.355,-4.126 -2.702,-7.76 -6.828,-8.116 z"
   id="path16"
   style="fill:#cadc6d;fill-opacity:1"
   inkscape:connector-curvature="0" />
	<path
   d="m 363.425,97.287 c -3.42,-2.337 -8.087,-1.459 -10.424,1.96 -2.337,3.42 -1.459,8.087 1.96,10.424 34.844,23.813 60.049,59.248 70.972,99.776 0.902,3.346 3.93,5.55 7.237,5.55 0.646,0 1.303,-0.084 1.956,-0.26 4,-1.078 6.368,-5.194 5.29,-9.193 -11.852,-43.98 -39.195,-82.426 -76.991,-108.257 z"
   id="path18"
   style="fill:#cadc6d;fill-opacity:1"
   inkscape:connector-curvature="0" />
</g>
<g
   id="g22"
   style="fill:#1b8fb7;fill-opacity:1">
</g>
<g
   id="g24"
   style="fill:#1b8fb7;fill-opacity:1">
</g>
<g
   id="g26"
   style="fill:#1b8fb7;fill-opacity:1">
</g>
<g
   id="g28"
   style="fill:#1b8fb7;fill-opacity:1">
</g>
<g
   id="g30"
   style="fill:#1b8fb7;fill-opacity:1">
</g>
<g
   id="g32"
   style="fill:#1b8fb7;fill-opacity:1">
</g>
<g
   id="g34"
   style="fill:#1b8fb7;fill-opacity:1">
</g>
<g
   id="g36"
   style="fill:#1b8fb7;fill-opacity:1">
</g>
<g
   id="g38"
   style="fill:#1b8fb7;fill-opacity:1">
</g>
<g
   id="g40"
   style="fill:#1b8fb7;fill-opacity:1">
</g>
<g
   id="g42"
   style="fill:#1b8fb7;fill-opacity:1">
</g>
<g
   id="g44"
   style="fill:#1b8fb7;fill-opacity:1">
</g>
<g
   id="g46"
   style="fill:#1b8fb7;fill-opacity:1">
</g>
<g
   id="g48"
   style="fill:#1b8fb7;fill-opacity:1">
</g>
<g
   id="g50"
   style="fill:#1b8fb7;fill-opacity:1">
</g>
</svg>