<?xml version="1.0" encoding="UTF-8" standalone="no"?>
<svg
   xmlns:dc="http://purl.org/dc/elements/1.1/"
   xmlns:cc="http://creativecommons.org/ns#"
   xmlns:rdf="http://www.w3.org/1999/02/22-rdf-syntax-ns#"
   xmlns:svg="http://www.w3.org/2000/svg"
   xmlns="http://www.w3.org/2000/svg"
   xmlns:sodipodi="http://sodipodi.sourceforge.net/DTD/sodipodi-0.dtd"
   xmlns:inkscape="http://www.inkscape.org/namespaces/inkscape"
   id="Layer_5"
   enable-background="new 0 0 64 64"
   height="512"
   viewBox="0 0 64 64"
   width="512"
   version="1.1"
   sodipodi:docname="icon_development2.svg"
   inkscape:version="0.92.4 (5da689c313, 2019-01-14)">
  <metadata
     id="metadata13">
    <rdf:RDF>
      <cc:Work
         rdf:about="">
        <dc:format>image/svg+xml</dc:format>
        <dc:type
           rdf:resource="http://purl.org/dc/dcmitype/StillImage" />
      </cc:Work>
    </rdf:RDF>
  </metadata>
  <defs
     id="defs11" />
  <sodipodi:namedview
     pagecolor="#ffffff"
     bordercolor="#666666"
     borderopacity="1"
     objecttolerance="10"
     gridtolerance="10"
     guidetolerance="10"
     inkscape:pageopacity="0"
     inkscape:pageshadow="2"
     inkscape:window-width="1718"
     inkscape:window-height="1368"
     id="namedview9"
     showgrid="false"
     inkscape:zoom="1.3037281"
     inkscape:cx="330.20328"
     inkscape:cy="265.88817"
     inkscape:window-x="3633"
     inkscape:window-y="0"
     inkscape:window-maximized="0"
     inkscape:current-layer="Layer_5" />
  <path
     d="m59 47c0-6.199-4.053-11.462-9.646-13.298 2.191-1.428 3.646-3.897 3.646-6.702 0-4.411-3.589-8-8-8-.423 0-.835.043-1.24.106.056-.162.127-.32.176-.484l2.064-.486v-6.222l-2.062-.486c-.242-.812-.567-1.596-.972-2.343l1.115-1.803-4.363-4.364-1.803 1.116c-.746-.403-1.53-.729-2.344-.972l-.485-2.062h-6.172l-.485 2.062c-.813.243-1.598.568-2.344.972l-1.803-1.116-4.363 4.364 1.115 1.803c-.404.747-.729 1.531-.972 2.343l-2.062.487v6.223l2.063.486c.049.163.12.321.176.483-.404-.064-.816-.107-1.239-.107-4.411 0-8 3.589-8 8 0 2.805 1.455 5.274 3.646 6.702-5.593 1.836-9.646 7.099-9.646 13.298v4h15.527c-1.588 2.27-2.527 5.026-2.527 8v4h28v-4c0-2.974-.939-5.73-2.527-8h15.527zm-12-11c0 1.626-.916 3-2 3s-2-1.374-2-3c0-.284.04-.565.1-.844.626-.1 1.26-.156 1.9-.156.649 0 1.282.066 1.903.166.058.276.097.554.097.834zm-15 9c-3.309 0-6-2.691-6-6s2.691-6 6-6 6 2.691 6 6-2.691 6-6 6zm-7.784-8.802c.085.041.171.079.255.122-.299.84-.471 1.739-.471 2.68 0 .399.039.789.096 1.173l-1.332 2.931-2.424-3.029zm7.784-5.198c-2.758 0-5.194 1.403-6.633 3.533-.648-.331-1.321-.606-2.011-.832 2.19-1.429 3.644-3.897 3.644-6.701 0-.186-.015-.368-.028-.55.474.209.96.39 1.457.539l.485 2.062h6.172l.485-2.062c.497-.149.983-.33 1.457-.539-.013.182-.028.364-.028.55 0 2.805 1.454 5.272 3.644 6.701-.689.225-1.362.502-2.01.833-1.439-2.13-3.876-3.534-6.634-3.534zm19-4c0 3.309-2.691 6-6 6s-6-2.691-6-6 2.691-6 6-6 6 2.691 6 6zm-29.157-9.452-.146-.595-1.697-.4v-3.056l1.696-.399.146-.595c.252-1.028.658-2.011 1.21-2.919l.317-.523-.918-1.483 2.125-2.125 1.483.918.523-.318c.906-.55 1.889-.958 2.92-1.21l.595-.146.401-1.697h3.004l.399 1.696.595.146c1.031.253 2.014.66 2.92 1.21l.523.318 1.483-.918 2.125 2.125-.917 1.484.317.523c.552.908.958 1.891 1.21 2.919l.146.595 1.697.4v3.056l-1.696.399-.146.595c-.202.827-.53 1.633-.945 2.408-1.587.857-2.853 2.235-3.568 3.903l-.228.138c-.906.55-1.889.958-2.92 1.21l-.595.146-.399 1.696h-3.004l-.399-1.697-.595-.146c-1.029-.252-2.012-.659-2.92-1.21l-.228-.138c-.715-1.669-1.981-3.047-3.568-3.904-.416-.773-.744-1.579-.946-2.406zm-8.843 9.452c0-3.309 2.691-6 6-6s6 2.691 6 6-2.691 6-6 6-6-2.691-6-6zm9.161 8.425-3.161 3.161-3.152-3.152c1.006-.275 2.06-.434 3.152-.434 1.075 0 2.137.146 3.161.425zm-4.501 4.649-2.424 3.029-2.792-6.142c.43-.282.882-.53 1.348-.756zm-10.66 6.926c0-3.458 1.479-6.57 3.828-8.762l3.936 8.659 4.236-5.296 4.236 5.296 1.803-3.967c.635 1.12 1.531 2.072 2.606 2.773-2.06.676-3.909 1.815-5.425 3.298h-10.22v-6h-2v6h-3zm25 0c1.738 0 3.386.379 4.879 1.047l-4.879 11.408-4.879-11.409c1.493-.667 3.141-1.046 4.879-1.046zm-12 12c0-4.162 2.131-7.833 5.358-9.986l5.126 11.986h-5.484v-6h-2v6h-3zm24 2h-3v-6h-2v6h-5.484l5.126-11.986c3.227 2.153 5.358 5.824 5.358 9.986zm13-12h-3v-6h-2v6h-10.221c-1.516-1.483-3.366-2.622-5.425-3.298 2.191-1.428 3.646-3.897 3.646-6.702 0-.94-.172-1.839-.471-2.678.485-.249.986-.465 1.499-.644-.006.107-.028.214-.028.322 0 2.757 1.794 5 4 5s4-2.243 4-5c0-.104-.021-.206-.027-.31 4.667 1.645 8.027 6.087 8.027 11.31z"
     id="path2"
     style="fill:#1b8fb7;fill-opacity:1" />
  <path
     d="m32 19c2.206 0 4-1.794 4-4s-1.794-4-4-4-4 1.794-4 4 1.794 4 4 4zm0-6c1.103 0 2 .897 2 2s-.897 2-2 2-2-.897-2-2 .897-2 2-2z"
     id="path4"
     style="fill:#cadc6d;fill-opacity:1" />
  <path
     d="m32 23c4.411 0 8-3.589 8-8s-3.589-8-8-8-8 3.589-8 8 3.589 8 8 8zm0-14c3.309 0 6 2.691 6 6s-2.691 6-6 6-6-2.691-6-6 2.691-6 6-6z"
     id="path6"
     style="fill:#1b8fb7;fill-opacity:1" />
</svg>
