<?xml version="1.0" ?>
<svg height="1024" id="logo" viewBox="0 0 1024 1024" width="1024" xmlns="http://www.w3.org/2000/svg">
	<!--Created by https://github.com/SciTools/marketing/iris/logo/generate_logo.py-->
	<desc>Logo for the SciTools Iris project - https://github.com/SciTools/iris/</desc>
	<defs id="defs">
		<clipPath id="iris_clip">
			<path d="M 66.582031,73.613283 C 62.196206,73.820182 51.16069,82.105643 33.433594,80.496096 18.711759,79.15939 10.669958,73.392913 8.4375,74.619143 7.1228015,75.508541 6.7582985,76.436912 6.703125,78.451174 6.64868,80.465549 5.5985568,94.091611 12.535156,107.18359 c 8.745259,16.50554 21.06813,20.14551 26.152344,20.24414 12.671346,0.24601 24.681745,-21.45054 27.345703,-30.62304 3.143758,-10.82453 4.457007,-22.654297 1.335938,-23.119141 -0.233298,-0.06335 -0.494721,-0.08606 -0.78711,-0.07227 z m 7.119141,-5.857422 c -0.859687,0.02602 -1.458448,0.280361 -1.722656,0.806641 -2.123362,3.215735 3.515029,16.843803 -3.970704,34.189448 -5.828231,13.50478 -13.830895,19.32496 -13.347656,21.81446 0.444722,1.5177 1.220596,2.14788 3.13086,2.82226 1.910471,0.67381 14.623496,5.87722 29.292968,3.36524 18.494166,-3.16726 25.783696,-13.69084 27.449216,-18.4668 C 118.68435,100.38386 101.63623,82.323612 93.683594,76.970705 86.058314,71.837998 77.426483,67.643118 73.701172,67.755861 Z M 114.02539,33.224611 C 103.06524,33.255401 88.961605,40.28151 83.277344,44.67969 74.333356,51.599967 66.27534,60.401955 68.525391,62.601564 c 2.420462,3.001097 17.201948,1.879418 31.484379,14.316407 11.11971,9.683149 14.21486,19.049139 16.74609,19.361328 1.58953,0.0486 2.43239,-0.488445 3.66797,-2.085938 1.23506,-1.597905 10.14187,-12.009723 12.27148,-26.654297 2.68478,-18.462878 -5.13068,-28.607634 -9.18554,-31.658203 -2.52647,-1.900653 -5.831,-2.666512 -9.48438,-2.65625 z M 39.621094,14.64258 C 39.094212,14.665 38.496575,14.789793 37.767578,15.003908 35.823484,15.574873 22.460486,18.793044 12.078125,29.396486 -1.0113962,42.764595 -0.68566506,55.540029 0.79101563,60.376955 4.4713185,72.432363 28.943765,77.081596 38.542969,76.765627 49.870882,76.392777 61.593892,73.978953 61.074219,70.884768 60.890477,67.042613 48.270811,59.312854 44.070312,40.906252 40.799857,26.575361 43.83381,17.190581 41.970703,15.458986 41.184932,14.853981 40.49923,14.605209 39.621094,14.64258 Z M 67.228516,0.08984563 C 60.427428,0.11193533 55.565192,2.1689455 53.21875,3.7949238 42.82192,10.999553 45.934544,35.571547 49.203125,44.54883 c 3.857276,10.594054 9.790034,20.931896 12.589844,19.484375 3.619302,-1.360857 7.113072,-15.680732 23.425781,-25.339844 12.700702,-7.520306 22.61812,-7.553206 23.69922,-9.849609 0.53758,-1.487663 0.28371,-2.45185 -0.86328,-4.113281 C 106.90759,23.069051 99.699016,11.431303 86.345703,4.89258 78.980393,1.2860119 72.51825,0.07266475 67.228516,0.08984563 Z" transform="scale(7.679961600191999)"/>
		</clipPath>
		<linearGradient id="background_gradient" y1="0%" y2="100%">
			<stop offset="0" stop-color="#13385d"/>
			<stop offset="0.43" stop-color="#0b3849"/>
			<stop offset="1" stop-color="#272b2c"/>
		</linearGradient>
		<radialGradient gradientTransform="matrix(1.15 0 0 1.35 -0.07499999999999996 -0.42500000000000004)" id="glow_gradient">
			<stop offset="0" stop-color="#0aaea7" stop-opacity="0.85882354"/>
			<stop offset="0.67322218" stop-color="#18685d" stop-opacity="0.74117649"/>
			<stop offset="1" stop-color="#b6df34"/>
		</radialGradient>
		<filter id="glow_blur">
			<feGaussianBlur stdDeviation="14"/>
		</filter>
		<radialGradient id="sea_gradient">
			<stop offset="0" stop-color="#20b0ea"/>
			<stop offset="1" stop-color="#156475"/>
		</radialGradient>
		<radialGradient id="land_gradient">
			<stop offset="0" stop-color="#d5e488"/>
			<stop offset="1" stop-color="#aec928"/>
		</radialGradient>
		<clipPath id="land_clip_-30.0">
			<path d="M 863.041221 702.911033  L 860.585313 706.45076  L 867.005282 691.941238  L 882.024567 654.977673  L 890.219343 636.92188  L 896.267843 617.404384  L 895.019539 624.496701  L 891.650904 636.795427  L 889.585463 642.997804  L 875.701933 678.062985  L 869.371578 690.487009  z " stroke-linejoin="round"/>
			<path d="M 309.564696 578.754789  L 304.59319 578.3338  L 303.600077 577.473492  L 309.076044 573.257598  z " stroke-linejoin="round"/>
			<path d="M 290.881687 516.962911  L 282.008711 516.434198  L 282.264019 513.43985  L 287.542808 513.967946  z " stroke-linejoin="round"/>
			<path d="M 234.008536 500.157853  L 232.371817 500.700533  L 228.15898 495.029281  L 237.249293 501.352491  z " stroke-linejoin="round"/>
			<path d="M 257.466527 494.537462  L 270.100593 500.476929  L 276.95854 510.130458  L 259.851907 511.883106  L 246.076767 501.494414  L 256.785578 503.06052  L 253.078991 494.640637  z " stroke-linejoin="round"/>
			<path d="M 230.780592 462.284793  L 235.896607 466.482072  L 250.529247 488.961141  L 233.487467 485.269742  L 237.447695 482.807284  L 232.505378 471.845026  L 221.890567 459.026704  L 208.06615 457.475271  L 221.200741 454.466611  z " stroke-linejoin="round"/>
			<path d="M 241.932582 459.719458  L 239.938611 452.716071  L 242.247832 448.931287  L 243.429625 449.746964  z " stroke-linejoin="round"/>
			<path d="M 246.909762 440.593516  L 242.012767 439.662672  L 242.598114 437.111245  L 247.388907 438.832771  z " stroke-linejoin="round"/>
			<path d="M 250.397322 441.994384  L 248.05501 446.368135  L 248.108425 437.628515  z " stroke-linejoin="round"/>
			<path d="M 805.483657 351.410708  L 805.417547 361.137218  L 801.630095 359.384946  L 802.427308 356.331872  z " stroke-linejoin="round"/>
			<path d="M 773.778552 371.77868  L 776.711072 372.877781  L 783.566753 369.574175  L 779.762825 374.776029  z " stroke-linejoin="round"/>
			<path d="M 736.189691 369.63995  L 739.410323 380.383646  L 725.78864 378.11508  L 724.870658 374.674486  z " stroke-linejoin="round"/>
			<path d="M 702.232914 359.969424  L 709.942619 372.100579  L 707.073183 374.963078  L 698.665091 362.935952  z " stroke-linejoin="round"/>
			<path d="M 700.866985 353.675974  L 701.817849 358.886318  L 696.480184 354.320842  L 697.617235 348.614989  z " stroke-linejoin="round"/>
			<path d="M 359.508999 333.58729  L 362.049819 335.14697  L 365.887805 335.913013  L 361.088044 337.943293  L 357.120607 331.753235  z " stroke-linejoin="round"/>
			<path d="M 373.980414 320.062239  L 367.988047 316.601489  L 365.911864 312.908034  L 371.647412 315.503108  z " stroke-linejoin="round"/>
			<path d="M 247.498782 229.670632  L 249.934598 224.548188  L 261.714038 212.260051  L 257.751524 218.542895  z " stroke-linejoin="round"/>
			<path d="M 400.373219 315.442034  L 395.636042 320.162179  L 407.98022 326.051769  L 404.417405 342.321145  L 401.582979 334.659266  L 394.730637 339.115418  L 380.149958 331.434483  L 405.371246 310.627264  z " stroke-linejoin="round"/>
			<path d="M 282.865305 193.634147  L 282.474387 194.864877  L 271.380582 202.418722  L 279.734073 195.178897  z " stroke-linejoin="round"/>
			<path d="M 608.493944 308.167832  L 596.658623 312.744628  L 593.846866 300.389184  L 602.235748 291.188334  L 607.600631 294.05697  z " stroke-linejoin="round"/>
			<path d="M 665.188671 272.548338  L 666.553829 277.482449  L 659.296431 273.470535  L 662.308815 270.236674  z " stroke-linejoin="round"/>
			<path d="M 333.688222 154.539137  L 330.471151 156.533311  L 329.871332 156.528324  L 329.902785 156.467914  L 331.795503 155.503526  z " stroke-linejoin="round"/>
			<path d="M 606.503407 269.555946  L 605.830069 276.151037  L 612.522559 274.032025  L 613.202729 284.299168  L 639.191379 298.925845  L 642.520073 307.513493  L 619.754627 320.827238  L 623.618863 310.713716  L 615.054376 308.724288  L 618.37414 306.156585  L 614.144235 299.44681  L 618.980184 295.459018  L 600.597831 281.705743  L 599.967623 270.82551  z " stroke-linejoin="round"/>
			<path d="M 370.444348 233.611333  L 367.147276 235.641307  L 367.462322 233.19453  L 370.115176 231.939943  z " stroke-linejoin="round"/>
			<path d="M 367.683782 228.567787  L 362.673807 229.851287  L 362.349114 227.614828  L 366.064958 226.339022  z " stroke-linejoin="round"/>
			<path d="M 393.971027 130.08282  L 393.343146 130.282434  L 393.477839 130.214969  L 393.477839 130.214969  L 393.724433 130.148894  z " stroke-linejoin="round"/>
			<path d="M 376.673204 212.932873  L 374.692257 214.902461  L 376.153051 225.78411  L 362.154488 219.663857  z " stroke-linejoin="round"/>
			<path d="M 554.676933 234.113724  L 559.475715 240.510634  L 547.110736 250.349964  L 534.121105 248.712478  L 536.713752 246.247118  L 529.874851 244.023844  L 534.537952 241.275643  L 528.329758 240.361135  z " stroke-linejoin="round"/>
			<path d="M 400.512915 214.531928  L 398.182322 213.886075  L 400.035586 211.647523  L 405.88018 211.457386  z " stroke-linejoin="round"/>
			<path d="M 427.801933 121.017857  L 440.207204 119.693087  L 420.856098 123.189824  L 407.109074 126.96897  L 410.351028 125.693812  L 423.628651 122.136084  L 427.814247 121.236953  L 427.461447 121.109089  z " stroke-linejoin="round"/>
			<path d="M 382.045197 190.636884  L 379.323246 191.25508  L 379.920697 185.995135  L 385.833043 185.047729  z " stroke-linejoin="round"/>
			<path d="M 446.332169 119.691216  L 448.3582 119.203571  L 449.724288 119.174939  L 448.590456 119.794767  z " stroke-linejoin="round"/>
			<path d="M 443.964872 120.290356  L 446.332169 119.691216  L 448.590456 119.794767  L 443.132226 120.845833  z " stroke-linejoin="round"/>
			<path d="M 381.418774 134.254626  L 383.263695 133.922081  L 378.095507 136.543819  L 382.97623 135.319445  L 389.912714 132.12182  L 401.965232 128.509185  L 391.036053 133.170663  L 410.950104 127.674938  L 409.323451 133.203138  L 373.920328 152.312499  L 379.715603 157.331114  L 361.049465 183.408274  L 369.492466 180.418072  L 371.555032 181.933083  L 367.773091 190.038427  L 376.864923 190.575728  L 370.805824 196.398614  L 383.310507 192.009727  L 387.105792 186.707288  L 399.304173 181.969723  L 390.006891 193.668244  L 384.198454 197.297715  L 390.299914 195.6167  L 381.479227 204.860142  L 398.584674 196.31086  L 401.504695 199.348244  L 400.981863 202.257909  L 393.093372 208.454727  L 380.436132 208.766198  L 344.580449 219.548281  L 325.490894 230.652307  L 319.567134 241.98177  L 331.205344 264.041687  L 323.202293 273.791506  L 320.276033 287.59101  L 329.595283 281.995341  L 335.234571 269.457207  L 351.889281 263.647642  L 356.787193 250.20461  L 364.27453 246.339648  L 373.679597 233.974952  L 383.826917 237.25982  L 388.651588 247.569587  L 381.384392 258.418023  L 383.289701 263.711362  L 399.631509 255.237325  L 395.172948 278.626391  L 405.674178 291.591377  L 405.618976 307.133026  L 383.964028 314.906985  L 360.152796 308.932826  L 332.052966 323.550304  L 361.973775 316.125551  L 355.405755 334.6288  L 366.425303 339.822349  L 373.488539 333.912531  L 373.697635 341.2535  L 344.194378 350.149583  L 343.551647 343.575453  L 352.915161 340.443741  L 341.648456 338.351714  L 321.364395 346.830894  L 319.978292 356.338189  L 291.742347 361.768876  L 290.12917 369.264613  L 283.089951 375.329981  L 287.548006 362.678005  L 278.973321 386.160751  L 245.522396 402.763069  L 233.21574 444.877592  L 231.645705 406.229478  L 200.155176 388.940553  L 188.809334 391.703953  L 169.525564 425.508964  L 166.379464 449.147095  L 169.127205 461.102465  L 177.355452 462.962082  L 187.690585 451.993738  L 199.781466 455.433388  L 182.466896 488.389899  L 202.166688 504.453766  L 195.218487 531.229039  L 202.888513 551.600789  L 211.777004 549.994137  L 223.544746 561.923689  L 234.881011 549.350952  L 251.874641 546.032679  L 249.25658 568.667055  L 260.95065 551.024893  L 268.851337 564.764155  L 304.4197 573.352747  L 300.956679 577.803005  L 330.476581 611.407712  L 366.978139 629.602841  L 372.647241 658.40406  L 409.145125 672.336373  L 411.40661 679.773166  L 442.774451 683.572729  L 473.139366 699.356131  L 479.286198 712.944858  L 453.235075 745.143157  L 441.553603 791.415141  L 401.984946 801.609353  L 398.388613 818.014258  L 378.771576 837.667646  L 353.968812 831.169604  L 367.836196 844.360377  L 359.594097 848.464728  L 345.321772 845.482313  L 348.776674 852.642113  L 338.505421 850.049248  L 349.57061 856.883933  L 342.281787 861.761887  L 355.13946 870.463097  L 352.193957 873.688144  L 361.067418 878.513282  L 357.112732 878.790756  L 339.047512 870.826672  L 323.252628 860.616298  L 321.84666 857.50507  L 315.659596 854.638065  L 311.561324 844.856667  L 308.316069 845.486061  L 292.197962 824.410747  L 288.528824 808.043884  L 269.190173 748.500189  L 259.217205 733.294183  L 233.571789 709.780735  L 201.830748 648.25855  L 206.941271 629.504396  L 201.483358 616.877603  L 219.509828 592.92173  L 217.027318 561.37616  L 211.264764 554.529527  L 204.099409 563.1019  L 186.663305 534.922473  L 183.723791 508.660239  L 147.84718 438.318767  L 147.980822 422.945439  L 154.090795 404.015255  L 173.450207 329.873928  L 150.538194 393.163184  L 152.082326 377.029808  L 159.230645 352.463274  L 162.51216 349.709032  L 177.078025 317.21816  L 182.795392 301.324545  L 207.887781 264.50567  L 246.195654 228.89473  L 239.96673 237.307827  L 249.896727 228.846125  L 261.476354 213.602756  L 307.104038 179.099999  L 338.760678 155.564549  L 337.543203 153.684151  L 346.613183 150.746997  L 339.353895 151.652335  L 339.353889 151.652336  L 344.467005 149.047073  L 347.170237 148.016268  L 352.344663 145.415132  z " stroke-linejoin="round"/>
			<path d="M 396.462543 163.988048  L 396.599745 167.678395  L 388.742627 172.287087  L 398.025958 168.561636  L 398.76432 170.040422  L 379.99943 184.263932  L 366.624614 175.710158  L 375.075886 168.307518  L 378.772608 171.847657  L 385.471728 162.958261  z " stroke-linejoin="round"/>
			<path d="M 402.008643 170.712202  L 397.287412 171.721057  L 401.070493 168.782441  L 403.038131 169.596497  z " stroke-linejoin="round"/>
			<path d="M 427.888815 190.663842  L 421.78127 190.109338  L 422.999474 187.171215  L 428.244752 187.698822  z " stroke-linejoin="round"/>
			<path d="M 415.284736 184.179027  L 423.422615 184.865782  L 416.598651 191.765784  L 424.091247 191.087637  L 426.927251 198.902179  L 426.522385 211.758253  L 421.025461 212.66638  L 429.052123 225.113985  L 417.663885 232.639232  L 412.833577 224.058798  L 410.092473 239.87833  L 401.166464 235.207219  L 400.929663 245.989586  L 391.380454 226.131164  L 383.351503 225.705182  L 388.028427 220.802786  L 396.65511 223.363673  L 408.745375 214.213216  L 409.641777 200.054429  L 400.617747 188.270172  L 412.04288 182.349708  L 419.692372 182.532847  z " stroke-linejoin="round"/>
			<path d="M 407.174346 172.634101  L 408.739457 174.967163  L 403.466353 176.658036  L 396.3839 181.59531  L 397.347068 174.623902  L 399.951435 175.673208  L 403.349793 173.066281  z " stroke-linejoin="round"/>
			<path d="M 524.870372 114.549915  L 527.910215 114.693045  L 532.14823 115.083947  L 527.358331 115.189519  z " stroke-linejoin="round"/>
			<path d="M 406.257763 180.842493  L 399.975935 181.382531  L 407.817244 176.844754  L 415.192153 179.355737  z " stroke-linejoin="round"/>
			<path d="M 384.419112 162.369754  L 381.312904 161.056634  L 388.186242 156.815221  L 399.863841 155.363802  L 404.108652 153.669714  L 398.575704 162.206727  z " stroke-linejoin="round"/>
			<path d="M 510.68521 115.876606  L 512.781776 115.500722  L 518.927955 116.051375  L 518.362448 116.36257  z " stroke-linejoin="round"/>
			<path d="M 419.137093 174.038681  L 416.353417 174.791887  L 416.379663 172.129838  L 422.242083 171.42072  z " stroke-linejoin="round"/>
			<path d="M 520.542386 116.493838  L 532.334686 116.193572  L 534.936014 117.066361  L 530.565016 117.667292  z " stroke-linejoin="round"/>
			<path d="M 426.50865 166.479691  L 415.901977 171.064572  L 416.892615 166.823801  L 421.85282 164.966098  z " stroke-linejoin="round"/>
			<path d="M 418.609283 161.740341  L 414.813817 164.92811  L 405.53337 162.72465  L 407.188835 160.926786  L 410.616303 161.497701  L 410.051981 157.296672  L 418.778096 156.650477  z " stroke-linejoin="round"/>
			<path d="M 643.950092 166.396505  L 634.138447 168.667664  L 614.680426 158.994582  L 603.966194 148.062658  L 620.142181 158.372428  L 632.753417 164.590881  z " stroke-linejoin="round"/>
			<path d="M 431.26213 167.686584  L 426.623813 174.896701  L 432.489592 182.320436  L 419.735659 177.822026  L 427.538176 167.198461  z " stroke-linejoin="round"/>
			<path d="M 426.60213 154.263454  L 418.943631 155.488696  L 416.139062 152.42673  L 425.517158 152.76589  z " stroke-linejoin="round"/>
			<path d="M 877.512942 349.5522  L 871.02953 338.196178  L 871.941744 358.341729  L 867.283929 352.368655  L 868.515364 360.52963  L 861.756491 360.062468  L 852.761286 350.044106  L 850.893832 355.986944  L 873.624895 382.301084  L 875.080386 376.240024  L 869.579117 357.03202  L 876.179534 368.518423  L 882.057688 372.603303  L 892.758296 415.11095  L 886.208353 474.566864  L 877.556691 450.095784  L 830.954363 397.525493  L 827.324508 387.963336  L 830.254263 401.619412  L 819.517933 391.087345  L 853.054859 430.664128  L 862.178156 450.877151  L 886.244457 476.577958  L 885.957077 482.331291  L 891.281056 485.827654  L 898.52857 458.75638  L 900.33387 467.770335  L 901.823394 517.848648  L 884.694655 597.126192  L 877.349024 655.028216  L 852.533612 699.113093  L 845.558111 719.00441  L 831.852577 736.53677  L 822.22032 752.883082  L 786.391065 790.369476  L 759.498112 804.350646  L 765.441894 736.608918  L 783.455964 691.197987  L 778.181854 659.735869  L 762.586525 640.431935  L 765.379736 608.013637  L 760.146818 602.736472  L 745.893014 610.350244  L 736.211237 599.527419  L 699.372903 618.662841  L 654.807723 625.759143  L 602.525064 582.333265  L 594.907285 565.349512  L 603.034417 541.108616  L 595.66544 515.363957  L 644.38558 411.988186  L 664.654598 412.284801  L 714.303599 383.912725  L 722.279438 384.555176  L 727.202223 405.697365  L 773.078661 414.32257  L 775.165309 393.488478  L 806.029549 391.918457  L 819.677924 381.379637  L 805.539521 342.51431  L 783.055995 358.829973  L 768.532453 344.6986  L 777.9799 316.921671  L 792.803913 313.883176  L 794.396183 301.951378  L 770.618971 293.727745  L 765.629349 279.004846  L 762.508407 291.254488  L 770.547219 295.022838  L 768.779384 303.354118  L 761.345157 300.568768  L 759.872577 295.092623  L 751.866918 296.622008  L 760.896978 323.979875  L 770.025911 330.781819  L 754.593257 345.990352  L 768.333125 359.257063  L 767.36162 369.560509  L 743.820636 351.213116  L 739.166203 342.171109  L 702.908531 327.387443  L 706.423379 337.915678  L 740.857327 353.158868  L 734.170889 353.961155  L 739.170838 370.277576  L 730.076669 358.551437  L 691.527144 340.955213  L 671.565342 355.589707  L 661.892218 402.298128  L 646.921088 410.241599  L 627.207874 407.091252  L 614.918611 367.079352  L 649.755061 354.180664  L 645.85339 341.591645  L 625.308221 328.066436  L 637.637807 325.891691  L 633.534658 319.350274  L 645.371347 314.431479  L 648.770905 294.208246  L 658.786531 288.478569  L 647.347163 268.691521  L 650.926473 263.553175  L 656.68014 276.368949  L 666.030557 282.958963  L 689.372258 270.907221  L 690.126678 265.05269  L 680.796908 253.627054  L 688.398165 252.528286  L 676.365261 243.137989  L 683.500671 232.710709  L 664.724409 238.171375  L 653.265617 226.799753  L 650.56612 214.94239  L 641.915893 215.341769  L 647.784449 232.247535  L 652.57466 239.459833  L 662.083547 243.77418  L 672.141726 266.573263  L 666.892453 273.595311  L 643.579886 254.860058  L 633.55412 263.432548  L 619.793106 246.661597  L 618.375566 212.550768  L 617.918576 192.881554  L 621.5982 189.688785  L 657.047778 191.04454  L 663.256165 198.703659  L 653.591571 201.594809  L 674.29254 208.028213  L 666.97643 203.036723  L 673.275639 202.70647  L 663.918808 193.246028  L 667.930834 192.65438  L 652.088845 185.190776  L 655.975957 183.462945  L 665.951441 188.204167  L 655.410592 174.469413  L 660.039535 169.745159  L 655.709772 167.081069  L 649.786018 165.5602  L 659.602576 161.535196  L 655.981631 159.834672  L 651.354849 160.368131  L 641.149705 157.637515  L 628.477596 152.580541  L 627.595557 150.002014  L 636.807804 152.561189  L 655.03156 155.844574  L 669.548664 162.318619  L 669.810292 161.401119  L 658.198823 155.6343  L 635.960715 151.446034  L 626.225719 148.312796  L 635.987441 149.116143  L 631.680889 148.539109  L 628.144164 146.713071  L 628.549558 144.191837  L 617.474835 143.072109  L 610.771506 138.475055  L 608.31346 138.705807  L 603.408192 137.630474  L 572.942979 128.799573  L 573.520515 127.358564  L 569.300367 123.86486  L 582.964698 125.260849  L 556.261298 118.047846  L 554.227835 115.531175  L 550.007666 115.670839  L 534.337867 113.938863  L 534.751213 114.5576  L 531.53289 114.641957  L 463.298243 115.420382  L 461.088067 115.85812  L 464.415051 115.883693  L 452.270267 117.772841  L 440.207484 119.693078  L 427.801933 121.017857  L 428.291 120.886811  L 429.181855 120.686075  L 429.181859 120.686074  L 470.188615 114.191242  L 512 112  L 553.811385 114.191242  L 595.164676 120.74096  L 635.606798 131.577393  L 674.694657 146.581817  L 712 165.589838  L 747.114101 188.393202  L 779.652243 214.74207  L 809.25793 244.347757  L 835.606798 276.885899  L 858.410162 312  L 877.418183 349.305343  z M 807.177427 290.986868  L 812.985312 293.710002  L 817.794364 304.471848  L 823.376811 310.376181  L 829.750234 303.799303  L 815.783096 290.136412  L 812.836948 281.277764  L 806.904874 277.476596  L 810.899507 284.262726  L 792.69826 271.885894  L 791.4893 263.54602  L 783.537059 256.051246  L 782.877683 265.456327  L 789.109371 278.75493  z " stroke-linejoin="round"/>
			<path d="M 434.413995 167.058166  L 433.147962 165.732331  L 434.734341 164.909694  L 435.876156 165.994679  z " stroke-linejoin="round"/>
			<path d="M 428.013675 157.637118  L 425.642481 157.075441  L 427.5473 155.660585  L 430.110208 157.281403  z " stroke-linejoin="round"/>
			<path d="M 580.709276 170.68442  L 580.974734 172.935418  L 578.086979 173.040671  L 575.83828 169.775174  z " stroke-linejoin="round"/>
			<path d="M 434.232772 156.308763  L 432.631239 155.996467  L 432.302025 155.09769  L 435.497534 154.926437  z " stroke-linejoin="round"/>
			<path d="M 436.479844 164.686554  L 435.348038 163.439604  L 440.105057 161.39587  L 438.88958 163.95399  z " stroke-linejoin="round"/>
			<path d="M 435.906135 161.887762  L 434.115031 159.094613  L 436.429456 159.00907  L 440.111292 157.165535  z " stroke-linejoin="round"/>
			<path d="M 569.248618 128.833532  L 576.64621 130.989325  L 566.880175 130.586999  z " stroke-linejoin="round"/>
			<path d="M 565.351771 167.986368  L 572.003918 168.889551  L 577.753408 178.084579  L 558.609021 170.79204  z " stroke-linejoin="round"/>
			<path d="M 566.899769 163.385459  L 570.194851 163.535253  L 561.489166 166.497608  L 563.806199 163.645683  z " stroke-linejoin="round"/>
			<path d="M 576.909566 152.464478  L 579.767644 154.913317  L 575.127291 155.133093  L 575.937825 152.073937  z " stroke-linejoin="round"/>
			<path d="M 571.144867 131.168596  L 574.290902 133.282359  L 569.415918 135.224624  L 561.263289 133.913002  L 566.218108 131.547964  z " stroke-linejoin="round"/>
			<path d="M 451.772878 164.714013  L 450.773843 166.067403  L 440.684058 166.795497  L 449.196656 159.465218  L 458.114898 158.760664  z " stroke-linejoin="round"/>
			<path d="M 482.112199 160.807018  L 484.918184 163.530779  L 457.881583 169.602533  L 455.349485 172.629778  L 438.196554 177.814465  L 431.388102 172.228768  L 436.912224 171.133041  L 440.691743 168.872671  L 441.317215 171.478416  L 443.654746 167.727566  L 451.348811 166.34208  L 455.240377 163.223417  L 459.890968 164.542147  L 462.39344 157.64619  z " stroke-linejoin="round"/>
			<path d="M 514.283675 163.421143  L 520.057022 165.94193  L 510.200112 168.044038  L 530.505316 170.209697  L 523.795884 175.079082  L 526.572439 175.050425  L 525.944919 180.474546  L 530.000677 187.331866  L 525.387277 189.131065  L 528.962515 191.125176  L 528.616884 195.168274  L 531.967055 198.685178  L 524.87579 203.480506  L 528.398886 208.386218  L 523.018882 207.956307  L 530.996923 215.312647  L 521.897925 212.121766  L 520.584762 217.799912  L 530.101452 217.894426  L 483.686021 240.514617  L 471.269515 254.267861  L 465.860077 268.064918  L 450.95716 262.143672  L 446.492985 246.145419  L 449.000223 227.482251  L 463.09341 215.812059  L 453.800905 215.884936  L 457.80099 210.555032  L 463.469079 212.720046  L 457.135726 206.344258  L 461.942979 202.723689  L 464.136202 189.412886  L 452.01266 183.713135  L 452.529812 179.200072  L 459.676177 179.682155  L 455.173699 174.982948  L 469.028544 173.077648  L 469.710704 170.035055  L 481.108794 166.075587  L 497.451774 169.271752  L 497.196448 165.691119  z " stroke-linejoin="round"/>
		</clipPath>
	</defs>
	<g clip-path="url(#iris_clip)" id="artwork" transform="matrix(0.9710876445617773 0 0 0.9710876445617773 18.781346093269473 4.93437532812332)">
		<rect fill="url(#background_gradient)" height="100%" id="background" width="100%"/>
		<circle cx="50%" cy="50%" fill="url(#glow_gradient)" filter="url(#glow_blur)" id="glow" r="40.625%" stroke="#ffffff" stroke-opacity="0.797414" stroke-width="2"/>
		<circle cx="50%" cy="50%" fill="url(#sea_gradient)" id="sea" r="39.453125%"/>
		<circle clip-path="url(#land_clip_-30.0)" cx="50%" cy="50%" fill="url(#land_gradient)" id="land" r="39.0625%" transform="rotate(-4.99 512.0 512.0)"/>
	</g>
</svg>